<mxfile host="app.diagrams.net" modified="2023-01-31T07:06:22.263Z" agent="5.0 (X11; Linux x86_64) AppleWebKit/537.36 (KHTML, like Gecko) Chrome/108.0.0.0 Safari/537.36" etag="3vlVeH9wEgjLlWwkcb8G" version="20.8.13" type="github">
  <diagram name="Page-1" id="hhk5Gnv1_SsE0RsOiJwG">
    <mxGraphModel dx="1173" dy="561" grid="1" gridSize="10" guides="1" tooltips="1" connect="1" arrows="1" fold="1" page="1" pageScale="1" pageWidth="827" pageHeight="1169" math="0" shadow="0">
      <root>
        <mxCell id="0" />
        <mxCell id="1" parent="0" />
        <mxCell id="5a-bvg9B6i0M9ogNFUY2-3" value="" style="shape=image;verticalLabelPosition=bottom;labelBackgroundColor=default;verticalAlign=top;aspect=fixed;imageAspect=0;image=data:image/png,iVBORw0KGgoAAAANSUhEUgAAAI8AAABbCAYAAABKzNaqAAAABHNCSVQICAgIfAhkiAAAIABJREFUeF7tnQec3Ud178/tbXvRrlZ11WW5N3DFNsa8UAwJMYRqUx6hQygfMCXE5EEAY1NCTcChhgDhJYApIQECNgYbsOVeJKvXLdp69/Y7+X1nd5aLIkvm817sXbxj//Xf+y8zZ86cOX3mHymWKs4odWfOOYtGo/48l0vUYlavVSwWcRaJx6zqYlauVXW1atk4falZPV2yeilmVilbKZq1dCJpY7G45Sq65ipzuXtzHrZ4Imr1et2icx7SIwBYTJhV4xERhbPyDNEnoxHLuLpZuWJDWzfbwZ9/x6KlqkVd2hK1hMV0LxNVh4v5I9S4cOn3wUDNnHHMS+KB6iOJmDhP3Go1cRn9ToqrRGLqTqVoQx++yg697iUWHdhpxea0HcqmbV81alOWsFo0Yy4i5qPj8PJQ1w9/7rH+u1qtzl/Ok6xELC5pK6llURFQXYRQsopVo1VzyYj1bFhvS7aIQGpFjXPFOty49SWcdY6ZpeMitgbCEfMSd/otOTTee6wTyUP134nLo97MS86TrkUsVqpbrOYsHpeSE49avl4WZ9GMyOn3hk0WmZDq8+Buyz6ww0a/e725/VutolvjmdpD4WTh+sPEANy+KjVgThLPkcQH12qCliOSnRLhlKwWi4jbRCxdjIl+pPMkU+bKWWvv3miTQkRsYqdN3vRtG3vm8238wGaL5cYtUo5bPFITx6rYpN4fzEQsIcJLSi+qSpeuJ6sPE4V/wI9FpDuqRFzUH2g3/tAY1KU3wnlcbJ7qPNXRJsmfpmliquctn5AOVMtZ0criRCmzlX1WWWu2bcvd1tSdssQZK8zt3moR03OSZElZXkXZZi1SrnunhJGq3tVpLF6yMYm5hXJ0DCTqKYtX03OT8xwddI11s1k+XbbJ5JQli1FLRfdby5ZbrX7wAStER811tVjtwiVWmTxg1ha3ycXtFtt6t3TpgiVd3CojU7LU4pZIpYQAEUxGRlq9aE2uZosNW3+hHBUDZakNVek9R31ojt5Mi3tEq2Wx1Lil4mKxe+63W192vpWv/Z5lpqQoxxOWOeVcqx+4Q/qQiGT5Yive/UtLlqXviCW7dMba8qpkwonjDMtXtMda41PWmsdaS87RXs8dsBLpusRXeX4STzknh2AxYwmEcCln6WyLbSi0WXrHDdJZQLKz3MqzrXl8wGy0bh3Leiz/4B5py+JK6viAlOZ8a9msJWaRG35hd7zyBTZxxy/NclmLjkjxWShHxUA1ookrE3Vecp6qjUvBrVmbEwHk9lqhQ8ruBafY0IGfWHRsn3SbjKW715m0H6vtP2gdq5ZLUdaPg9vMEnm9V7Nm1WEDd1lq8KA1/d1PLT65y8YjBd0/ggPoqKh87N2sy7iQT2R+Es9YtNVck8TVf95lv7h0qZU+/1VrOanbJg5Jdzm0V2pxwuKLe62yaL2VxgYstmyxVXRvbOBe0Yazpv2DtvPtn7b9b36V2aomi14St/zdt1usPmYHcwsK87GmQ10sZ96GJ7KRKRuTp9h6ktY2utbGS9us3n+iRaXSJB+8RzZXyqoSSamlx9vwgQetooDX4lVSsod3S0+SUtQWtVx7xur33GC1dNR6151ita07LDcyaj3jC8RzLOKJxIsWz8xRP09MTIWjsXhv8syRFnEkpLBVOjste8Y51n3HLyzvmi23MWaFHQctbVKCm/qtack6y+y512p5WVenn2XVezZbZGy3lGYp1Gs7rfSALLehirUvO8fqe2+0qckhuQBiv/VrzPg3gr8jnI+F3Hl/X74disNjryMS0SF+HhXLiVUTpp+ahKX5KbbqFTn59F8im7Pskk6bvG+P5XJmnSvOstLgNouMl9S5mEWXdFu+uN/SklnpDcvMhvZYfawkC6zVWhYvs0SvjKvBXebWtFikNGnVUQVN4wvW1rGIn/hzxCXmJ/FEFJ7wWSNNGWtZvdLKN4or1UvWsvI0K++/w9zEgCxyxb6Wr/HOPxs4aKbnEkM7rTIk7pKQwrd8lZRqs8K+gxZd3mRlTbbo7nt1D816oRwNA7GoDJSyMhaO9tBcvZeQpk9ktxxLWXJFv4KdUpT3K+rZ02310fusPrzF6oqwxzvWSu/psdqeIau1LJZpr+f2SYzJMWit3Xq3xaaGRiyeSFthUZ9F7/+BlWKj3hfUeDh8Qw3HXMXLIwUXIYpoKj4/iUehKQFeV3BOaRi9yyx6jllx16BVOxNWEV1Ud9wnPMpfk+mxVP/xVhw5oJBEm7k2cZqt9+hdVRBLW/3Uk602crcoSvUsOcVs63/onhTqhXJUDNTqCkDLLJmXnAczMR6JKoYuAulot+IJKySO9li8LWbF1nar7triswrxLlvPSstPbpGKLXf6shOtuk860ZTCpsr/qZx6jhToe8ymKta6YqlV5FNMjC4Qz1EpZ+Ym6WDzk3gAvCZuobwel1WW4AkXWHXsTllKUnaXrrb8gdt1f1h2u7Ns30aruINWKYxa85JNVpsQpxnaoRCG4jPLT1Z4Q9g4OGytfV0ShVKgt+98OLh7TD+TjGdEOPPUSRhVKgXmYq3qlJLhrHnV46w4LlFVi1licZ+cgXdYdWKf9J66iOJEBUBjNpUftWSXYlz5CXOjDyiqXrNsptdirceZHRi0eGezWLEcifse/B39Bl3ncB3oMU056nykLn1HKsOc5Dxk8x0pow9fD4dTErt8yJZTUDRRbZGDcJFV6MnuEWuR+Mnt1zPDhySV01ZLFW2i9VRr2nqflZYvsqjyd6pj92reJC3d1m/R3i4bGdhnsdgiGz9BzGtwt1w9h6ym3KCE/EHRqoKAEpNWzZNXL6TJUnusFPw94VCfvdEgT2xZOs/kfI1tRWU2lcR61BVRU8yyuT7LZrtsYt9ea21fYvEeqTF7BkQeNYtl+y3R1mVjQ7dYKtdsrV0nWWGooPyfQxZJa1VF/wa9d4Nm06Rll59l5aHb9fKkZzZQcCQynXIZl3nK3wvFLJuMaVrO05QM2E9JHmYc5JJcFmlebi1dG+3Q7rss1tVr8b5mmxzYLB1Gwc/UIu9pro9sk/WVslR3v5X37LFaeUyxPeXzSEeqFxX4KoxYout4xcBusvr4oDzcNVOW6zSLVp60WJNPsMfT+pgvpZLPaJiTYutYg0P+bETRb5Kw8fdYsl2e5tXiKLdqkMVWmzfKUXijJaYUJRd3SSxaZxEZWFXpO5llvVYb3mxTpWEtVatYatkKqylMZno2lutQAGxSvqJ9lvKsJ+KXmBCWgMN5Fu6vP7ZLVRMLR+28JJ66qF62ktU0jn4FkUSKLVtqTimpNrHf6l1rzB36lcIUU0pVTViyo9+UNWmT+0fM9bRYubzNakNKSxVB1DuWWqpjpdV37Zc1tkJcSBbX6HbdK0hqOek5aoGEb7WFHrbAeYSDeFoWLL62eVicfDyJigiG1RMiooqGtLx0icValBum/Jxc/1KrKiJhYwek4CYt3t5jJcWxygpTRNpyNqJbrYM4EsWNWhTj6lqvAKki7h1dlhEXmhq4X0Qpf8+Mhl4XgaIss+4iSmDnMV5qfoXCPF16o5inxcU2kSAJmeeY6PW+fst2rLLawbylexcr5VSENL5VBKAgaTZrbtGpVp/YKkJq8jqS7dwuX5A4i1aUNislozimpTmuYE19y8Sh7hdVjYlriVyk7iAetdzCi68FpVl0o6Xeifm6bqsa1Tp1uAD/ECQVEcXa+rSgQqskpPum2hd759/IsHw2bsQiqay1dT1Rg6+8n2TdWlrW2PBeuZMnpmTuyybrWy7OcsCq4wct3rvW8iP7pEvlZZoq+AeS1A5EM5Op8BjnOyIemep+Ps1HTFS1uYHCugK9atWK1qLLD+OiWoqz+glWyP/cym5M2YMRrZLYatFDIp5KmxU3rFMcS9xmr7OOvnVWnvqV3nlQdUQs2dtrQ1kZXAe1zHT9qVJuFMLYf69lq0oMkwJuWmCYLCtnV4lkZQVRj1mO5FhsvHaMChrzh/7bo3NAYU8KB6VKZX4SjxaIiuyrYjpa+Kflw4ixaDRp2ZasTdWk0YwVrLn7KQqIKrruxGFkaqeycv4oqbk+NWSpxf2Wik1aeXBM8XUnhXmRxZr7rOnQ/VZp6ZLnOWMlcZ+YdoOoVqYtu1pCiwW14tA7DI9VGp1rR/r7WO/Pk/vzkvPEq1hYGkSt7qymFKIQ94iIMnKLuqTmKvwwsEeJXmeayyuOVRiyktavJ1tWWEzK8MjB7eI0XRYXpymKE8mwt3pzr0X6Vllq311KUW2x5uZ+BVp3iKymc3vq8mRXxKfRryCmY5XDMw8P/32s9+fL/XlJPFFlbmGqEz4w5SCX8TTX5PDr7LNyRgrx6P1WXpS1rDgS1lfJChZPd1q69VybHN5uLjdh5bblCpZuFslJoTaZab2rREyHlNtTtXTzEnNjyjosDCpvLOE92ZJa0nvm/t5FjyThzUviiYkD1BTdUrqX5zmRury/FW2d0rLUYu0rrDx6t0Vb0lqGtdqKB+SzMcWlhNVYtxLda/sku5T707TRYodu1t/yDbmUZdvXGCuPy1Ki021aeTGpAJlSWGNak81mV9OqhpxjCyGKWfqcl8SDBVRXSgbLypUSpn16SP3S70SnJXs22PjQNm180GSJ9rVSjB+wXC3vSa2ilaPyHFpR3uRkqxYWH7hLfytdI5Kx9tbVVtMS+PzQmMW7O60wJbNtareIVJ5nEZdyF/U3GUTHjm8dnnl4+O9Hkjv8T7Y1L4mnrogu7h3yvaIyG512L8CJp73krKVXDj9Wz0xq0Bd3y/oiU3C/SKfZqr1LLJVq9mvVWzt7rKqsw8rQg97sT3T0Sux1WGVYnKmjSd5kkc2IlldIKMbE2TL6XTl8ScdDjcz/o7X1UNXOtevzkngqWv5JqEDrI2RlkSeh7BxtuVKWbMp29pqC51YtaJODRUn5bLaZm5Tpnc8p07DfchnynEfEeXqtTkxraJeWk5SUgailxs0nW2xqnxLMUhZLJaQf7VbGopQdis5sK+JjIscqC8RzLAw9cvfDfj3hHNOox8URqnLixSqyvxMp6csa8LEWSyw5wQpK+qpPDNtUj9I1mju1Q4b0F+2qkXPdNt6zSlHzKas0Z/xy5PHqfpuKFyxV77CCLK7J4l5xsqx1dGyy7oNyFppWnGqKVRTmYFFOTU5GH0+THkSMra61TBw+fUMrNthwKlZWpp2uRcStyH8h+q8QrNxFGZvSgc4GIdal+CtryJKTcgOoimqqbHktqDtqsv0c8FSi983bFaMyemYV1+mdW8URAoMggSuqzZ3kBMxFpUDHF1u5qECXz3vWOi/pOvWJu7RQXykZ3cuseWRI27Rs0/tZy3UeZ9nKPVaXKyCp5coj7k4rFpXOCrNR7ked3Z+KcW0mpWWH8vkktEFULCHxqIMwiH9GBEHQsKpsu7rC9fWqQiNVEbaeVxqMZVM1Eb5UfXWirkS1fHTEplpGlZ8kbqqJEK+Ibc7xQiaD3zl3jsN5RPDQUSjwAHQd7VugH9NxKJw56faNVjx0iyViSvaSf2dqQtykrAQv61BC2DoN7HaLFSas2HOSJSaVgjoxodfbLd21STqRBl4me62r1QqRA0pZ3SH5OCU/owZXmnlMuc9O27HgXapLF6opXF+pZqQPZayc1uqNJrkQlDsdkX6EeMWRiWhNCMgE+wNN5MUxi1YtVi0eEy+LN2m5j5yR9YpSrkuW1lLquV5iym2at5xnOtqtDpCuCstRIjwbn8FOI5azaNtqy4lb1KUHpcRpqhJN5eJ2XVBiavdSrXMXgYwNWaWvR+mU2sPHyZxPSsS0dtmk6izt3211JXmnMhIn+b26jx9ayWHaEUtCyfK5lE2lJYYUF6tqk6ioUjuSCrClY0XLajPEks5VOTBlpElsKUwiwnZK64jpuUhSUf6Y4BARJmPiWCRVSSQ2R9osNZWz5Ji8l3O8gOeUZhlrB+ZdYc26ZzYzVjOJSVxxKCcinrQW+xWUl1OVz6alt8+2D37dslNbrd65zCLtLVKoO71Vle47V4Obk/WlzMFFElXWZ4nmtWLJWyy9qN8K2fU2PnaXZRNaNBjX8lItcy4rgSxbZj07XEVtwv3UPMubI2UcihJpUpiV66h3CuYk0qI62BZGm/yKkMYtvneLje6TmGtvtb61z7OiIvusv0wQs/PLOeZ+qSi2NT8gPQyXRHWJV/mYlpTPGE48Kc/8dtqbJ9m9yCakOkweOGCZJSuVKVjUrB4SV6K7y6wl0W8TE1usK3GZ9I5lVtDKiyYbtbjrkhf6eNs7eo81KeFpoL5B6ax5k30m7pLzJnskJcKQCPK6lvQW8nuissSi0ZI4C8qRiElKtpxE+l9EN7LLm/wuT5rHAyKRgzYRG7GmWrc42Wq9f5H0nw0SiSltiSdSFIgP1yPwaJEYyXH42uYn8SBCJD4QCdOiSlN/ZjNl+Ec8p6WhrVpuc2i/1Y5bqdFQctj47RItL5I532WJ1jPt0Oj/lTgbsSHtijFS32r9tlUip035z08XQa21WvFs23D2/8IZYMWSCKyUsHZhK6+QRS2X8IsIU96OmtAyIC3zUUhkanybQh4HrXDoZyKhMek54jJSqpMSbfFou1JnmwVmn2Vq2sVMJv9EhYi/UtkUOyvqv0halplWsorW53SBeAjbzE/i8bN+Gr9+Q+np/FCJCcQFFlGLtbQ+wUoDFekdTlbRGhsZ+5ktkgIciSmrsOd4mxy8Xopxh8WX/Jk1tWg7XSnT43kNdt+TbX3/47XbZ69MeK3tKmb1qQKFQVRPvaSUjtRuaxvYbiUl0E/mD1heXuh6Ya844IAIRQQjcdWalO4icz/h5Ejy7FDiVDBXZIZXo+M6y0IrTWlfIRH/2KClOjN+DRqiTn+oY3PbjkmntaRJBDQviCf46cJ0rPOpAPGeRAnwFTTwu6Kw1ZnSUjVrY5oVY83nSWp8y/KHlOy16HhtlNFqHQpjJbPtll98tvWsuk4K62r5nZPWU1OOqtzShYxWn9bGVLd2gdAml9nhg6r9Qa20ON6yi7XLmKynrXd/0fp3X8c2PvoYijbqaElaSevgo3Isxl1VXCYncSRuIqDqbBrtpEBrh9aKOlEVx6lV2i1eWGZDHdrqrkmpIHF5gOA0WotWanJWEMEm5CrwxSvTnBGP02cuB11v+qFH/t/wyYZ5QTy/L3qc9IepNdqTMPUsi+TOtL7TF8lM1gbe6Rab0MRuSa73eoYVJ6XMDssPc7cGu8kylSVix1O2b8c35J+53hLjD1pB67vSnZdbbvHlFhVHaWtLK+IuvTYtZ6N0r6osprp8S/GUNk5QeuZUaUTvtkgxlriLaIZmOkVhElO5pZZMrpBo7DUnpTwVXySzHBd3RhxP0XtxqsyUEs3i4nA+YWmmQDRzrGCmo/P9QRJPZSprLdkLrWndJdrUQIooKfJpLavxFpH8NXLMlQ4o3jV6gwb/Hhseu02J70+2jhPeqsGXzmRSbKdutmaXs0S61cbLe2UNSXeRNbYoebEVU58RNxGzkDewEitZvjZkZdn4OfmV2tKLrdB6giUy/dae2STn93FeVIpPSSzBUQivKjSi+khJqte1pYv8ClGWd+hzPgkRYJkcT5XGlRqo4nNFmEE4f7DE45QBmCsoRB5R7o5EBjthHBzbJbGx1pZKn2Egt41+03KDX7BWfWigNTeptMp1ssR3WCXVpVWlm2xiWIn04hxR+WXy4/ssWclbLSEnXnPOxiaklmuDBWcbLZlea5lOWXQSQenkcovXFWCVj4dNNbH8ajXFzGSluaiWAWm7u5rWbiQLt1i+cquVC8M2nK9Y26oXysrSdi+RZinViM4QP5NsnJHZhCwebXEVGGBIS/mD5DxFIbpVfGJw+3e0ieW3rUlmdEI5z9XMRqv1L9fMX2Pppe3aKVX79pRlWSVGbUTKcLs29M4pxhXJtVhBcaqS/DITw1pJKv0lOilPjLIMy5GVljz3a9J5uhTDkgVVl74T75QTMOc5RVWbQykwITyPi3i2aoYeUH7RgOXlbKxUDyh0od06yrvFBJXRqFyiZK3DctU/ltXY7DdfkDqnQK3+8Wa/CgG9w5W+MIqP0jl80O8Pkng8TjNRrWGftPjALYon9csaEgco3SnCwZrJWS7ZpdRSWQwKO9QqEkqx3RpgDWyzzPzaCUome710k5WW6+7yn2EqRdfYaEHhiZRM7dgSxaHwEEsEpgZUo3Yjk3OmViAnertyyPaKDOTRVmws6nbKpJ9QwqPEWlQGvkRSWW0k9P2LxJR2p9fiwgkFY7u0ViguxdjVyItEQE07HwN9kMrKjlyUR5uW/qA5T0JW0YQ0nUiPCEEB9XL8kFJ9lNusffQq+WHLulYtLV5ue6XT5COtVm07w5ql0DopsXl9oyudWm7d69/gk8sU1RIfGZEA6tBmChJh0lVi8usUa+wwJo6iFRfl8v0SV/tkmstTXdVnmrTjBg5DYlpRTHX5lmLa+NovW1Y0PS8zV5JMYlKrOtJa9hzdISV+r3glq161DTBpJhCJjiCqPEHNRtSDWAuk9ciefUYBgeZHttlHprXkhJRTxV5qElOj0X5rcXssn61ZJrHeWvKKiXXFbKx8si1e/xMtc++ROy9i7SIPv4nuAaVm9GrLNKVOREw5zbZTEmSnlXaVrb3vHH2WqUPb7n7VDo5eY5lsQYSYtea4ovcxebgl6lIZOSQVda7JMchS5ypBRE8M8uHIbHfaeDM2WRKXkTJePE2fttykSPqZPjBbreMlcvIRNRLHXFGTfzt2s9YWVOQXtM1o0DwSoqZhmYn34s48E6oIz3AmzsE5uK296/5RLMMt49YtR2Fi9HSLdl9lldaIdbcvUz5NTgO50spViSelPhTb10uFHZevR652Of3Gkju0KcKpGvycEhH/0yKDn5GlNDQ9ywZkVncut3Ky2cqLe/Shk3XWXv+NXzNWhpPIvC7IVzQq8ZRKyi0gHYsoilXUZkzmefoEibh1MsV7LblsjW4QAO2QbobehOdZvzWV0yK6Ktn2hxefOjBT5kAeNfRwRM4DEVAaiSoQGdfC/XAOhMc5ENDhfX8kf2tzcinBmuv6us2itgu91TOlFIicvHol/ZfWuptIUpxgbKfiDZstU3/QJsbu8N/bWr70/VKY11kyM2CHSj+wJu3vHEnnbKpZn6GMSUTZCdZSXyVy06ALTXVxm5qTqqvvYFTZ5LqmfKH0+VrS3CrHYZ+sseVamrtEXKxbB0q11OnxDok19B8BCb8TrfhAr3SayIxeczi+Dp+8h99/NH4/JPEArF9qq4O/KYFIYMs+tiG3vf9M40wJHOrR6EgjDEklx0s3la6SlIZStGTpgJTT+xRpP+hDEJ2Ln6a9urUR5uRmGxn6gNay32fNWhla1E4J5ey94gQdinD3W3N0lUx+rRLN5y0lkVMtDUhUaYDFdSbdKcpC1Pe+pBclcsss09qsZ7pFCmtFmEq01470VQVay07iSNuWIXxi7JquXJ64iNeJw6DVQDhw+IpiYCxkdNKGSbg/UgnjcKR7j8a1IxIPhAEH8Xvf0GmJJL/Yf6aQyxG4TKNo43bgULMPP0J/NCIWzpLHF9OkwShttqEtX7C0+7XM7N3iHApCaiuVqJ2r9IuV2viglRR3cRGlrIoZ1ce1yXergp0SZiXpL4XqHRJ3WttVbZPX2GmFV80m4vIYdzxTVtdFcgJ2qYcdqk8xMCWFVaN6QiGOmPSXiNhfmlRVEURNhFEXgVaUUFbWsmW+zMz3wkhX9UJKmnFEeT18iigi0Rdw+Qih7/dqJozxEYkn3IRoKIGjhHMQTY26EdceLc7z32aknGx4+CtKbI+nJ+V8G1SKhWZ5Rp8JkJ/F5Xd5r25Cnt5YbJlEzu0KqirwJe9zUZtd5lqfpOd6lXV4uU25HVpM0a9NxVaonj4blqLbrFSMltgGKb2aRMWU/7Z7VWKrKAIp65NMCe1bSHJYSlmEcdJTCdaKmKp1EZgYTEVe5Lq4Oct4UI1xAEawv9kcm0k6o/I0cvzfa3QfgYehkSMSD20HTgNngTBQihtFGB0LziKIKPzm3cCNHoE+HLGJgtJKrVPWlk9Z77Vqe1YDOyypMKYlNDm/Dr0JNhOXVVTtEUc600rNyq1plwMwc4n8NtqWTt7lto6LNXMUaUccFSUC5TluUggiKoXWkfiuj3hUZHOjuiRkzUXZolUcJKWP5EZEPPiUqpjs0IU4EDThhZV2NQNfPtHdGypweFJXdY+cHr5l0FDmKhEdkXgaOQqAI6YoQVT5JbgiKu55e18ZcEg47iPqAsf6HQz8D/34b1xH7SQligbRT+ItUoZXCc7jbLymtAlFrq20xJq0mVO0pAi3lip3Ln6hlhizm/lybZIgIpOLN6lPRZZEPAS3I5VOKd/iD+pbupQWvdUtn5Laq5xlvqzMavaoOF1En5iMRZulC/L9TbgJTj1F1uXXqYmrRNiKTcSkq15ZnkaolGXagBB1Vy+ISSGyptWFw1E214goUiiWnZ8FQgCDfyTCYX+awlTJBgYGbHh42AYHB23RokW2YsUKfW1GGXbiPMVicVaJDrrS4Z3///37SIRDG6xeiKDMawxi2iWj4m4WBzgkrtLDqnVrLW3QdyuW2rjSIdJaDZGKD2qQ9XC5U1xDA5sq6Kt/GdloSiEVThAxCVZO1JJWSONF1iNlxc5UalkpwOIa6XEFNvn4rSzuqAiFZTl+Mkmk+TLjFoazJPAQquAArInreO6jv8EjB2NxtMLzj2YJjCMymS+4uKgDAglWVKlYUZQ54wlibGzMvv/979vHPvYxu+MOfVHGM99prkMnXvjCF9orXvEKO/XUU70Yw/piJwlEHYg4XBfiHQa9cRbxN+8G0x/g4HYl7boZRCPvwfE4cy3cS6WUryNkb9++fdpqwefUGreVy1cKDn0LU4PHUuOUUiY86LoPn/EDKy5JXcAZfFXAkhAyuB+8u7NOnyeqAAAYhUlEQVRLTbTNCn+LLGdxxSD6awrGhj7RD2AtS4cK1mjAB33zCz2EJ9qlH0kFX2nfT+IZwtiyZYt99atf9fWcfPLJ9sd//Ey1M53+GsaJZ6mHOjjPSgMRJH8H3IFL2j906JB94Qtf8IyA32984xv9e40GEO1VFSIh4YvxD1KH+vjtYdWHfnkvkp8qugTROKK2M6KIrDZu/uhHP7L3vOc9dtddd9nKlXKuCRlwnqHhAevp6bFOfSyNTtNRAPnzP/9zW7t2rRULsl+EGJ4Pgx5mShgogDjS4HENJAZYwvv89oME0A3Eds8999gXv/hF+8lPfmKFQsHDd+mzL7W//9TfWZmvmIiwPPL0DXUmP/XVJFKAgwISqZO6w6D7xXu6z66rPB8GlKxFrk9/sknpGCSB610GqT7DQcIgUjfXwQF9pQ4GmUkJ8YR2uR8mBe/wXEr+qJ/+5w12wYUXSBTG7G/+5m/sTW96k6+LyVJRLK5xsoEPYPHvqq/lStG3Q3vAC+4oo6Ojdv7559vQ4CHlcE/Yrl27tLhRlqLgDH30D87QAte/9rWv2a233mpXXHGFnXjiiR6GQB9xjyRmoHDJ33Qqo6y46z73eU8MvNDa2moM0ote9CI755xzrE0rEPbv3+8H7Ve/+pV/5p/+6Z/s2muvtT3a47irc5EfYJAWZmM40xEQnJfvhA4CIH83NembVwKM5zwMugdCOChhUIA1DMadd95pZ5x5hq1etdo/t2v3LmkOQmRB1owIYHqQNbDoFTFptV4cwH6mBz4QZhjUMMApfVrbi2Etrwkz2M9IEdPk5KQ1Z5Q6ITjBF9d5NuAvcBDuU18gTJ6jT8BPjIp66WfjwIVBpr88H9ekbm9v938HHBS0LCQQDtepI7QT3uc6cAAf9zjAGe+tFBNobpYbAo6nlRqIUW+Vakx4jjHgPTgPzOPyyy/3TOIjH/mIn5x+HNSmh4cG06xBKrPee9rc/va3rveEc+aZZ9ovf/lLe9e73mUve9nLPLehYhAFcDwDVV5zzTVepF155ZXWqy3aWMdU1kyn7iB+aJQCgCAQ4ACUMwf1NQ5U6ASdZnBoN5NRtp6IIgwQ7W3coDQLwf3Upz7Vs3c62Lek14se2Yizg+cHUYNPGwxsYOXAQt2hTmCZmpicFtszXANYgBsxltXmmEUNYHif6/5vpZ5SB/ACD+0ETkm/6QOFe2ntkchAMoC8CzwcgSjCzA744jo4LxSmBzlc531P1DPcmjqAgWfDM9yfmpJfiXFTPeABGLhOvyhhLKgHeDyBzxT6x/0wWRoJ3I8obJBCxbD9K9/+VjvhxE120y9utE996lP24he/eIaKhRAITFj0yBSCHve4x9lHP/pRO+uss+wKsTY/E2aQQZ0BgTxP/SCxCZ+/SuPM4Hc2JwtH+hL6g8ZZdcnzKmQAPM+WStOzglWb9913n/3Hj35oJ5xwgm06fqO956//ynNI355mbClPIFKigzaFpCicR0SdEgE6JZmDuMANQAwFDkgJA0q7FJ6j/YiO/JS8zdo5nnfoD2farAtg/qafFO4FovSDrwN8QXxoxzOP+euBcHmeZ+gfdQYiDINM/X7wJFZisnDr6JYi2rR2tqeexgKeAyenP6FurgMbBBUK13iGfoZ+0Y+LL77YvvKVr9j9999vT3+6VpWobdqZQZfGSS+UWCEngEAWhLBz507r6uqyd7/73V4ZhlXzkkeSKmB2UaB8yuLFi+0Nb3iDR75H3ozlQOe5BqAgDcuM9wcGtHxF98I1/gZ4FPV9+/bNyuq2tjYvkykHD2q9uQosF50gDDTi8+1vf7vv9AGt06Kupox2BWtu8rAwC9OZpI2MaOMDwVEW4eQU82ppafH9hVOhSPJ+d7dWaAm+oYNaCSEEt3d1+jNtMxBwLvDSrL2cIXKQHmZrUILDJNm7V0ucZyYY+KJu+jgyohRY9ZP3li1f4v/2BDPDGfibiRMImncCvj2OhHMGj/EAn8CAToqEoP/At3r1ajvllFO8RQyePOHPEB51BWIFn4GoxsfHvRQBf/y9ceNGr7+eccYZXi0J3It3AvFIXAklNecEhBMSMdudLCevGEihcuqkvyckOzXqz2rACZn+4J6ULycgnTrm1IgbHRl3U/miE4LdlW97hzvn7PPc2698p/vSF7/iXv2q17qnP+0Z7uInXuJ/S/MXjp37za9vc3/5rr9yF114sWtv63Qd7V3u0qc/013zoQ+74aER9+6/vMqdf94F7pWveLV//sYbb/QwiuP547nPfa77kz/5E6fZ4kRM/hngFSd1n/jEJ9yznvUsJ5Hq33niE5/o3va2tzlNEnf99dc7cU/3p3/6p27Hjh1OVpu7+MKL3BPOPc99+9vfdldffbU799xz/Xtr1q9zL3rxFe7GG25y5VLVyepwI4fGxMic7zv4AGfvf//73ZOf/GTX19fnRHy+vauuusrJ1eH+5V/+xZ1x+uPcc579XDc2OuHr4JCR4XGWnyx42G+5+dfwTSf90V17zUf8MyI0fx9c07d7773XveY1r3EiACdC8e1JP/GwPulJT3Lf+ta3PFyMGWdNTCed1Z1y6knuxJOOdwODB5RFIuBdzb33fX/t39NkcxdddJETkfux1AR3IlTfBm36MReswKJPLpR8JyiiPF/BsmXL3Ic+9KHZRrlHZRAKRbPDHxSIC2JqLBAjBQS/56r/41Ys73cb1h/ntLDfrV+30XV2dHvEfOXLX/UE9slPfFqMPObvHbfxeLe4d4lb0rfMrV2z3rU0t7mVK1a5J5x/oX/vz57zPN+JW265xcPKwGqG+L81q3xHL3vuZa5cL7vbNv/GI4N7G49b79avXe36ehe5DRs2uCVLlniEPOc5z3Hr1q3zBMjAi2OQcuXOOPU0P/D9/f1uzZo1bvny5W7thvXu1DNOl9EVd5/9++s80VA4g4fvfe97vi0puU7i1MPFgFI/dXBP1o5bvWqte/zjzvbvMhBhMCCeMJl+cdPNHidtrR3uQ1df63HJgHEG3z//+c89/PRl06ZNvu5wrF+/3k8Ifksf9c8zXuLSfnKdfMqJbtXqlW5w6KArFPPuIx+91j973KYN7kWXv8DJPeP7A9FB+OJkbuXKlbMMAzg44oJfaQPTHk9EAOwNi0md9Ww9sD1EDKbeN7/5Tc9mgx+IZ2DBvAdr5zesFXGDEsuKAWR4V7fET2SV3q3ZC17wAi8uNDDeh6TZY6eddpr31Tz+8Y/38hX2+tOf/tS3z7vDhwatp7dbO1BoA7kZXQORi0jFAnzlK1/p4aJtIdS2PbDNnn3Zn9kpJ5/mWW5U5vlTn/F0DzcynH7AktGdYO+IAOqlL8tlkUSkUwATFt0znvEM04D4Z4FJyLf//fKXmpDtdT3M9J/97Gf2lKc8xRsZiEGspNNPP91bkXfffbf94Ac/8Poh/QZHtBd2VmUMwB8iBLFB8WEK4U6D60UveuD0PWd79+6z17/+9XbSSSd5PxyGzGc/+1kTgXvRJcKyz3zmM6aJ5U18RJA4oe8fIguFvLWl3TQx7etf/7q94fVv9HgHzp/8+KdevFKCuGMsEMP8BlZic16sjk+IBcoNCqWpg7PUK7+JnxmwrsBxRFT+PqKt8cxs5zdH+PvZz362F4OyiPysU0e9aJFV5uuF49x37wOeG51+2pl+lv39333OHRoe9ffhXrt27nF//Z73+hkGK2WWyXT0M0AuAt+elGT3jW98w79DAVb6wgxnBsLOhWi3bds2/x4zkBkFS6fe8847zx1//PHuggsu8GKM5+AcQqaTLuc+/vGPe7FMEaF6EUj/eQdYuAZXFtHMzva/+Iu/cOCKGQ8smnTu05/+tIeXeo/fdKIX20FcwW0C9wlii/7RjnQlLzopAQ4RhBPBeLwibuGWjYX+ATftwYHgNkNDQ06E5S655BKvlvzRH/2RF8twFelHnrMwNmG8gRt88a6Iz0lHnO0P9XN4Pw9U5P0jM6YmHIQZAqWjmDGjKTx39tlnz1opzFIB7WcRM566CGGgxDEbeB4q5rnbb7/d/uEf/sGOO+44ryQmkwn74Q9/6DkBHEdi0vuREvLi4mREyUXJRBmemBwzDfY01WOKCiba48ysgCPSJr9pTyLNcwJmEwrkO97xDl8Xz4S+XHrppd439ZKXvMTE9mf7Sn+oE24FBxOBeE4RcPGqV73K94MZj7f2wx/+sFc06R+c9HWve503NFDIgZECh8StAX7f+ta32qr+Nf764YW2QwH/gRtxBof0jb7i7UeJ/c1vfuMVZazM0LegXL/61a/2ij4w3nzzzd6RCweiHuChnte+9rUm8W27d+/2+JV4/R3udzh8h/8WJ9MGbSKWjD7uinXD35wffPBB/yxI4wARsGJc5hQGine55y023UccSFHzMS/EHoSB2AlEiVUGgeEep3zpS1/ylsHm2zebOJWvD3Pcn0VgIA2Wfdlll5lmnx9M2gsEDyGADM6BJVPv1q1bff34nr785S97wgGGMAg8C7IhLjyueFpBItepC7ED7OJGXuxwDWIKA8N7ED6FAcdChFgQazhKeYfBBy+B6MAP/fjABz7g6+NoJBY/gXVwLRAwz/AecIV7tEVfsNre8pa3eOsz4Jcz40e7FPxe733vez2+IJBVq1b5e/SdCSF9zI/ZO9/5ThMn9e3yPs8/nBINA0AnGRwqhwIx2QEQIgn6AJUuXbrUm+Z4HSEmOAz6DXoDFI55h6mPPGam8A4dBCgGmnNTc9YjDy4FwEv6lmjw+mYRBcFxHYQhn4GL38DINQp183cgisaB4H1g43n0AApt0xeQRuEeRMV9uEggQurkeiPHpQ3a4x3g5swR6uV9Cu/CfXg3/A7wggfweOGFFz4k8fAeB++EOiBi2uR9xgZYKBAzxABh0afAeQLB8gzEwbtwX8aEOgMx+0ksAmfyohdt3rzZTw7qe7hFQeNp5x1nGsEhCJVKRnqlEqSFwQyVAlDj3zT4wAMPeApm0CgomAxII0egDd85EQRnCAlk7NW3QScnpx10AVGBWKKKJ6EEUgJB8XdAIiw7ILsR4cBMXeHciFQQB6K4xxFmL4htJJJAkNQfCJc2GuGgLt6hfq6TcRDgoX8U3gEPKPeBowei8g8coQSRB1FQ6Av1Be4HnhlwrkEEgbiCWOIdCIYCcUNoPEeB2PDlUAf9xyeEaAf20Gf/4DFKlE7QMV5iQHD2YXUx+DgIpYx65FIANHSKToSGYKVS3LylQawLDZ4wBfdBHLOEEmYHAGM9vPzlL58lAvk/fEwNJFE3BwMiI8mLN8QKnQ4znzP1UzdnkBcGhBlHX+CgWB3AzT2u8TwIpmBJoffAEQJXCQQf6uQ5/g7t8bvxb/ABt2GywcVuuOEG304YzDBJeA8RcdNNN/l7gctwnUIbgaPxdyAS7oVnOcOF6Qvcnr4hKrGEuQbsgVOBYynEXhxxHYnAOPI3+g7P/du//ZtdoaiA/EX+kO/LT4SHW6IBaWGWoKugEP7617/2pqX8IPa5z33OzxqQDDLofBgsFDYAoB44BCka0uRnxQTXvUteJcxqAMdM5bktW7fYWY8/y4vJm37+Sz3z22BqTNvEXf+d73mlDz0KGEPbIAFkUmcghkDMEHEgJIjjH//xHz18wAECmSyyquzNb36zV+Cph3sMGO9BHFzjHQr1BjEZ2gr44h5EKt+YnzAf/OAHfXtcpy7qAG8QKpMFfYn2AwHxTCDOMDG4FsQHagIeZPSwwG3/9m//1pvjuAJe+tKXeoWdAvxMUEJMGBroZdT9vOc9z1bK/RDwx3NwITgS4wVuUUWuu+467zp5uEUwTss4duZEnIA0iOGeu++zqz90tcmZpaDoy/1x7TXX+llGNJbO/PM//7N997vf9QPAjAbw973vfT7wh+E+pW36ZYLL3Y4tp+Cj8kB8B2VNUcgBuvJtV3olEotHZrNPATnt9FM8HFgAn/zkJz1HCxwvEAXID4McRCOIAkEMljzH3u+CDwgE/+u//qvvF/ewjAjmoq+h3AI3REF91B/jM9g+w3haceQs55wGnM0rtURYEyjoTsxw9AZENu0w4a644iUmj7mPDdFfCAcri8Fm0gTCC4NEXwMBhX4hjoPeiOWIYn+BFHjw8/znP98TDz4niBZ/FOoG9TOBscbgvogqLDKyH+hn4Gx+5SnErX719HTZFz7/JW9FM9ZywnoLTk5VDyvPEHphDPntJy+LGVFJjkRlDC5aOizypS97qY9cgzC4A5YJziv0I2YaxIRzCbNP/g1/rVyajmaDuIAUEDRLqCLYwPpxdmFSfv7zn/fWAdT/l+/e5okHVotJilhkdjBTAJ46A1sP9fA8hd8QGlYfSMP8pw44DcRDHgvclRmNQQDHCVyUOgJx0kbj4HKd+1h/EBv3+e1Fq+4htqmbvKYzTj/DiwSCytxDAadvTDjEDXgIBBvaoB5gp6CPQJCY23AriIJ30SuZpMDOJMUxCmHRP8Thd77zHY9/iIa+UQ9pFUxS4A3mf5A2EACW7+mnn+bHmywFiJGxlLfc4wVCh+N5nItpQEizpViqOH/ITY6zKrjAcZVTNt92h3vTG9/inXi45f1ZTkEhxTuhcFLhXFSn/PMC0LvQqQ+3/ate+Rr/Dsf2bTtnYzjhPufxsUn3sY9+XJuZJqbbUN2hDRx9P/7xj53SQvw1IdI73nBiqnMeDhx3XMMZp45655YIyMPz7//+7z70AKwaIH/mPc4SaU4ixv8tceYdhDsU3yJ0kkpmfPwphAWAMzjwnva0p/l3OKRz+LY5aFsD6BZ19/p+UA9H+PsH3//hbCgG52hwElIvTlPOtIPjkUIfNJl8eAOYcejJmJltS8ThJMJ8WKaxX/yNI1HiztdDuIFxwVGIA5S2gevggcHZdokfvvAFl8/CfPUHr/FhK0JFPE8foA3g5Ax9RCAcNaYpO+1fYDYxA5gdUCgzAmrnN8owbDFwHpRqTHZYuGCc5SaIpzCD0fhR0OAGaPXoDjzL4WeyjqBPMTNuu+0227NX3E33qZ93+BtlEzjgOCedeLJm1qh3fDEzkOeIIOBltsAd+JuZFXQiFEL8P7TBs7BpuA6KLk5K+gx3oL677rzH94n7cCn6wuwLnObe++72sHAN0RL6wRn48FEhVnDpcw1ugGhBZGKMcFDgCMAJbhs5KLgKuiX34VJB0fduBPWPvoX2gBnRCGemDXQw9MpgwoM/2qAfjB9iB9jBA3XQHs/SBtyKNrmPkQI3DWMF1+R6oI0jEg8PUBlmMnmzNEoDuSa2QZsugQBoiAGhs1zzOkf2t9YZg+kRofgW4hAkeb1HCMHfIwqeVaRhi+hdPl9F7wURFJDLe8CC7KUtnvFn1U09gfWTskH9wAZyeI4SxCjXA6y8E0Qg/aBNdDbfzoweRPvcY0B8vyW2Q1v0N8DncYTlpj54Ihb+9LjHHZYkMGaUT0Se0jRhT6eUAltjX8EzBEgdjAWw0B5nCGdS+0uHvgeCnp7w4AM+MJNUrx9cp7/T4zmdVgP+6HPAD23QL67RH/Kq0PEotAN+gYe2wjucj0g8vESFAeDpAYcDTachkiMLMCAlUGGgbJDile+ZgeNMPdQHUABBfQACMvib+wwO9fmELiVge6B18D4dChyEd1Di/HlmgAMiQ1sgj7qCd5j+ABfP8wwlvM/vMOjhOkQOodAucNK3QEj8hjh5h79DP/gNHDwXiI/3aYdCPwOchGbwpHMfPHIGBxzUEwp1U2gf/FGAl3q4x4BTL+dAwNxj8gXYqDu8F/qRSWdV3zSOaD8UllCRAUqhXk+saieMV2MfHpJ4AqID8KFxgKRCKDEMHBU2DizAILbCOzwXOhmonYa5FogTxASuAMeAAwXkhAEIxORnvjT/RvYJUhhQlD/fWREPdfMubQWOFd4JSOE39XI/EIeHRV/v5bcfCBXOXMeNANLhPMDB9dCX8Bz4wJrhHhPC42NmInKP57NZ8rOnuUMgaPpA8ZNvRozRF54PuPC4V71B2QZuOBpcItTNWEA81MN7PM+9MEGpo3HyBQZA22GsQnuBaHiG96nrdybykXSe0AEAp/Cip7QZQiBdgIoDMdHZ8DfvJuLTvheuNXY8ABOQEgiQ35RAUCRkh2e43ogEP5ANOlVAaCAEP/giPuCgAFsj7OFauB8Gj3pp3xPbzOevA2GEOgKcEGfoSxgc35gKv+Gu4Iz6eO5w/ASCCEQCDBTeCXCFtrnHc4GYw7uNcANX43j4dA61HQgj4DLAxOQLY0O71B84VBiDQIyN49f4N/AcUWxRwUJZwMBDYSDqVwiz+nWhLGDg98RA4HILxPN7Im7hcWFAbh2OI3qYFxC0gIGjYYDADZrNAuc5GpYW7h0RAyjOKOwLxHNE9CxcPBoGWLPP8V8hhWMZ3yYaYAAAAABJRU5ErkJggg==;" parent="1" vertex="1">
          <mxGeometry x="580" y="460" width="125.71" height="80" as="geometry" />
        </mxCell>
        <mxCell id="5a-bvg9B6i0M9ogNFUY2-4" value="&lt;font size=&quot;1&quot;&gt;&lt;b style=&quot;font-size: 18px;&quot;&gt;&amp;nbsp; &amp;nbsp; &amp;nbsp; &amp;nbsp;Service A&lt;/b&gt;&lt;/font&gt;" style="rounded=1;whiteSpace=wrap;html=1;fillColor=#f8cecc;strokeColor=#b85450;align=left;" parent="1" vertex="1">
          <mxGeometry x="105" y="240" width="255" height="140" as="geometry" />
        </mxCell>
        <mxCell id="5a-bvg9B6i0M9ogNFUY2-9" value="" style="shape=image;verticalLabelPosition=bottom;labelBackgroundColor=default;verticalAlign=top;aspect=fixed;imageAspect=0;image=data:image/png,iVBORw0KGgoAAAANSUhEUgAAAJAAAACwCAYAAADg6ueOAAAABHNCSVQICAgIfAhkiAAAIABJREFUeF7tvdeTJNlZ938ys0z7Hrt+V7taeQlJeBCS8BIvIREEEBDECxG4G4JrgttfBHf8BxBcEJgLTASBC7yVQBLIIu+l9buzY3pmurtcZv4+nycre2p6e2x3b4/eqZyprqqsNCfP+Z7HP8/JarZ0FFt7V97jY9Y0Yvq28/0omja/5833QOfmDz24I69CbOa3K3tqkZQ1MNoB08Hden6lA+6BIwGQz1AHOkpeYyAz5r3iVfC3B5w67Gv+5Qf8wPPLHWwPHBmAMgFTD1M1Opsmg3OpHA9T1llKxfI9KXVWIUL9IEwtbcqmVOlgH39+tf32wJEAKIhPXaZycDFtPfHZtPH1T6VyuJV6x+5Na6/+9rRw6rGUF91U13kASPDMimpzMO132A/u/CMBUENakHY2t9LmF76Qznz0/albT1L/1ENpeeXhVBx7BSyunrK5Kw87l4kObuAP6kpHBCCbn6U8z1N/Mk5LF15M/XIgUUr1+bOIRuNU9+pUghiFarmX4MkhR/kcRQc19gdynSMC0BQRvW7qri6mxXySiq0LqR4spGrzXEqjzVQtr6ZJypGUGjG64HE7UKVGtG6ffY6mA0HBPi5yhEoOg1/0Um91LS0sL6OElSmbDNJk48VUbwOmNOKxhuhj27wGAGeIzjbhVfLbVYaAfTz+/NT99sARUSCanUFT8n7qLh1L3fVTaev5p1KnnACgF1LaPJuy8r7UHZepGG3zuUxVZyFNltYA3RInS4/m253QA0cHoEaqSVlvOeVrp1PVW0o1VKgQPBefT/m5k6l68tlUPftMmmxvp+Ke+1L/TW9N6TjqfXCuOfu6ywE0BQEAyqBA2eIKlOccmhk2ofPPpcnC8bT9wQ+m+pOfSuPxOPXe8Lq09uBDKT923xw7dwJypm14WWSg1lmx22kR6tXCcipWT6aOlKhCurm0kQYXzsDh0MQml1J57umULj2bxr7GG6nOtVjPZaA7BUOHCKAGLgq8DrnOCl8TXorB4bpQJ++vIAfdl1bz42lxgGyzOU7DcxdSD519+eR66i5CcLqXUj0+k+rNC6Hiz7c7pwcOEUDSCcFTAZrmNZ6+u89/oaF3llNv5b60tng6LQ97CM34wzbRwEachXY2XOym8SJujuwSctGLKdveunN6b96SqZHlkDpCAKl4q5KrjnfTFvrTNtAZsR+A6InvQnVW8X0dX0eg7gKUItVbgzQ+eyF1FtDSTh1Pdb+XKnxlg7NnUtraBJlzFnZIQ3bLlz1kLQzDXzVM+fBi6mxdTNVgO5U5gFk7mWqF5gwSZAtW8MCfWE6TVd4HWHt0cZw/l9ZPnkjFiZMpbfRxuE7S1rkzafXyRspOQb1uQQnTj+ZLH9rcj3bLGLnuCYcIIFwV0J7O9sU0+fJn0uALn0/1OTSsleXUf+u3pO5jr0b+QXUXUAudNFnvpeEy7GuEn35rOw0uXkzHHn04pWPHoWH9lA+gQBfO8zqbFqsZAF0DSLOgsQdaZ+wcQNfFwy3/eHAAkqvsNZiynq9+MW39x7+lhcubqb73npTfczp1UMlTfwGKlKdsARAdW0zVOjaeja2UjxCUNy83D7MKa+sgSW9zna1L6dLG+bRYGwoyfda97jkFjKCpANscNLeMi5s+4WAANB3MRu/y3vqsGraRegSHLfJtuAE1upxGl5CCts6nDrFAOSr5iCOLLsLz+jFsPCdSehpheThK+eZFXBpYoVfWUmcRV8dlvg+RjbhGqtDlCnW7KzpA04SIZ4xNL9qEEJHti5gFLl9O5WSSlpG1Vk7dkzKAW3PENbA3vcL87WZ6YP8AcuQMLGQ0KgjJROCwI4+dwAMKE3YeBm+ycQmr8hCP+8UI5aiPqaXB6orFVK4+lIarj3DOM7gwNgDMC8hMHLe4kPKFbiqQX/pDXBobsMHh+VR0tEjzYhNKVZAk3a9Awx3DzTR44gvphU98JA2fezoVAKj/mtem9N3vxNP/YJw7B1F03762A1PjsQEGeEYAZ4LFp8L5iXcUIXkBj/uplB8/nbbzLmYcIPPixZRfuNg4UAVQBkVYvD+NiQUq9Y9lAG94Dmqzgb+1AwXqpw5AXABA4zPPIwdhXKwHPLhIabZKbQ+qVtcAs9oGu5dSdfbJVH3qA2nh4/+RTn7qv9La1z+JGeA5zuUYz71CMvfViXfzyfumQDEGUB7NewSoMiYT1HW851iREyxHDOXcJVtfSyPeFyEP+Saq+KXLaGiEcQDhgsjDrFhI/bV1VHrCWsc9gAQgOX8RAKXjx9KojyB9GfBhBxpunE3L92MrUhYKVlRxT240wUY0gMVtY8Uej9ISdqQTaytpawwrxDFbIYQXsLPmPCglVDNi+ufbbffAvgHknRs6UEdIvLE8w7NfS1tPfzFlsKrF5fV0HPbVve8UXvfF1AU8GfJNcVHrsrIMMlAFCLrdtHgcNre+giGxmyooTjnchjpVqVhbSzUsq6jHqcO+8qIWaSgccUR65rNqjOp/Lg2f/loqn3kqVWhwnWPH0sq9p1L/+Im0zT0qzAOjS5vEHQGmHdIjeuaS0G2jhxP3DSC7v4O444X6UJfJ5fNp4yMfSS/85/tTD01q8vgr0vHv/HZY2HrKV9WyngM8OE3PEXk4wMDYwzZTwcY6Amg9DXFfDM4UaeLYQk2qMcFlCL0TYqQ7sLb+COEbf1kaQUl6hHcIACjP5Lln0sZ/fiBtf+GzgGuQVl71mrRy7G0Bvi4yVMa9xkPii7aIvSZsBDRe0eT204N3+bn7BlCwMFHEhxy1uYOwuoSAvH72XFq4BCVYw4q8ifEP+0+OwbDIR6k3ABRnz4e2FVZlL9IpyMhYgnKspJoBr6UqqO3jAVoZAOour0HRoD4YIxNGxppr1mt48RG+shIgovovQfGKZwgFyYYE6KPRXR6kYmEx9WB/Kd9OE9q2tbHB/ZGfeorvcwq0X/zvX4gGPMpAviJoWaF3eSGt4qJYJ1B+AQdoeQm1HXD0YU/dRbQy9peo5Ql21DhVPZcLwKZqjtN1kZXIKJfR2qBi+dIS1Atqo/d+sIUso2MVECF11QjTSl4dTAFLsL0lDI7LuEL6G6j93KPoEza7hPyEsFVBvQZYs+vtSyE3xb3nbpF9YWjfAFIILRjsQp4zYYALBgthuOivIq+geiPrJALlu7CohRPH07hXpM3uGDl3Ay70PJZoZBnZiRGKuN7HyEwDQl3zssLwSDjrxc1U4hMbrC6nEfJQB3bVH5zFJgQbVJtiXw31SsuLqT69hDtECxDS2OWtNNp4CiPlBAEetwmA9tzMfZv41JCnsqB+Uwq4r268e0/eN4BiAABQmjCbTaNg8Iu1Y1CcY1CRPOXIHOksXnTkjwzBdoSwvJmV6fJoI1021qdGIwMEmVIUMUEVNqMRlEgALQ3GyEsI3UUnVWsI2ILAAHzOrTBGYlSCcnFPzANpCWv1fcdSdRIQcY8xlGqw8TQ2JK59fC2VXSiffjmiHcuN50MDDN4ZFMjXfLudHtg/gJR/tAp3GIQYTO02y2mBQUuEYoyIZx7DTsoLF6AGS7yQZbIOFGSYxvi1MoyFNbp+2K6xGXVWj4MjtC5IW66aDjvqAsxlLNL5AlkbnTwNkGG2YW+JlCBIGJQECoT9KF/Fmr2+GilBUraJgrYsFkFaKlbTvjHXG1xg/8QcIq4v2/UZ5ttt9cDBAMhBUAZCXU4FwjDUoEAYHnezNGKMBgjV2xcRmnsM8qKyDKr3GNkF2ajWbtOGmGlEXDkB+BCAoTZalQu88BkX6azAEpGtwj4EcIa4OUp9Zq0gLBUiFShh96n7tKczIqIRLRBKlB8/DrAaNpZzrcklqGILoADPHEG3hR5O2j+AHEJTj70SM1x5pF6BUmDzGQGgCcLrBKPeCLDksKICGadm5new4+R46qvL2HSMDQIIyi5maSycvjeVCL9yl4wIxfoiqvci2tQaIR/TsVYlH6GRNcKwB9KARQTwY1CvBZMSN9M2rG7L+xAWkgPorA8oYbfj81AvKFENG2uKPNxu983P2zeAWglCKaYSSA6kVuNjZlssQEnkIbg2UMlNCizWjqdOBzbHvhoAbZ8njaeCWkCFIolwgYE+fopr9ACe5AsXBRGKOdfNEKRL5KUKtrgNVRvg3TfENdRxKF8ulcKWRIEP2gHAyq20hTmghiLWUi85HXfRD1eexwyAp74Jr/Up5tvt9MC+ANSCR7epL52TYVLsQglOnEjlqWNkV2BRxjdV49cKYfnkceQgBG0TCfGUj14EQLoaUO1zyEGNJtZZO5H6UiqAVub41ghI01pZnoItQkXgTQTfo8ZfepFz9YnREmSvnLyxYv0EMhBtCIAO0mgbW1MXK/Yy7pGOFAcwY1saX3wRKI0Dto0j9na6b37OgQComb/SAWkMski+hkX5wXTpkQfTcEWjILacCTO+gG3cs4pGtYAMNE79c5dS7wLq+AAf1WSYumF+7mD4I8B+5YFUYf8ZLI/ToAJkHexJ9yym4fFFgDZIa5efSqsXv5rysb6t5ry6WEsVsdVmenQQj5YvQLle0D9WI1sVCNLIXbahPIcC12iATcj/nALd7lTYF4C86WzXK55kakUJ7zqyTEnwWLa+gGZPeMdkM41Ru/P15dRVHkFeKgjtKLAMJ+Ug1erWOdojRnpFdZ5I6gJWNKaG0IRjkKty5KAOlGxpRMz0RTzr+N6aViBy54spWzoRJoQi62IvonXnLqchrC5fRwM0ZBYqNOHc8eVnwx3SWKNvt/vm5+0bQHZhW/Bgx7PNhy62mBU0oj6D3l9EKBlOGK9B6qHKL2DTwc2OTILvHudm2oQNhSYnHIEh2lqF62PMvnKEvILzdYxhsEcBquVFHLMI2N5z5Lmq8lNNTCF9AU2si5xV9rALIRclfGnlEPkL21S+Tix2B8Ee08GQiiDwtwBQyOVzInRbs2HfAAqqswOhaRsQpjsAaGl1JVTvDJU8A0BjWFaGwbELFamXYHXYdMohPi/Vaku60JoYRwBUryMDhdZESMgWEYUc0yMFaGXlOBo+53KkWthYd0jYnwwJQcszWH/5RBoSBpth/e7X+MlKQmkRzsvF4zQWJss1C2SyCmAZvVRFXRnurHdjDqRbAtK+AHQ1eKb6tbdnkPJeD7mDQgh9AubRmjLsOeWZjTTRsow2lS0DEoBVwcZGLyAQ48PSkK1enRniittjAXbXR3juUrUj2yQtKFtESTsBm0TjQwjfJsXnMoJ4sD6upTkBfR9r9nHY31KEhHRlm/jjjBgqF2FtmBWWMXz2EOyHlJSZEIQW5xsR17o25kC6aRDtC0Czd9mBjzNYbYrZrzrfDmw+Zt8WWg8Jg4kIw4xMDDX+CuBMsMuUvntBDTNYC7vYdBZPUPoFM0AfOpGjURm1VncswulgYxAkYH8Lj7+BZ7Fxag3lU4srcL5O5KmwsAyNLQedXbz3XahbVw1ti1hpbFPlpI0ImAJoFkjxLM2l53/37oEDA9B0/KZ3kanhEO3gVF04mSa59htuxWBVBLqXUKdRD2OjR48GsCcohIFm7DA2iAxDKNRxrNkAAXsQnA7NnXhHBW2iDCfIUWFQRIAuL76Q6hFqfhgS2GBjOalAxclTqQJ8OQ7UAhZYVLCzlXuhjCuACXZ3iQRH3Csd7h8uk5b6NFdp/s7BM9sbe34+EAA5lkGBWjIUmtgSs/0B2Nhrsd3cm7YXGdgOQusWsc5oSJsLaGnILl3idAq0LIPE+iMsSVCKuiALY+l+5KR7U4XvrEQbm1TYdCqiGI+vpNG996URQOmPL6WlS0+k3hCNqjLlGTsTYSH58ZOpeOA+AvKRicz+0J0xxBHbPc15AHqCoH0RynZuIy0pYAftAy1SrPYVpCcg3lChOZiavtj190AA9NIry0s0KOI4XQUICK8TyEgEu5OW04lAezJO0ZI6BpjVlwARFIiAr1r2py2pg6qPMFwTFlJiJBzjSd/G+JdzneIkth6DzKBIna0X8a4DIATlDCrUZIEQhYj7AnRGSCySdrDIXH8ZxRwmmqrHIALzQbWJNkZAWqBkxzMvWlrEzCBnDqKXDPWBAeglVMhbwaryY7AxtK7MgVRjwgnaJ4B+FZU612EKgIoaQ2OCDUGNKgRcuVio4GhOY6zaYwBkHenR2WeJPQJwyDh5FzeJkCHIfnCeIDHcFjWyjVQwx/NeKMBjBtCrX6Lqj8lLKwo0MrS/SfjoSiJqLyAHERsUAJpvt9MD+wJQC5rmveVfMa7NBuvJUce7ODgzXBIF8k9BhCHehHCqmu+V4TVPE9ja5rNQKFRrAGS2KioUrGwJ6zHCMGp7jk8r4bqYIM/U2ILGeO4nOEYrnKoTBOIMQ6U+tbi3EQEW8ESg1soT3ntYZ45Rsljphztk0kUILxHAt6cAmiU4swTodnr1LjpnXwCyn14Cnrbz+KEmbKMgjqd/ggAzjIQdbTpEKFaXCW6HuvSo0Kp7Yzx4juAvcri28U8RMKZsZI5HCLywusogNRhPZ6DmBFgIPFNdL9XYdMTi21Lb0qsfbIjze7hBFjFYCqASG9N4m9CRjIjEVQL0BRAx0SUy1XiL6EYE9CvbFP1hFd3Fs2bmyF2Ekes+6r4B9JKrN4ja2V0QBNaFChU9ZBd936jc5SYAgqp0sQdNYGFViZ9rdA7LMhVapTRNbAhuCWQZVO8OYCmwJRU4XStCQ7pLK4ADm06XwDTAMcHOU2OxDjUuxhzZR888mliNsB1QgEKVCto6VRGuS8Qg+B/qPC4S2GNz0LTZ8Qyc5fXaH+bg2RnT2Q8HD6DdtyE81fz2zFgdBGCF4TGuBClHiTo+RqDOzDy0tO9l2Qmhr6jVGgJM2+mu3ZcWFwEgoMpJDjQQrEB2WiABsSMozVxEjS+Nk4Y3Nln53HPpnjQ+/kja6uJXgyX2zTEjG6RD7HQPF0uGS2MR1rZogiNsMILhZJ2GsQWAtClwvwDS7oeaf2974HABFBoVbAw5JkfwHWLEG+Z414cE00MNRjhNtxOx0/lqZKsWF8/gRbcIla4Fmog6X1D+rofKn9doUNhvauw2VbWJeYCYoj4uEy3VsKLJJb3rBtnDnjLsTp37KRfzeNoESB0AuoIhskdu/gJpPivWHQIwq4MqLZ+FKhlXZE8gO1WwP4V445P01IfRcr5dswcOF0C6FlCdOwjMHSqxjmBbFmBQ5a4BUkbsTlqiAhlaWU6yX0aAWQ6bKtqZH2o32hTxPLolDFgbE/8zBmSJogsJCuZAl0NCVxGwMyhMCM0mOiOAd9fvJTz2nsaaA5WpCfDPEewLWKebmSQZwKouk+SITckMj0oHbkCniZFsem5Ogq6FoMMFkLSfAPpsCccoVcnGfgYIHYRWAl1JIsQxiue8ipV5GDIMfhkAylXT9M7DZvSlVQSIjWnpRO89vi3LtqiJlbA2oxgrQYVLI5lzjxAdlcjweS2RUr2K/GXSyBgr+MT6iv5G4H0uyxJ+njvAmj02z8wcsya8tqE8c+pzLeC0+w8ZQDHPI0IxEaNTGamoSKEMBNXoQZkW1k/DcnCEYkSsrP2jW8LKG6jz2iL1yFcIvSPANAZAZYRnmCuGRZpa0pgOwRosT5cINqYIxIcNhUERX1wPlqV12kJTQworjHDeWmpmAVlIB+oY4XswNjrxLNeCFcJULRAxj1K8EXSa3w8ZQM5ybpGjhsvGeDmQlusticfpwKJ6xu7IdsgaHZOuPNok38uF6BBeMQUBILSoNdR9DICVgLICB+CrsQPpXY80ImUWKMwonKohfkcSK4YgwlwJYMPvJi0ZIkhvE0PUQTPsAyKp3gSKtzl6MQ2rs4CGXHwK1DTUJ6AY5x3VsrI3N4RHe9ShAsihRHdikM22WE9L68byIFTDhkrSfCK1hmyLin1jLc0U0Ny+hDyC293QjLGMDvknp3pZF7U8g63lnFsg6wS6kJ9yVPxYkA5rsuwoLN5CQFDh9S8oDSNgmlgjtThLBnMIMpQRA1aRtWLaiLBaQtQCMrY6YrvjdahddLSjfwB3P+TemVIgnKcdbDqL2magLK6JYeZo2GXWkH9WEZbNmFC4xqhY1yQb8nBVbSYFQWAUnqqX7w2He5/CUX0HG6G7QLPTRFCrPQWAOA8NDcYEBeNgfGE1kY0TsjJGfM+w++SXm0D8MTFDWwjTY+ozFqT4FJd48Q96BoB8GbTmO/8CcfNtrx44ZABJC+h8wzNIKNS4ZyCYWdAjKM5wDBCOY3Em2yKDRfULQDF8Bs2I1OMIr7AMHWr+wmNQm4cxzRCyigamA9W0ZqlS4jXBoDghtMNc+3J0BjYEhZOKce8aGWgAiNDBSFCE9Z19gvftNDp1b7pA/toQ+WoJztc9T1U08n4EjiZPEd1Qojl49gJOu+9QAaQsEXoMFIjyY+Rsncb6jDCN3FLBSka4IDLifQrAZSBYiRGxvAgLI9Arc+We5mSs2FSz1yKN0dFhrRCYdT/0TN/RpYEQbiHykjDVieCioHmo97BOgdvFcdsxW5bDc+1ICNtdY7PJ1besjOeOqb1o6KyWq/l28z1wqABqmuGQMHKGZ6ycjhCNCuG5xgpckmyIVQYAnSDcgyAzvOljNKUJmRq5qj7aVVAihWHy5a3eoV9sQuEF3Q9wKLCJb0srtZoYZVtKXBM5Qrh0o9Js0MeZiw2qi2+swBJuUJpZrX00tJWVldhXYh0fWS4GX5vyl2EhnN3C/+Z78y488tABFLIMMKlzStf1TTRUZiHMg705WldOPcOMqMURcdBjQiz0lU2IUNRPlRMQb9EqNa0K8IwwAwwxOpqwWqHKw7jgjpSEAUB6vCzfkiMj5fjHGukFhxfWbmWlbqjzcD4Ed/PqC+OlAZEWaZxs7L8ERWS5TdifwnQI8jpn5xTputPi0AGkWg0zwtaj5ZisVChQRpxQRAHCwqotKA1UIjebAn1c1jXZxLtOBKKDKNA0RnZgRYXB8pgEtEhPtDrjeM1J48n6sKfQ0GBthHYY6uqDARGuSS7ZCiYEtS5NA6ruBJdhWYxiDwUsLAO4Y4TvyxEbZGCaAPIlJZqztOsh6GUA0LSUHHJKjhxUIMsYaIZTC5aBExRq0CHqcJFB7kKFpDjKOAGgKPFK8xHCe0Q19mFFE+QpjYQ16c4V1TdyC3jinddyHR533BIVspBGAO7Ifpy1UD5ypRtZCWpVU1qv0rkKqJTBsg6gggJtnn+mMWRK2QDuTuGG6/XgXf7boQLIAciZyS6aazEF+AhlfAl2d9AIb+1QbLO0oioUZGEJVqPB0SIKaFoVqjqBzIBHXQoqAfsqyDpVDpJ65WhbNU7ZjkFphLcOoD4UHIIlPgsLwy+WVOc9F79XcQ/VPu5BlYeNUkuoxOJthGJJPNKE7I2KYLecimddtL9ElGJL+ZSj5jrY9WfIoQKoIf/MZlwTrtqTAZAcFpajEYUvzIRB8rpkI70FbUSEYcAxJsQqjy9ADbATKYKHOm5QGQDqcpxGwxzrcbVJVXtkmA4a1cD0HKhINsAEMCF4DFkmBGFyybL+fbAxiph3oERaFLFkjzEeVkuWoTnGtcEl1Gy5hHJREoYLRa9NbdrX78G7/NdDBpDz11uofGspbFT2sCoTcprDinIGXllGp2qnC4Wwfg/+qe0N5JHIe9c3DtshUbCDQ3YBM4AsrNRwaMlfszNQx7uAskQTG5NsOLZ62VSTCiBgze6Q0dphYV8dFBTAi2tL7YpIle4T5mGgPQ5X1yOLbU57ph1x3beXAUC6Awz/09qMW4LKGTnsqoKdaQ8yOVAfVaYwTOqyi6KUVC0b4S/LQpC2AAvMEN9XgUO2bxk7DTrKSlT40GWRmUKNXKXPaoiKPiBsQ2E8WJBaHMdnyEkFrNLY6kwhGznLHLSMcJEcM0GBNXuCYG35vLA+B/Dn24164JB7ySEUQIAHQdg6hgQrh0A7QR0vVcTJbx9RnFxVvWYwjUY0JiijbEtm2nEAqDEFFFbtQFszeTSDepQIw2M0qjBGAgApkxQstKwof9eGpAII7qeslcnqWPyuE+GxpBEhUxmEpoW8JGx2wnkWnmq2uQZ2pABSdrFsXRgSUcUZ6QiUL3CsIvQgezDgGAw1KFoWJidEw8obfdTqDlTI+tKoVsHCiDuEalGUAQBFST0ANMYnok1HB+0CGasdiysQMFZDmSBFVzRwjtfp2uXcBeStBYuC4s4QbDlgjiqwUjRYoB79MfFGCFpzDf5G6OH3Q6VAzt8QgMMZOZWH9J7DhmpYmVU7VNcrLcBSFYDlyjwQFDQsQjtwa1iOt2En2H8Ica0xBRhtOIaiRQVYrdkAsYunP8Oa7efa9TRibdWpJVuWJOvEmp1beJxY6gma3gQ5qksOWbA/6RX3GmFaGJHBoR1oLgXdGEGHBqCXEn/ZAi5NYpj1hA8Rai3ASSFphGHCKaAGo6WTUY4376IFWVCKwcxhM7GaDxSoJta5XiStee3htM3nygwOoglVuyvSoEty8MMKbfm7C+yPolViF8AgZA8oPTwkK2PSxVOGZlhSNa1D0XNTgFx606r3xegF2BvqfFTtuHEH3u1HHBqA7Ni2/3dmMuwo9mKRrldORQJhxgIq5eRi2oLlVKQdVzpVyQ2rsQhX+LUy2InFD4wryrBmd5bvofTLI2RzIC8BEO03siOW5QlNzcCytHmWGoiuC6YdCVZEAyqdrlCpCf6vIU89xlUy2CSUlfJ7HdifLpEC1lkQ2loMBR8C/BxAN5wfhwogbThRFTVCMxjFGgNijdGQqh2ry6cjPVm5I3PpJjSjLu73ChlmaKgpQBgAhIoBzXJjdRrBtkBm6RuYRjBYZKsSV+TSmF1U9T7Rh6AK6oIWV5EmVGBMBKBuOSaEBZy2Hap+wLhCWxvLIo1uVHi3spnefUJmY7+5YnMedrQAau7uNJ4CiBIrWUm2RHGMks6UWsG6rPZTAKAOro0e62jkOD2HqNeaD43rmdQaBXGQwv4ZdakaAAAgAElEQVREe4bWpN9M7mdhTjU246kLBHBtRBaQqgsE5JzCCZVV8JtCvhURjLkZrdRuHCA/aRrooel1zanHOGkVkAwrpg5ZjFBQIMA5DyS7EwA0bUPgiFEv8T/VCLxds0ZNy8GYhxvCMNcOADJGutYBimbFai1QEhIGLbwAmDQCGluUq5ITON/Hut0xtRlhWm0qHK6uidEzrvk8CyZijMSqrBAvjEp8bTWZHCOu38GRugiLK6BAxNri6iDfHqrjNQWW5YMjwdB7zrdr9sChsrCm86cUyMGIj2pexuYcQ3iFYsCKXJlwTLnfGptQvuySUAjLUINtNLEt5JEqqFDjmtAc4O+ruCH6yEquFTaicLjyst71Lppdt2/lw4vU7iRCEZ+Y/pGOyyigxWULpBhBiaKeohGKGCxd5KU2zARWa0GqhF2qorBnpio/367bA4cMoF1ChF9lC9M6PTWOzBI3QhjwYBslclCtodGiCi7/ZBFNHK4TYn9kaLEZXw216BFjnZuoiIA9EICyHILnfeXGQhMXNLj0DGfp29JkqbHR6rAsUodPrebcDI1NGcrqZR0D3nTkInuVACiKLtRT0F63C+/uHw8NQIGVePFP0PjFuxluTH2eMer0xWNL6eKSajWiNoH0amMVg1x2T3LIQlpDEVp6AcfpBpagynpAWrWJk87W0cJOpC2EcUu/uFb0uMTwSK7XmFSfkjToDDtQfvEZ1Ho8/kQDNLHZpko/hE/tQWQkAthQ3VXaepvUU8MskCMb1RSeMj9tMqLcTKLYw9SxenfD5NpPf2gA8pYtgOLTLIDwoGcIyzWZqWMMfNqDzHe3AHgHjahPzFCBa2MR29ACa53mQ1gLrE9PvRQIBJBsSKZrFyDxvaJsTKnxj+uWCMQjCnpmuDm6xAxNiDJ0CXJzwGrA1yNXfukYNiMonKvbTyj6aaXYAo1QZ6v58Rlp15MhwflUDGk989fuwrv7l0MFUAuhHQDtkCWLIiyllUVy1w320oeFFmaAWI+oROtLKzC5YErqIMPwqlHlGzbWxAZlq8RWI7eYLm2qc0X5O0vkKc+4xJQJjLmWZdhRBoCi4gfaXRd/WM8ANPaKxxIBvgEuhNHloig/jHRNilCz4C9X2kHIVJq7uxGz6+kPGUDeTdRMtxZA8ZUZX5wCMDhIjfTAIpxR4k612yB6TxM0ZY5roUIOoppY7WrL8kHYT42cZPUyy/4aEmLxqXiY8LOZgdHIOCVUqHAde+hNtETjpUH6UBoBUaGJldqaELxdV2xCnljZw72CLSnWoZ8BkKfPt6t74GUA0F5drmREWrP2ICiQ6+2Sbkq+GLIHuWEZboeO6TZoXoPJmXRx62ny19HEXOe0QRbHN/n2GZpXn9DXBew5CugFlKm7goanMI2GVrhOKsJwE6LagNnQ2SUyYnMroRlaK4C6KPqnYIsQoAFrjY2JbhxHlsZUEwttfoYGxfcD3trLfwORuiMCkASGQHlkmKXV06xsQGgHcswAtX2IF94A+Q4+MfPURwzuNrJImaHimwTvZmQjac3dKLaJBoUvrCOAlHMMz4AqTcxeRA7KXQ5qGlfUSPGysQUIFY7bWNTOjFZWEoLNWfm1ZpnOCb64imjICSWAdwAkS6VFwUYPAzx7YfHA73PwyDwyAMVgYom2qvyCdh+ezZUNxwZ6mSmhkC0bs9zLEDkGh2u4JTwQbanA9+XymNb7MR/eqMYxLM4ERd35qvdW7NDTL0AiPANrdEa2awTZr1E3CKCFgO3v5tWjyluaGGRzPPutFGL9RK/VMDzepzLRgQ7udGAjr3/21Q747PsM0nZ28yHcRbOvaZPbY3ZOmxEp9gLtLe47QgDxvMghEVKKc5UVLHBJ4AfDr4Wji2ocyDeo8otoX+uDC6m3Rc58ZJxKAaj+WhiFiOXZ+B+0L4uybJnWQ/XVDiaCjH2yMDNVh54LpSF7EUEbe09xP6VhHkrbZGwIyhr5qkLtLyoD++8DoKQZmRFC2bxM7c6FYOJfU3pqhwI5OPvddq7RACdcLy5CHE5g2WcL3lkQCZTpja/a7X7jmNrX7gYeLHhswZECyNvXBJlVOfIML4PKYiFeBj5jmYMwGMKgFnAxFLGcgZoYHRw+BsI+MizahmHw1bUHhzhCKzq/Qz1Gw1e7ANEc+jJqDkm9GAxrxJDkmC1AvTAhGNAf1AsAWVihi8OV6onhF6uGrFN2Ca8+99WG0GiB00HZPTb7AVKAQHLriyExfGXnezPoDYBbEDcga0wMPhPHNHX5aKeJBFBPWH68jP8Oyja7tajbT6Obc7XMHcFmp4hdqqVCZUaAp1SucebgWpgQnuHaXgU2nZJ6QZVrgmGl7ljNQ9XeFFOE8JyBNie1UcihNlTnMEaog3ZmLn5RIsNwTV0kphGZgdoW0yy0NwHQbMtCU00h84zKaFaVhYwFaxvAOvOtJ9N69ga+u7aHnrvD2Frw8Ghe3j/xwYFuKJDKQ0sFG7lMEE1TnrCFBbilppQybuoc0U+uV5KgplB3+yr6PEQAr7lzE29029sRAajpmjBLE0jfrIexwJIHOFT1jm9j+zlxfxP/vCUVMcYHnxUDmhbNmhA0QIdza+QWPeuF66GS1qNRsUaOGRNcNqgJ6XBlHrJYIwlxwdkIxUGVLwjw70DBJhUykeGy2JAm3LtwmSpsVNtqYYk8s8nTabWk4INlZgI+dHxj0bztTr/miS1VC/AIEFlno3m6ZpG2LKu3hX1MsOD4lXoaEhPl+TLqXk9eTCNeQ54l796TlhfewJkPqvMGhb8CynYSX7M1N/XDkQHI1rXFxC3AmZ1H/iAjos+DR7HN/JGwKhspmBPyURO6GjWdF6RCsDsGMyfIPuJ7ztgZGAtxZ9QGoGGlLlHzN6FcPfLJEIKgTsQbsf5qW7IlPPqUAB5TMLrE4l0blAa7W0J4X4SCjarnyNU3LITSd/U5IEvwGlSoAZEjLZBuqo9v8SCvLXhk1/oAfYfyGQqjQG/uW4bbhvVFJsMLaYT1XhsZncZZxEGVRCGgtZonl609nor71oEOCZlByezz5vo+R0O59/cQRwaghgtDmJntXVT5LoWiEpmmsegKztOY5BgEaytsEGBmQalYrEV1O1KPMdhAgSiyGECcoEXlqOtWau0u3s+px1hv1U5i4GOmei4UiLmYGRFgcD/rsmbGV1uplQAzMzVyTAsK513ilkasrVESUlKRIavs1SBmysRmqNAUTjE8e2+zg9Qe0/RAe47syLqQV8CDbxDgDgjtrWHNC04MQnwrwnCJ1wX0F9I22btjIgoMRWgMpSwjAzVyfbUlJt5w0WPJQJm29Up4Svsse7f2VvYeMYAcYKzGXQRmF1Yh5HVIKGvflB7jM5BHKrM3YC+WbKnIHKVbAARqPsI39WIAwmkcsIAIe9EiIOoCvi4yzaLLSbnUZm05POQozg3wlZwngAgnKVk/zDjs0RahreET457Lrs9BkXIGqF5g5i8/yMA2ZYEbIybntmM/5Wh2eCNgN3aiOG6HPPmtAZ3HCOgGjNP3CHhD2LWoA7FJeRhEtYSzrAOx2Zeo2FaxzkdUI6FfyqjAZgEI46Og2E4QkGFR28hs4dlyzBUTs3xjmSuo00ITlSkVatrQyFW3ApRrHXuEAGoCXhFqcGlQ+BtqMkC4y41LRljuwY5g4JS2Q5CmhK++qXr7ubQKac5JV0aNgjrhu+o/gPuBdcW2n0yrLoOAIZLR55rG/yDvUHBhMkGTIpd+wfCMilgg1znoUugKVX5y6vH4no0YhDHaWX6aop4I18hRS2vraXH1VcQSPcJgKaiqHdGVTmC3ICxN8lKo3lA4vfcNvTH8raVNfjbAX5uSLIlEAupSWxFEQIzLM+w+k/obL1LCzwKiUD6AX0F5egCLB+c+BslNq5VMgRiUmD7LcmUjgOrEws4VCgamji75cQWsPy00YSmCxzYJ6QbkzWPs5++RAaiZld6+idPpE004Ise9Cwk2q7Qkb94CnBly0IRK8jo9azSyJYLHLKjQxLRaWIFlEKh8Vo6RZwzapxZ0BoiswWnyYk2Hlrg4KtOHmNkGOnrPrMKO1H2I9XnfCqWhfN6EfDFCPbLuA8RWd9LJk7BD8tCydA+D4Tv3Uuif5VJOZAavcfTKWk0FAl0mJlIEy5oAVuRXK1JmqXDVWD6mJFZptHUGswMWdljMCLZUA5xlFiAuefZYzghAWi97QXvU1CbUyCztcAOE1mYkON30CcHua16mIdTel8X8Sv2IUahCgCESKEyryR5AyO6RAcjpqwruYFqCJWewery6UI8cN8QYAHVYJyPHajwqzsSKhRr7xiy+iweikWW5Qo4qXpyg8sY25YIjihDuhIbi8uLV4oOMBbHO5tzjtDXH1Xx83Siysm5OXDZFPvOTUg1CbTEkwrNMkmVT29NUQPhttJOtBc8OGZIqINyjrdUst0BONmPNQS5mh0G0HFIAAl9elb3IrsYhXOGbK81Jk6KyNEPRYb0OFQBap03KFYgESlSb5T7x+cqNr+AXMteYiriX/MtfwobEO+CdoJ0NZN+AtEucVQ9nde71ZN/UggyuGpNpf9sRAsiGO5jObADEwBVoV1Ymi7o88PwCe0yxYDmYJ8PVEMXELVKuLKMM5MAqyyw+nAawsoKqrhoCZXv9pQfSymnqMo5hPQCzYtmoPAEQey5kF90VCO4A2DQiZ6asMTeDNoRte9cDNcw1MzyMew6nLAOATVDxB4Mv8fkpgvHPspQ4QWzbUJ4RUKX9YwyYOoj5gWvARqBIWrhdIEZBNygNRlOpjYZLfox7tjJUrN4Yqjf7p3J4k5XbYFkNNWYMlCQYE5GeypSW9htS2n9oM/EHjizpRy7czjbFW6Bxet0rP97apyMDkO2ORwpyaqUwguK1y6CCUjUa4Q8hkb7NAYSsTM2jQksaM6PqroNCQL42HQL0i/6rSDV7MfVgcwvUH6rXH0ZuOZX6pxAkYW34S5B3Gu5vmrWSgOGrYQWnB41YdBBMlLUwlQH8BEZzFNZtZrE1GI2p7ofgboKjDSfgH7nq/AsfBm+fS6tQmD7aXDHgeVAASjW3AIss+QobqjWWOkGCijn4tsW2KUxHy9jNsASr8d1GeUNZJcf5My/b3RRC5zmiIwU8z8sksBSOz1lgoM2hvDnpVE0RQM/n/oFJLhIG2f1tRwogu6WZ1XSWjkwedntC8RXkgAXYQDGGKhjuQQ1FpnRaItS1s4zvq6stBM1LgRj5ZLH/StYGw+kBWyp6pO2gvo8g42TZ8x3w0aHhmqBbG8HWPvS7YDFWCNYXn53xoBZbymT8bBogyF8sO2kbG8wJtLFO7yHOI96IKzuwOdpeYQw1tYYyske6I+KShiQJoAhUmABQqQJEQcFCXnHYhU08eQxiw7BsjfemhYErwWN+ty9jo9jp9RomHOCx5oByTtSf1HLusTnBcvRhD7lQI+sSfdFZeAXRBw9C4dXXBC5sl1Fv2PK0HVz5drcjA5ANtvnNRpxz7740WHsVcdLMIzo2P8aKzzx4FzV75TSsDGF0cQnqgo2nJjnRk+0+O77IcVssvLrpcEvpCYbQdqazN7QUTvENsh/sgu50FcRcVjR6ClvQ05FHliPMZli8R6PnAfMWFM/CDqj2978ppVOwWJ2+sk5GuqCdC3j/x4CjwNRghkgdoLFVBrA1mlljuxKgbFq+KyhEUADgE1QAtsXnqOGIAE6OAZODPojxBS4WArWqPlEIJSx3ElQG04LVSgCMz18lc+VWiHMiusEVkGTbUKAawGcJTTUAp6zXCNgNY7wyAk3jbv3vkQIomhvkWQA9lNJ930GVjceYOSxX2ScwrMfDM6tWYFExE6eaUDbh8Q25iBnN+SE8KhMF06eLoQQYAAXJRJIt2yDOtdQbD0XrkBcWiPKF3WW88eV0+fkPsCjdE6lDqWC7uuoOkSbKtDICIAT6FxQlz46/HkrwYJxXI2mbDm0GiAJvDhCUTScIxbZHW0y0i/8B2KBAakj62nTFcLBx3oZjaixV9kLAl0pZXkZ3i6woNCfdK1TVz2w3FDfPKLLVYx20RV59ShiTY0d8Ci8t9Lo8lIWa+4/pX2mx1Muednq1rG//8Akp9Oi2mGBxe1hBdiKtLPXT8uLjaEd2sL/Q8cH07QA6Mzq93e8ccpMKyddhE9pLdKiiumrSnxAO65qs+ozGGAnLkuzV/HXIW4/RjV6PuzjQpjFbHpi4oA5qtkmLZnpIRfoUg3B5zrHxSBrllrT1GEcEdXHB4EWAyWK+I2UehDZljA5suEB4D8oS3n+BwBBCCYdEPo5pkyG94Z7Q8w9FNc1ovMzgApYCMHSU7WqqmExQLoybOk6qE3FTfbJHAixEc9a8WwNSJaTeASV9F/Ygbsj9OrJT2tpMLuUkARUM0961WfvajgxAUxhMG2/phEXmDh3BoNWa5mUFsCJnJL3JcQqfQdvjsTM6v1FHBQ8B+arSg6+n6sKXUdhexIpLKEaGfaVAZUbOGaKNuO5GRbzzktVZ0310skIxA4b/q4/Vu8MgFNiDmnvwEwOgYdMywKWUCq2qtyRlk5VA3Qi/rVhNaNKjMDCmh2aROqmM0FGb4i+TIVfgx0YlNdzi2AElbLo5ZfmgJB1Akms+sADpGucAkgLbU7e+F4s6hSQmmBHQUGtWZzR4LuQv7q/22nxuQGFHhqPdORd9pf/MSYAGGAK9lbSJseLqjcDuCFw51/NvZzsyALWNdaKESBLzgZfkW9DEd+UGbS38Y1QqOkQwSPa7NdbrSrItj+ANT/Rk+yNp++z7Izy2xA7ioEkRLFjewxc27uASGDzM1bTdMDABIBMVET6Z+dVmOyen81KWY2QirCjy9HFk9nQlYLdqJBwGnRQj8+2NpKyhZiVt140wsryw2htrxi4QdyTltPDwBINptnoPoSSnKaRl/huURjlFoyeqthUcG6oiZeE8snhrZSY5kn84IlMoj77RrTGdWLJz2R/RB9Y5UhnIoMYZRspJR6MoZZQ7sGBAC83k2lL5/W9HCyBnTDyDRFVqo4YAW9AAhu+q5lUx8ycM/ojZvw2b2dbVgaB4ovumtGIgGrafhueLvfMA58noYEu1VFHdzDLnSAFMz9EEkBDnrIU4JOrYQkhpWrETujr9qW0Xx8ieKlhkxE5zTdZD5LoWtWL5hh71q1X9LeNHfn/dIRogO02DoBRol/UyNija2gVUq8h1Rgv0XCc2ZBaBonDuUHhd+wTqInuTdfNeMWEc9CbJ0SUgXJ5TMwN+M+xMGXFPslzBPsZoOKKfKvqsoFhpThzVEA0uX34krQPcDHmusRq1z7i/96MD0JTcBoKc6bKZ+ixhqfittp/AffMk8rDWWzI1AJR58pdwNl7GDF0cw+5DxOJy7xV0Ht3BQKnCkoYIm1JMdE0wc8GgCgx8zsxdqnFdDHsE7WNjorpr1pfFaEfieIXOsO9AQax4r9Ad7Yo/XFdbC58j5tjZ6xAjl8B0x/lDyCiPY2civgg5rIMRs+g9AuV5BYcTFYmW1EV7VHujdAT/kE8CJu3L77ISqZ/URFWxuZesXEWgcW1g6QY0mhwmGC3HrLJoLewEq26KbGGpBzTblCkeI8c5gbquQ0u5P+shdbqAv/42zrmXlyz8IOjPEQvR9E7TbzyMg0dIfTpPSEd19jPp2IXPIYxiNAQAnR7aEHy8i/ApJRlj7U19fFjMrGBvDrAzGPdFRqp0ThHNPnHMGbagEmAoMKudxDqpODFLlkPoIIuoBam9ZbCSjELkE5fmLAh/iPBXAKZwC6VQRa4mJ8lUhZ2MgYDqsdTGQc8fY9EWrtUnCkCNjKyQxBJVKexFjaxifccGJIK2eWgHsAESe4JjQ4HJgyNEEhiZD9f47gRFIj07HzGhyI+rmUwmCYxYJp2FQMEzFBpK4/IMDfsilQn5MfQ8fGJ66gU6BbkB1tPYiXDvAKIGwNGYfW1HR4Fmm81DZgyIlmhV+DGaT47FuU9IQ8w+tSSBRMdgpmNVH/07sDdZEZGIOkstxmAIbE8ZgxJ3ixM6EIFYp8FEmcVVeUgeHFu1Y/tscqUnl5AWWNqgJquPUMvhFB1OiASsoAtYWBgcQyb1pfPjaG/3Q1keZR+x1FCzypRq/hXp/rSMGl0RzN8I0WABYDagloip8YgQqYs1jmRTvhrtMbOCv8tc4cKp0BonFIMYUxxrBGhGREIaLFZMXuB5nuDd+B5lIGobtQSE6+c9qZbyGtMojJHes1HZrf7fx4g4jqJdZ7CtUfUtwV7jiP1vRwegtv1Sbh5GAbEARMsIpUPSk3ONbCGT2DlNBznjw6YGm8k6zMxOU4zBo7xcVnLekAwPyLqzT7U+B3RacbfxUwwpbj4wuhFhPDgGwG3YFisBQYG2j78uLWawJP7lOmER1HNsLX1CP/r43Cpkm4rQE+Icg+65yTAN9ZDRFdFOmxwSbyM3hcqu7KTFGwDhbnHBuzp3fVZlNsrXKLtZ0k8lIRQAFAKMmhXgMeYnYqAAdqGgrCF0OvjRAtmqN43+bEAk51WNj3/2Y7x7yLQ/PfSAtqMDUDy0D8+TBc+XihC5a8aE3vMITZg+pQ/vIfHVQgz4qHQdZGfoXMM1fQw7SXZzks5/nkGGhaGBKdMMkIs2YS1jjIiyq8Kge9kX1y8Za6Jm0qR/L+lk35aWsQHhHCEgHwBN1PJwsaAhIejQRJmG2pQWXagAbZHWeKFYfchwEtmfCgGgydD2KjJqh7DiimzXHPbTI6KgZyV9wY+XflI+D5gUirkyFLEjFYHq9s2Bi5dyEE8tS+V+0V/t1nTIle/+SkcFBYo+8wxailHS7Ur9a1u/x8lXXenmvhwhgCThCojOKDh2yBzIFxEsxlqmAsiHjMnVdpoCM2IlboPh+AVcTc8w4I/wq1oMh6KqTlYfSkNSg/TMd/CAu9b80FJ6CLL9lfuwcD8IO3oV1Aq5QArEfUecX2X3Q31YFTHuhfbjGhuo4xrowivOXn8hf4N/hrjaPimRmh7qtDUZAUtEP9aEbxDYXldk2o7O4hIhrCM3bWg7rVBtpMBn5rIK1gLoEKMURlAvHsZA+sHJokrOuxrYlTLJVw+7xzUnRjfF1vZU9NqU+kjNjREaW9nfWCV9JO0DTc+73bcjBVBoGPHUjeVZVlBpmeUVBab22mIwkTYKgqUKBi1Yg4NoGOc9JCS+NRUnUVUpjtC15iIhDnr6l0le7KBCF6rf5T0MYOPOCPtKaCXSk0Z2aLgC94nfsKtMnaKyAAGkSa6kjc2gSW0AzOgzaXT+s8gpz3Nv4pXJKQvLNK+eGiEpRQUUReqSEZuja0P5Lmw6jrqDLD0TsIKGnRG60bYqBjxQtlev7ACnOSyY1hRAArL57IklACoE0A7S9oekIwRQ2w8+gN3lv0aozdByKtiGAnBj8GJwtduEAMRn11/FMx/hCpzTEHYfBd8QVKi/fj9nMtBGOLrQneGvXKntKtXYoB46WQlk9wrOfOFL/VY+IV85+AR8YV0EEGhEyC5jY3c8roOchU/MekNOAiMOBwi5Fy9/LC1Vz6ZFrN0553WxHLsyYvi2WCkxBGoAo0sjjKVhvlBWomVoodJkJ4f3aE0H0TNTecYHsJeaLVA3pVL0YEws5DEmo6KAwrOG0lrqjOO1KLBXIexbKjnO2/k7vdzOddvvN/d+hABy2KUyDX+2uQ3H5sHJtKjwxuuEEEBdFtvto50V1JHuAJ5FHIhLvQexCr8SGNAxwXJwO9BhPesvos2p6UCSuAXxP9xixGx3MPrhdKXD8V/JHrTqWP7FAg09qRkAqAnlqBFmjearBhgmc9RowFRTuKrKMQquv4VFfDXIKXNp4BMQDAm2lxy2qa0mR/7R6277DXQPO5IUhFclqGwDv8bzS/ICJFMbEaTPXS6/EMfZRcoxUqYgi43tSIpVEroywTZWaTJAiehh2e4g7BcI+1mG0K/jFXbcc7LZdmK+GxdI0wJ73ZZc2VqAzuy6zscjBJANbVhX8xC2UgjRJDSi3ulviUjDnFneK9YIyYT9wIJqtLQax2te0kGo2s7cyDjViKcfC0dmIAZAuE8LbVT5AI6hdms0JDxWKlAh89Rkdhj+4aJ4OVrRaPQ5vPMfJzME2wrBbdXoaWxPZwJAHcTrsv8YtiZYYIS8em27n2tice6T559vM8gI+R0zQgRWBJCJD9t0ZbCCIirIuz/Gr6UtDUAakEgZp5XU7CuocoFfrIOyUOhUBaCxbCeZJLWTBtdON1FzqcDOA1AyFArDOSKuKLaGzu9EVorn6f7pAbf8doQACv3gqgY3hNUBIJC9+x1p7ZTaTRMwZSdUsoww78OgcEs4Nb1CuDIATRjrZAcCB60nUWi8wjCn2T9HLhnhy9rC9G/l1toQ2vzNXP1VnKVjsvEpaXu5OPoy5fU2oFYIvqrhUdiKLQgFLhJLzehGAEDNbMb+pEsDylhtYnNCgK/MSWsHKB5T9uXzsE0fu2FTSlRSF3bK2oIiSSUBRHjeuR4saRugdAhxWercD4V5AJDQR1CcYM8R9gEFIhPF42fDOprgN65t222DNw9ZKloU7+1b8+XW/h4hgPZquRBy5RwyUrECNx5nH1T25MO2LgWOU3OxV+ySoPHswztO4edIyBtiuZ0Mn6WvLHF3CbV/Cw89rEWbixmnC6dxckLui4c5Vy2umaWmDU+yC7hV0PLQkHLDSFXPDZb3jhj+yih8bkU0AURYBl7u3FnfIZ8MilZjzZ5g4FTGuUruVZhtnyPYdzPwRhQ60AWht4W+MwLEMlhPgccerQAiBVu2ikmXdWOhMDmmi8yQDtw3EZYSbE0QtlRuCoxosH+a77FiQGyCaLp35tDpj7f0dsQAmmlrPIgAQqSNjNJGYZYNaECD9/CbEYQCp3FsVhYYV2MDcJoAaopjVgz+aPwVBNoPp+HFT2OFfR5BGsMd4a/qWjn2lwFugiFOx25BlCFgYmXixyQAABmKSURBVOEOrsEMRvAsYBNdBPVYW5zrBSvUrhLOTXHk2h6UfalexDmqY9W2WryAekVQBSMEBwBlgvulme+aKAAILyeHLhDlFdONOjg2e4SdmjKdAZQ+VKxLUmMi0bKJJFTOEtxOJimLQJtS2pCXHL4p9RIRsbUg4aO7eLW42QGzD7JDHqen3ebbnQOg6QMIIS22yhhEzvAehVv4exmqgJ8KFtSDmoxj1WacpF0oSP4ox+GwJG6oqatj/tcGgiMugOwpZq1GPEImdLpanR7Ny5jljlkSXDss3uHWwPmZIaTrG8PS3ZViABRjmyOLg+96+LfIRy+Rj9Yi49NRUljGAAoQjTiUpZQursf+AnAbspGTh2YiZNlHLkGL08/WxUWyRGShrpEofBXsqIkwaP1oYSQNM4dD1YKkkbzYweZn90+pT1C4l27NXv7u/fNLT7jJPXcWgGJiKAVASQBMls5g4icnDAPdNgO5idW2YPYvUGljsoXGhAzQWXw9CRp0sEH5FTPVMjEMXEcBFbXbih/9kFnUfJj9hnrwuQBIOYDMrcCBMJ1FwQaoD+xhiWCzStApK4UhDyYaWpBqMgNGrHSFkE2qK+f4T6rgvaFAhN8W1mBcRb/TmElkYY/QDgVcHawVgEmYIKQ6OVQxLwkmM8abPQ6uxOGqzQF331UDL1iUlwSP21S2ufqg6W/TUzn/JZd+yXV3TrnpD3cWgKIvGJDI+SLlhvz08eVPpMnGk3T0C8xYKmYQZah630OILioCuYaUhSKeur/0WliYKTuuo2G8DQItFTPzietucFnCN8Z9bDk9Qh4AwhjVtlN9HQrzFQYe6qUAapZFRZAXQvy4/hrDAdNkkEP4hKI0sgqmALhox4wRQCNbCVEeEOT9V5PkiLaIAN/jfgrnwZ522A/XD1mrYUWxzKdV++UxyktXD/l1BtEjpyr/7nMOmMJcpxHx050FoJ2Hl2Qjc1ii5PKLLCD3NDMf6tOn7k0f+CDYdtDEEIugKHis8w3kFg16GuMEEFka+L26FovabiiHlF3jnVZlDZIuTFdt42IonkVAldqROmRguwWZ1HAQYMv8BJGFrqHBYElN8NOZfNjjmCJ7EAqHWq1xk7tGPBGqc4EMo/lu6oXifXZEG0NhSzlaAhBZqDtkpjl+9u+1B/HW0dJSoVs/c+9W3FkA2mnj9DH1DUEVGqutaraP3ZDv6HDYkfG++pmszNWY3ZzdUCdW7ymOUwUfs/3EJaWkB2RlROBZyTElyYYTXBKc36OweDPQkCrKzSQcq6l+JXIvsotrmgGJAqNhv4uQa6EptcQKGxJUMAsrsuyEtikz8U/aMGUce/f6dG9zdHvsQQ3pdW954D/ekQCa2l8ZBimRqq4akdoX4FG2cVNYQEsyaL5E8yqx82Q4RJtoO9gR5vuSBLsxLy3SfQ16AKmKNTdQl2FzHUrACJDGHsPldAcYJtt/CJsKVI4MClVnfWUaNJsQVNkWWpRB/dieLE0YzWnepnSk/bYXKBqZaXr4zJntVfY658rR+/10vZbdzrXvSAA1mgXDapBZlLHj0cKiy+OHzQdAKTPgOqDqEloath2DzHR9yG5gMxVa16A8jeb2ECBDo1MlR+23/JLW7B4Jit2FByPFp0kWbMyYVj/LeyQ19rTiToXjqcwiXWwkFUAQnLFhRg5KyxraQbiadV1/bwM/r/LygKdtzUG836EAkgYxJPjAXImwGhCvY+ZndLASsTJD45AMg6LraBAaYVio62FIhQqoUbegOKaVyLAeZ4TwNSEjyDGwoQ6ySoa/yPBTbS4RWOYQRniJgi6qdfi5pHx6zASTtiD9UR44NRmEJnTwAx+34HWnb3ccgBroNExMC2zdY/0KqpSNsdMY3qCgbGCrpZb0hmfYfzoKtWHHgWYEKUAzQzVfWXhLWuw8AoCQSyz5KwBQ0s2n13AXGbEAsvGCCwgpiSwSsMQINuBp6UsjszQDG87Oqcxz9VC3R93s0DeU5xsBLHs90R0HIBvZ6CQ0jQIKZfeBtN1nqW/sQR0FDiIDXVdVg11GUt4CXvk+GRAdEvEa6sHIcpixzl00pW4XgThGpxmoUH+NNYp4I9mhm2hpQOu3YGYBDo/RCuzmsXHh2DTkumeHpTV7mx93/k4P3rX36q+zx7RtuFUQXvcGh/rjHQggO3RKXfQ2p4ep+fNWxhtPMxpZ5mqGrsgDgDpaeRGGMyy6+oa07jbwa67RfLf/9h7IhuI0/euQTeken9rj/bRHF7UgilP9cuWM5mqzf/e+90uPu1qOCkJ6E9vNX/0mLnYbh+Bf2/Gw3cbpB3+Kg6ioK1spcFXkWJKr7pN822CYGqNcE8jlwE7tReGh57vSdgjRdGv7sol+3mObBZADNlXGPWEGQldObKDSfm+o1h6Xne66AsKrj7n2ec0vV9/l2tdvfrm1o290tVv/fY/pdesXObgzmmFsSqPAyCxoGMFTGPn0eEeYAy8MfgZGePRUd0KIbsi+Hucmgm+G7jQH3rCZzWBcAdvesNt9mesdtddve+2bvebev++9d+YZdzfrZfp+hwGoAYRQCPeABroIUTD9V7QYG4TQq72GHQ3xbCSmHZI/7emrfUrtrzPDsGtEmq+zf29mBDx+14Vu5rQ9ztlp/3XOv507XedyB/LTHcfCQpilN3cYK70mWBoJYUqhUOObXYArog+nXbuDmikQZllXjPXVQ+DVZgduD5hd1clxiV3dfq2B333crtOuum/7242udaNr7r7Hy/H9jqNADtFsR7Wd2jgb/Nt8Cqw0Di4+TLUp9/kDF2hANwUI33eLQXH6Hj28F0jaw3YP4Ow1Zn/bfdzu21zr3ruPu5Vr7j735fp+B1Kg6cjO9F470LHrKvLk9/ZA3gNAvqbq8HSX+5qjrlz0eoN/5ahdw3BVQ5rbze66mfNuBTzXvF70w0zbrnvgrmc44K93IAWaguCa/bOrt3a+zvbo1deY/eVan1uL0DXHYtfld4/DrY7nXpe75r133+wO+n5nAmg/HeQozI7EzucrO3cPdvvLSwZwr1He1bb2EM/dfd0bPcatHr9zvZto143ufVC//78FoJeA56UGvt0gaU+J/bcxMLuvd7MDs/u83d9fcp3rte22kfiSu9zyjm88AEVP37C7d4Tmvfr9xmffcj/e1gmH0g4f+FAuvPcjtqx/71+/Ufe+jB24u4sO4tb7usa+Tt79NDf+/o1HgW70TLs6cHd/7kWRbnTJq37ffcHpj7O79zxkZqcf92rHDa9xo4bueeMbnbS/378xAXSLHbX78L0GL7px94E36Nv28PZ61zx95ofZY/Zqx81c4wbNell//n+Thb2sXXh33+yuB5Az/pqz/iaxcadcY7a5+gldd+Owt29MFraPXtkNlt3fb/XSt3v+7vN2f7/Vduw+XvAIIhfYO8ztrgOQnXnQg3W7A3QY7WgpT1Mn8TDucPXT3jaA2ji0CN7aY7vR73ucMt91nR5ogbHNUppDViB0aYalRap2sEym1MZ9Fy9eTM8//3x64okn0hZry776Na9O3/zN33ydq+7/p1sGkI3d2NhIZ86w0jAksgVK25QWUJLOLmtpLS8vp7U10mhci8L6fM2qt/tv+V12Bfv52WefTf/5n/8ZAHn44YfT2777bemhhx8K4Hz0ox9NH/zgB9MnP/nJ9IlPfIJCWaP0K7/yK3cGgGapiQ371Kc+lf7+7/8+XbhwIV26RMnaqT7qbBA0Hi9QjlHN+6GHHkqvec1r0ute97p0+jRFBgDWtajWXYaJW3pcJ9/HP/7x9Fu/9Vvpq1/9avqmb/qm6Mv3nH5PTOiPfOQjMSaf+9zn0rlz59J99933skzWm6JAbe3hWYrj56997Wvpv/7rv2IGLJCH/qpXvSpeguzs2bNBpToUmnS2fO/3fm/6sR/7sfT611NNY06Fbgk87cH26Ze+9KWYtE8//XR68skn09bWVlD4d77znUHl//iP/zj6fjdnuK0b3sRJNwUgr9NSjX6/n77lW74lPfroo+mf//mfg5yKeqnNj/zIj6Sf/dmfjdt+5StfSX/5l38Zs8IZ8+UvfzmA9au/+qvpnntI6kN2agE5qzHMssBrtX+WIrbHeI2WRe5F4TwnXKszIlvsm7Zj9hmvd1/v4Tl7aTcvvvhisBDrMb/xjW9MDz5IJVfusXvbq33tMR7vPdxmJ5oT8dWvfnV6xzvekT7zmc8EBXrta18bE3dpaSm95S1vYQXpQfq7v/u7uGfbp7vvfdDfbxpA7Y3tOOUagSRL8sEia5ROPX78eHr8lY+nBRZ0k22tr6+np556Kv3rv/5rAE3Afed3fmd617vetdM5Pqjn+y778/rtwHrPtrNnB6LtnHYgfW+v4+drUTjDzFr/fHu93e83M7h7gcdn+O///u/0m7/5mzGov/Ebv3EVgNrrzsYHtAO9m623IJ1tm5/f/OY3p1//9V8PkNq/3/7t3x5j0faD/TULntk+O2jgtNe7ZQBdryFtg+2kHkWWHnnkkfSGN7whfehDH0pqD5JdqdX3fd/3BQDtKPdLhu3EtVUyL3h3Jl2+dJniBh1WwqH6KQUmW8pRkt8+YHntrW0XxLVQd0MNBJ8kvB2o3YNipfYR1eG9tu101gq09v5e12t4v0WXGWezfVJNNRw/e7ztdtLMbv7WCrhSB59ZQLXbbL8Yfet3r+lze/32d+9vuwRggBTiJejbCWO7pP6KAT6n7SipP20/7b6X1/yGA1B0OgHvPrB1DldXV2MWOkscODtL/q3QZwc/99xzwerk5ffee296+9vfHiBwJqtJnDp1Kr3j7e9Ir3/D66Oz7PRnn3k2QPilLzeyQAsiqd9jjz0WZP3++1lBh3u6+bsy2gvPv5C+/sTXQ24TBN/2bd9GTaFu+vRnPh3XE0jeT1bgS7C88MILwX6lot7b5/EeAkSW7eYz+Rz/+I//mP7lX/6F+g0U5ONYKa5gcqAFhNe2Tdtb26FqK8v43JcvXw4g+fL6sqk3velNMfmchG4CQYXlmWeeif7yJZje+Y53xvEBaMG2B7uMCxzidqAUqH1YQVREUWySBOnQlr04KH7/4he/GFTpf/7nf6IjFbYlx3aKcsQf/uEfhlpq50gRXvu610YHq/39zd/8TairCooOor8LEL+fPHkyhMkf/dEfTd/6rd8ag+fgvu9970sf+K8PBFjsfAfzXT/8rgDNh/77Q+kLX/hC2tzcjP3f9V3flX74h384QKbW4z2lnALFeyl7/MzP/Ewc4/MIAtv0p3/6pwF6Aevxf/ZnfxYTQaqiYvHe97w3PfrYo8F+PN7nty/UUr23MqLPrvb0gz/4gyFLyrKk5gL5b//2b0OFt798Pf744+mVj70yve71rwsqNY0CP0So7H3pAweQpNeOFTzOLjtT6uNgSp6lFILBjv/0pz+dPvvZz8bMdHb91V/9Vcza//3f/40Bc4B9t6MdyN/93d+NjnSzk3/8x388KJyzXe1DGUuASOUEg7+dP38+BufDH/lw3M972x4HcP3Yesx6B9FjHCiv4Wf3tWzLY77+9a/Hy3bbXqmEg+3gSx28rse7+axSWPdJHeI5YJ+C+a//+q/T7//+78e93vve96Zf+7VfC9Cphv/RH/1RgFZ2qGalnCOQW63LZ7NvvO4rXvEK1r1oJue1ZL69h/xg9x44gFoZxEGSXcge/GxH+NBvefNb0hve+IZgWc5OZ79gs0OlIPJ3B8/zBJyzXgolcJy5DtZ3f/d3p5/8yZ/coRSyFO/r/T72sY/FsXb+z/3cz4UJQe1QMAs02yIg3v6OtwelkmUKrN/7vd9L73//+4OaOWDO/h/4gR8IsMjG/vzP/zyu6/2lNALddkoJpEg+g5PA8x9FQ/2lX/ql0JjcLwvznl7HNghqJ5p9ICt1ghxbPxZ9IXhlcR/76MeCIsmOH3jggfSLv/iLobQ44XwWryvwBKr96Oa+l5uN7RtAbaNDuGVw7HwfXAD8xV/8RQyO2ytf+crQvt76zW8NVmUHqs47a305myXb7373u2OG/du//VvMRAdIki35dvAccFmCarLX8Fyv53dlFylVq/EJANmgwHWwWo1R1vcd3/Ed6Tt5qWTbNgdfAHk9f3/b296Wvg9h3wFS7pESOnheX3bp8V5PgNt2B9e22aaF/kI6fep0yDFurdBtG2R9Xt/rOhHc7LuM1Gyv1ZuC4RJrirUsTQA6EbzHLEBaReEogBMNZ9s3gLyIs19SLhn+gz/4g6AYdrSz1M5zMN7znvekn/qpn7pK+PTBW7J/4sSJGCipkGzu5/7vz0UDL2xcSH/yJ38SrEnhtB0wZ2YHVuliat7fQZFlOYiyDGey8oYAksS3JgKv6fcYVM4zl14q4+B4jAPr9XzZPo+1PQ6gbNFBc8Cd/e3mM1wl62GRVzPyHkGRp9qUE0Zq9dM//dMx2ewzJ5oUR+rz+c9/Pm0yebxWq6UFwtnavvK3FjDXozbtM+w08pA+7BtALcuyQ+0AyasD4aD80A/9UMxuBVPVT8n0zW5t52xe3gxKJGVzn9RG+5Issb2313RgZXn+3g6OQG43B7OdsVd17hQss7+112tB5LvP5D3dZu/bXl9ht92uNbDul8W15owvfP4L6ew5VqoGNC2IbPte97jeNXduzAefY/ezzP5+0J/3DaB2NsjjJflSmtY66oyVbDvgMRjYYtrOj0Gc6fRrPZganfdoO8aBbGe21/OfVMLfHWB/99pSBdmOW0sh2ra27/42+7k9tt3ftsljvKb32RM8UpkZC/fsdeN4f4OSyJL+/d//PVR+J5vXfeMb3pje9E1vignmpFPQ1syxcw2fkONm27K7zVf16XRC7NXOnYsc4Id9A6hti4On4CrVEUA+5Eu0A2xjVz3YtNMDTNOX1/Nzq5Z6XdmWoPGaLWmfjKk4z4C6tR3cam5+tw0Ct93aY3yfZTmyBLcWHO3geMzsZ1nbbvbRsl/fZ49v7xWsazr4UhZNE7/zO7+TPvzhD4dg/Au/8AvpJ37iJ2KS6QBVrmrlqHZS2BctRbGd7efZd/e/XIBp+7N9P/BwtfaBXwKeW3zIFlCCR21HCuc+QaIQ6yzVWGlHOkiygXb2OpgOkNpZK5u0D9x2dAuO9r29387gc8LsMS1IZt93focStgDyPi2wpDwCT/au5qWMqO1LNq+A/e53vTtkNFV2KWcLYt/b735u2a/P6vd2X7t/97PEM1whWrvH/EC/7xtA+0H+7GBd66mUaQSCJF4wORgaIj/16U8FNXJznyqygqiblOetb31res2rXxPf205v2aAd387w9rf2ewuk2f2zA7Z7f3xXaJ7KWD6TwrHyl1RHwNtOPwt6P3sPj3nm2Ubtd7/WbidAK5wLfMG3m7K131sge7+2zS95381XozcOdrtpFtai3NvbKRsXNkKt9iHtPN8VENt9Drz799rspDaWyIe2M7ymgrLXcPbJgtz8zdn6kz/xk9HBGtLU7pQjBIrakzYkvdBqXWpzho78nx/5P2mJlfzcpE5ed1YmckAdTEHlZ393sz0OnlTCQZaF+rvXcL/H2yZ/s7220+f0XTD5m6xIB7IyjYK9FEZNTnVfbdFn1zTx27/92wF62ZYAUi6yjfal8pLHaIJo1X6pmG22HWqaAs92OrFsn589N9qB7Hh583I8l23zHoexFf8f261cWCA52zXqaTdx0Ozglpq0na0AbcN3UyjBo51Gv9E//dM/hXru5kA5EJ7vZ9X5drNDTp0+FWCxo+xIB0mrsGBysHRveL52lp//+Z8Pzc/zpAS6Mv7hH/4hVGYHyHYJNNvoOYLS59FAKAC8vxPAgT9x/ET64pe+GEZEZZg21qbVNGWtgkMZxrbYNoFl+/wuKGyz9iyPa+OkBJHPrrnDCSAIfHmdlrL63trMlJucNFqqbaOAEJy21b73Ov5uG71G+xyCuO3P3WNxK+N+rWP3JhHXOnq6306ShdhRWo7dbJydKp/3XRbiQ7Rktb2kAJKSyIYcyO///u+P4/zsfjtcm4vn2THOeAfZwdbI6IwULA66qq8z19/1pWlI1DinXGGnCRbbqgvC6+kf814Oip3sfgdNIDqrdea6CTxnt0A3ktJ2qXprexLYtsmZrpFUM4VtevM3vTmsxe/7j/elp55+Kq7j4Pks9pE2KinpL//yL8c+n997PobtS7DrY/M+UlUBZR8KEMHnJBCM9t33fM/37DyD1EXjps8arhgcxo8++uhOGIn94gRXSLdPDgNAN11gapaF2fl2rh3QbnaqmwMkyQ1vMrNkd6PteGehneQA+7vX8fp2moPbkvrZe3pdNwdX4Hq+JNtZ6j5nt4M7q7G1rEg7ksfOXsP7tkZLn0fAuM/2eV8732tK9fzda8yeb1sEiKDyeTUpyDLOvHAmXbzEYni01+exPVK7ViOUwgoIr2n7vEfr1rEN9o37Pdd2SOH87PPKtmyfv/vMLeuUUvrbxY2LYdH2PI/xeQShBkxfh7HdNIC8uQ3bve0GyO7fb/a71959rZu9X3vctc7fvX/2Wfb6bbbNu9u1+/u1nm932/e6z+y19jr+Wvfa67zd17/Wuddq7+3uvy0A7W7s7d78RudFJ6hJ7DLS3ei86wHgVs6dH3vjHrglAN34cvMj7rYe2Lcd6G7rsPnzXt0DcwDNEbGvHpgDaF/dNz95DqA5BvbVA3MA7av75ifPATTHwL56YA6gfXXf/OQ5gOYY2FcPzAG0r+6bn/z/A5UgiAxQj8k/AAAAAElFTkSuQmCC;" parent="1" vertex="1">
          <mxGeometry x="260" y="262" width="78.55" height="96" as="geometry" />
        </mxCell>
        <mxCell id="5a-bvg9B6i0M9ogNFUY2-11" value="&lt;span style=&quot;font-size: 18px;&quot;&gt;&lt;b&gt;&amp;nbsp; &amp;nbsp; &amp;nbsp; Oracle DB&amp;nbsp;&lt;/b&gt;&lt;/span&gt;" style="rounded=1;whiteSpace=wrap;html=1;fillColor=#f8cecc;strokeColor=#b85450;align=left;" parent="1" vertex="1">
          <mxGeometry x="105" y="620" width="255" height="140" as="geometry" />
        </mxCell>
        <mxCell id="5a-bvg9B6i0M9ogNFUY2-12" value="&lt;font size=&quot;1&quot;&gt;&lt;b style=&quot;font-size: 18px;&quot;&gt;&amp;nbsp; &amp;nbsp; &amp;nbsp; &amp;nbsp;Service B&lt;/b&gt;&lt;/font&gt;" style="rounded=1;whiteSpace=wrap;html=1;fillColor=#f8cecc;strokeColor=#b85450;align=left;" parent="1" vertex="1">
          <mxGeometry x="105" y="430" width="255" height="140" as="geometry" />
        </mxCell>
        <mxCell id="5a-bvg9B6i0M9ogNFUY2-13" value="" style="shape=image;verticalLabelPosition=bottom;labelBackgroundColor=default;verticalAlign=top;aspect=fixed;imageAspect=0;image=data:image/png,iVBORw0KGgoAAAANSUhEUgAAAJAAAACwCAYAAADg6ueOAAAABHNCSVQICAgIfAhkiAAAIABJREFUeF7tvdeTJNlZ938ys0z7Hrt+V7taeQlJeBCS8BIvIREEEBDECxG4G4JrgttfBHf8BxBcEJgLTASBC7yVQBLIIu+l9buzY3pmurtcZv4+nycre2p6e2x3b4/eqZyprqqsNCfP+Z7HP8/JarZ0FFt7V97jY9Y0Yvq28/0omja/5833QOfmDz24I69CbOa3K3tqkZQ1MNoB08Hden6lA+6BIwGQz1AHOkpeYyAz5r3iVfC3B5w67Gv+5Qf8wPPLHWwPHBmAMgFTD1M1Opsmg3OpHA9T1llKxfI9KXVWIUL9IEwtbcqmVOlgH39+tf32wJEAKIhPXaZycDFtPfHZtPH1T6VyuJV6x+5Na6/+9rRw6rGUF91U13kASPDMimpzMO132A/u/CMBUENakHY2t9LmF76Qznz0/albT1L/1ENpeeXhVBx7BSyunrK5Kw87l4kObuAP6kpHBCCbn6U8z1N/Mk5LF15M/XIgUUr1+bOIRuNU9+pUghiFarmX4MkhR/kcRQc19gdynSMC0BQRvW7qri6mxXySiq0LqR4spGrzXEqjzVQtr6ZJypGUGjG64HE7UKVGtG6ffY6mA0HBPi5yhEoOg1/0Um91LS0sL6OElSmbDNJk48VUbwOmNOKxhuhj27wGAGeIzjbhVfLbVYaAfTz+/NT99sARUSCanUFT8n7qLh1L3fVTaev5p1KnnACgF1LaPJuy8r7UHZepGG3zuUxVZyFNltYA3RInS4/m253QA0cHoEaqSVlvOeVrp1PVW0o1VKgQPBefT/m5k6l68tlUPftMmmxvp+Ke+1L/TW9N6TjqfXCuOfu6ywE0BQEAyqBA2eIKlOccmhk2ofPPpcnC8bT9wQ+m+pOfSuPxOPXe8Lq09uBDKT923xw7dwJypm14WWSg1lmx22kR6tXCcipWT6aOlKhCurm0kQYXzsDh0MQml1J57umULj2bxr7GG6nOtVjPZaA7BUOHCKAGLgq8DrnOCl8TXorB4bpQJ++vIAfdl1bz42lxgGyzOU7DcxdSD519+eR66i5CcLqXUj0+k+rNC6Hiz7c7pwcOEUDSCcFTAZrmNZ6+u89/oaF3llNv5b60tng6LQ97CM34wzbRwEachXY2XOym8SJujuwSctGLKdveunN6b96SqZHlkDpCAKl4q5KrjnfTFvrTNtAZsR+A6InvQnVW8X0dX0eg7gKUItVbgzQ+eyF1FtDSTh1Pdb+XKnxlg7NnUtraBJlzFnZIQ3bLlz1kLQzDXzVM+fBi6mxdTNVgO5U5gFk7mWqF5gwSZAtW8MCfWE6TVd4HWHt0cZw/l9ZPnkjFiZMpbfRxuE7S1rkzafXyRspOQb1uQQnTj+ZLH9rcj3bLGLnuCYcIIFwV0J7O9sU0+fJn0uALn0/1OTSsleXUf+u3pO5jr0b+QXUXUAudNFnvpeEy7GuEn35rOw0uXkzHHn04pWPHoWH9lA+gQBfO8zqbFqsZAF0DSLOgsQdaZ+wcQNfFwy3/eHAAkqvsNZiynq9+MW39x7+lhcubqb73npTfczp1UMlTfwGKlKdsARAdW0zVOjaeja2UjxCUNy83D7MKa+sgSW9zna1L6dLG+bRYGwoyfda97jkFjKCpANscNLeMi5s+4WAANB3MRu/y3vqsGraRegSHLfJtuAE1upxGl5CCts6nDrFAOSr5iCOLLsLz+jFsPCdSehpheThK+eZFXBpYoVfWUmcRV8dlvg+RjbhGqtDlCnW7KzpA04SIZ4xNL9qEEJHti5gFLl9O5WSSlpG1Vk7dkzKAW3PENbA3vcL87WZ6YP8AcuQMLGQ0KgjJROCwI4+dwAMKE3YeBm+ycQmr8hCP+8UI5aiPqaXB6orFVK4+lIarj3DOM7gwNgDMC8hMHLe4kPKFbiqQX/pDXBobsMHh+VR0tEjzYhNKVZAk3a9Awx3DzTR44gvphU98JA2fezoVAKj/mtem9N3vxNP/YJw7B1F03762A1PjsQEGeEYAZ4LFp8L5iXcUIXkBj/uplB8/nbbzLmYcIPPixZRfuNg4UAVQBkVYvD+NiQUq9Y9lAG94Dmqzgb+1AwXqpw5AXABA4zPPIwdhXKwHPLhIabZKbQ+qVtcAs9oGu5dSdfbJVH3qA2nh4/+RTn7qv9La1z+JGeA5zuUYz71CMvfViXfzyfumQDEGUB7NewSoMiYT1HW851iREyxHDOXcJVtfSyPeFyEP+Saq+KXLaGiEcQDhgsjDrFhI/bV1VHrCWsc9gAQgOX8RAKXjx9KojyB9GfBhBxpunE3L92MrUhYKVlRxT240wUY0gMVtY8Uej9ISdqQTaytpawwrxDFbIYQXsLPmPCglVDNi+ufbbffAvgHknRs6UEdIvLE8w7NfS1tPfzFlsKrF5fV0HPbVve8UXvfF1AU8GfJNcVHrsrIMMlAFCLrdtHgcNre+giGxmyooTjnchjpVqVhbSzUsq6jHqcO+8qIWaSgccUR65rNqjOp/Lg2f/loqn3kqVWhwnWPH0sq9p1L/+Im0zT0qzAOjS5vEHQGmHdIjeuaS0G2jhxP3DSC7v4O444X6UJfJ5fNp4yMfSS/85/tTD01q8vgr0vHv/HZY2HrKV9WyngM8OE3PEXk4wMDYwzZTwcY6Amg9DXFfDM4UaeLYQk2qMcFlCL0TYqQ7sLb+COEbf1kaQUl6hHcIACjP5Lln0sZ/fiBtf+GzgGuQVl71mrRy7G0Bvi4yVMa9xkPii7aIvSZsBDRe0eT204N3+bn7BlCwMFHEhxy1uYOwuoSAvH72XFq4BCVYw4q8ifEP+0+OwbDIR6k3ABRnz4e2FVZlL9IpyMhYgnKspJoBr6UqqO3jAVoZAOour0HRoD4YIxNGxppr1mt48RG+shIgovovQfGKZwgFyYYE6KPRXR6kYmEx9WB/Kd9OE9q2tbHB/ZGfeorvcwq0X/zvX4gGPMpAviJoWaF3eSGt4qJYJ1B+AQdoeQm1HXD0YU/dRbQy9peo5Ql21DhVPZcLwKZqjtN1kZXIKJfR2qBi+dIS1Atqo/d+sIUso2MVECF11QjTSl4dTAFLsL0lDI7LuEL6G6j93KPoEza7hPyEsFVBvQZYs+vtSyE3xb3nbpF9YWjfAFIILRjsQp4zYYALBgthuOivIq+geiPrJALlu7CohRPH07hXpM3uGDl3Ay70PJZoZBnZiRGKuN7HyEwDQl3zssLwSDjrxc1U4hMbrC6nEfJQB3bVH5zFJgQbVJtiXw31SsuLqT69hDtECxDS2OWtNNp4CiPlBAEetwmA9tzMfZv41JCnsqB+Uwq4r268e0/eN4BiAABQmjCbTaNg8Iu1Y1CcY1CRPOXIHOksXnTkjwzBdoSwvJmV6fJoI1021qdGIwMEmVIUMUEVNqMRlEgALQ3GyEsI3UUnVWsI2ILAAHzOrTBGYlSCcnFPzANpCWv1fcdSdRIQcY8xlGqw8TQ2JK59fC2VXSiffjmiHcuN50MDDN4ZFMjXfLudHtg/gJR/tAp3GIQYTO02y2mBQUuEYoyIZx7DTsoLF6AGS7yQZbIOFGSYxvi1MoyFNbp+2K6xGXVWj4MjtC5IW66aDjvqAsxlLNL5AlkbnTwNkGG2YW+JlCBIGJQECoT9KF/Fmr2+GilBUraJgrYsFkFaKlbTvjHXG1xg/8QcIq4v2/UZ5ttt9cDBAMhBUAZCXU4FwjDUoEAYHnezNGKMBgjV2xcRmnsM8qKyDKr3GNkF2ajWbtOGmGlEXDkB+BCAoTZalQu88BkX6azAEpGtwj4EcIa4OUp9Zq0gLBUiFShh96n7tKczIqIRLRBKlB8/DrAaNpZzrcklqGILoADPHEG3hR5O2j+AHEJTj70SM1x5pF6BUmDzGQGgCcLrBKPeCLDksKICGadm5new4+R46qvL2HSMDQIIyi5maSycvjeVCL9yl4wIxfoiqvci2tQaIR/TsVYlH6GRNcKwB9KARQTwY1CvBZMSN9M2rG7L+xAWkgPorA8oYbfj81AvKFENG2uKPNxu983P2zeAWglCKaYSSA6kVuNjZlssQEnkIbg2UMlNCizWjqdOBzbHvhoAbZ8njaeCWkCFIolwgYE+fopr9ACe5AsXBRGKOdfNEKRL5KUKtrgNVRvg3TfENdRxKF8ulcKWRIEP2gHAyq20hTmghiLWUi85HXfRD1eexwyAp74Jr/Up5tvt9MC+ANSCR7epL52TYVLsQglOnEjlqWNkV2BRxjdV49cKYfnkceQgBG0TCfGUj14EQLoaUO1zyEGNJtZZO5H6UiqAVub41ghI01pZnoItQkXgTQTfo8ZfepFz9YnREmSvnLyxYv0EMhBtCIAO0mgbW1MXK/Yy7pGOFAcwY1saX3wRKI0Dto0j9na6b37OgQComb/SAWkMski+hkX5wXTpkQfTcEWjILacCTO+gG3cs4pGtYAMNE79c5dS7wLq+AAf1WSYumF+7mD4I8B+5YFUYf8ZLI/ToAJkHexJ9yym4fFFgDZIa5efSqsXv5rysb6t5ry6WEsVsdVmenQQj5YvQLle0D9WI1sVCNLIXbahPIcC12iATcj/nALd7lTYF4C86WzXK55kakUJ7zqyTEnwWLa+gGZPeMdkM41Ru/P15dRVHkFeKgjtKLAMJ+Ug1erWOdojRnpFdZ5I6gJWNKaG0IRjkKty5KAOlGxpRMz0RTzr+N6aViBy54spWzoRJoQi62IvonXnLqchrC5fRwM0ZBYqNOHc8eVnwx3SWKNvt/vm5+0bQHZhW/Bgx7PNhy62mBU0oj6D3l9EKBlOGK9B6qHKL2DTwc2OTILvHudm2oQNhSYnHIEh2lqF62PMvnKEvILzdYxhsEcBquVFHLMI2N5z5Lmq8lNNTCF9AU2si5xV9rALIRclfGnlEPkL21S+Tix2B8Ee08GQiiDwtwBQyOVzInRbs2HfAAqqswOhaRsQpjsAaGl1JVTvDJU8A0BjWFaGwbELFamXYHXYdMohPi/Vaku60JoYRwBUryMDhdZESMgWEYUc0yMFaGXlOBo+53KkWthYd0jYnwwJQcszWH/5RBoSBpth/e7X+MlKQmkRzsvF4zQWJss1C2SyCmAZvVRFXRnurHdjDqRbAtK+AHQ1eKb6tbdnkPJeD7mDQgh9AubRmjLsOeWZjTTRsow2lS0DEoBVwcZGLyAQ48PSkK1enRniittjAXbXR3juUrUj2yQtKFtESTsBm0TjQwjfJsXnMoJ4sD6upTkBfR9r9nHY31KEhHRlm/jjjBgqF2FtmBWWMXz2EOyHlJSZEIQW5xsR17o25kC6aRDtC0Czd9mBjzNYbYrZrzrfDmw+Zt8WWg8Jg4kIw4xMDDX+CuBMsMuUvntBDTNYC7vYdBZPUPoFM0AfOpGjURm1VncswulgYxAkYH8Lj7+BZ7Fxag3lU4srcL5O5KmwsAyNLQedXbz3XahbVw1ti1hpbFPlpI0ImAJoFkjxLM2l53/37oEDA9B0/KZ3kanhEO3gVF04mSa59htuxWBVBLqXUKdRD2OjR48GsCcohIFm7DA2iAxDKNRxrNkAAXsQnA7NnXhHBW2iDCfIUWFQRIAuL76Q6hFqfhgS2GBjOalAxclTqQJ8OQ7UAhZYVLCzlXuhjCuACXZ3iQRH3Csd7h8uk5b6NFdp/s7BM9sbe34+EAA5lkGBWjIUmtgSs/0B2Nhrsd3cm7YXGdgOQusWsc5oSJsLaGnILl3idAq0LIPE+iMsSVCKuiALY+l+5KR7U4XvrEQbm1TYdCqiGI+vpNG996URQOmPL6WlS0+k3hCNqjLlGTsTYSH58ZOpeOA+AvKRicz+0J0xxBHbPc15AHqCoH0RynZuIy0pYAftAy1SrPYVpCcg3lChOZiavtj190AA9NIry0s0KOI4XQUICK8TyEgEu5OW04lAezJO0ZI6BpjVlwARFIiAr1r2py2pg6qPMFwTFlJiJBzjSd/G+JdzneIkth6DzKBIna0X8a4DIATlDCrUZIEQhYj7AnRGSCySdrDIXH8ZxRwmmqrHIALzQbWJNkZAWqBkxzMvWlrEzCBnDqKXDPWBAeglVMhbwaryY7AxtK7MgVRjwgnaJ4B+FZU612EKgIoaQ2OCDUGNKgRcuVio4GhOY6zaYwBkHenR2WeJPQJwyDh5FzeJkCHIfnCeIDHcFjWyjVQwx/NeKMBjBtCrX6Lqj8lLKwo0MrS/SfjoSiJqLyAHERsUAJpvt9MD+wJQC5rmveVfMa7NBuvJUce7ODgzXBIF8k9BhCHehHCqmu+V4TVPE9ja5rNQKFRrAGS2KioUrGwJ6zHCMGp7jk8r4bqYIM/U2ILGeO4nOEYrnKoTBOIMQ6U+tbi3EQEW8ESg1soT3ntYZ45Rsljphztk0kUILxHAt6cAmiU4swTodnr1LjpnXwCyn14Cnrbz+KEmbKMgjqd/ggAzjIQdbTpEKFaXCW6HuvSo0Kp7Yzx4juAvcri28U8RMKZsZI5HCLywusogNRhPZ6DmBFgIPFNdL9XYdMTi21Lb0qsfbIjze7hBFjFYCqASG9N4m9CRjIjEVQL0BRAx0SUy1XiL6EYE9CvbFP1hFd3Fs2bmyF2Ekes+6r4B9JKrN4ja2V0QBNaFChU9ZBd936jc5SYAgqp0sQdNYGFViZ9rdA7LMhVapTRNbAhuCWQZVO8OYCmwJRU4XStCQ7pLK4ADm06XwDTAMcHOU2OxDjUuxhzZR888mliNsB1QgEKVCto6VRGuS8Qg+B/qPC4S2GNz0LTZ8Qyc5fXaH+bg2RnT2Q8HD6DdtyE81fz2zFgdBGCF4TGuBClHiTo+RqDOzDy0tO9l2Qmhr6jVGgJM2+mu3ZcWFwEgoMpJDjQQrEB2WiABsSMozVxEjS+Nk4Y3Nln53HPpnjQ+/kja6uJXgyX2zTEjG6RD7HQPF0uGS2MR1rZogiNsMILhZJ2GsQWAtClwvwDS7oeaf2974HABFBoVbAw5JkfwHWLEG+Z414cE00MNRjhNtxOx0/lqZKsWF8/gRbcIla4Fmog6X1D+rofKn9doUNhvauw2VbWJeYCYoj4uEy3VsKLJJb3rBtnDnjLsTp37KRfzeNoESB0AuoIhskdu/gJpPivWHQIwq4MqLZ+FKhlXZE8gO1WwP4V445P01IfRcr5dswcOF0C6FlCdOwjMHSqxjmBbFmBQ5a4BUkbsTlqiAhlaWU6yX0aAWQ6bKtqZH2o32hTxPLolDFgbE/8zBmSJogsJCuZAl0NCVxGwMyhMCM0mOiOAd9fvJTz2nsaaA5WpCfDPEewLWKebmSQZwKouk+SITckMj0oHbkCniZFsem5Ogq6FoMMFkLSfAPpsCccoVcnGfgYIHYRWAl1JIsQxiue8ipV5GDIMfhkAylXT9M7DZvSlVQSIjWnpRO89vi3LtqiJlbA2oxgrQYVLI5lzjxAdlcjweS2RUr2K/GXSyBgr+MT6iv5G4H0uyxJ+njvAmj02z8wcsya8tqE8c+pzLeC0+w8ZQDHPI0IxEaNTGamoSKEMBNXoQZkW1k/DcnCEYkSsrP2jW8LKG6jz2iL1yFcIvSPANAZAZYRnmCuGRZpa0pgOwRosT5cINqYIxIcNhUERX1wPlqV12kJTQworjHDeWmpmAVlIB+oY4XswNjrxLNeCFcJULRAxj1K8EXSa3w8ZQM5ybpGjhsvGeDmQlusticfpwKJ6xu7IdsgaHZOuPNok38uF6BBeMQUBILSoNdR9DICVgLICB+CrsQPpXY80ImUWKMwonKohfkcSK4YgwlwJYMPvJi0ZIkhvE0PUQTPsAyKp3gSKtzl6MQ2rs4CGXHwK1DTUJ6AY5x3VsrI3N4RHe9ShAsihRHdikM22WE9L68byIFTDhkrSfCK1hmyLin1jLc0U0Ny+hDyC293QjLGMDvknp3pZF7U8g63lnFsg6wS6kJ9yVPxYkA5rsuwoLN5CQFDh9S8oDSNgmlgjtThLBnMIMpQRA1aRtWLaiLBaQtQCMrY6YrvjdahddLSjfwB3P+TemVIgnKcdbDqL2magLK6JYeZo2GXWkH9WEZbNmFC4xqhY1yQb8nBVbSYFQWAUnqqX7w2He5/CUX0HG6G7QLPTRFCrPQWAOA8NDcYEBeNgfGE1kY0TsjJGfM+w++SXm0D8MTFDWwjTY+ozFqT4FJd48Q96BoB8GbTmO/8CcfNtrx44ZABJC+h8wzNIKNS4ZyCYWdAjKM5wDBCOY3Em2yKDRfULQDF8Bs2I1OMIr7AMHWr+wmNQm4cxzRCyigamA9W0ZqlS4jXBoDghtMNc+3J0BjYEhZOKce8aGWgAiNDBSFCE9Z19gvftNDp1b7pA/toQ+WoJztc9T1U08n4EjiZPEd1Qojl49gJOu+9QAaQsEXoMFIjyY+Rsncb6jDCN3FLBSka4IDLifQrAZSBYiRGxvAgLI9Arc+We5mSs2FSz1yKN0dFhrRCYdT/0TN/RpYEQbiHykjDVieCioHmo97BOgdvFcdsxW5bDc+1ICNtdY7PJ1besjOeOqb1o6KyWq/l28z1wqABqmuGQMHKGZ6ycjhCNCuG5xgpckmyIVQYAnSDcgyAzvOljNKUJmRq5qj7aVVAihWHy5a3eoV9sQuEF3Q9wKLCJb0srtZoYZVtKXBM5Qrh0o9Js0MeZiw2qi2+swBJuUJpZrX00tJWVldhXYh0fWS4GX5vyl2EhnN3C/+Z78y488tABFLIMMKlzStf1TTRUZiHMg705WldOPcOMqMURcdBjQiz0lU2IUNRPlRMQb9EqNa0K8IwwAwwxOpqwWqHKw7jgjpSEAUB6vCzfkiMj5fjHGukFhxfWbmWlbqjzcD4Ed/PqC+OlAZEWaZxs7L8ERWS5TdifwnQI8jpn5xTputPi0AGkWg0zwtaj5ZisVChQRpxQRAHCwqotKA1UIjebAn1c1jXZxLtOBKKDKNA0RnZgRYXB8pgEtEhPtDrjeM1J48n6sKfQ0GBthHYY6uqDARGuSS7ZCiYEtS5NA6ruBJdhWYxiDwUsLAO4Y4TvyxEbZGCaAPIlJZqztOsh6GUA0LSUHHJKjhxUIMsYaIZTC5aBExRq0CHqcJFB7kKFpDjKOAGgKPFK8xHCe0Q19mFFE+QpjYQ16c4V1TdyC3jinddyHR533BIVspBGAO7Ifpy1UD5ypRtZCWpVU1qv0rkKqJTBsg6gggJtnn+mMWRK2QDuTuGG6/XgXf7boQLIAciZyS6aazEF+AhlfAl2d9AIb+1QbLO0oioUZGEJVqPB0SIKaFoVqjqBzIBHXQoqAfsqyDpVDpJ65WhbNU7ZjkFphLcOoD4UHIIlPgsLwy+WVOc9F79XcQ/VPu5BlYeNUkuoxOJthGJJPNKE7I2KYLecimddtL9ElGJL+ZSj5jrY9WfIoQKoIf/MZlwTrtqTAZAcFpajEYUvzIRB8rpkI70FbUSEYcAxJsQqjy9ADbATKYKHOm5QGQDqcpxGwxzrcbVJVXtkmA4a1cD0HKhINsAEMCF4DFkmBGFyybL+fbAxiph3oERaFLFkjzEeVkuWoTnGtcEl1Gy5hHJREoYLRa9NbdrX78G7/NdDBpDz11uofGspbFT2sCoTcprDinIGXllGp2qnC4Wwfg/+qe0N5JHIe9c3DtshUbCDQ3YBM4AsrNRwaMlfszNQx7uAskQTG5NsOLZ62VSTCiBgze6Q0dphYV8dFBTAi2tL7YpIle4T5mGgPQ5X1yOLbU57ph1x3beXAUC6Awz/09qMW4LKGTnsqoKdaQ8yOVAfVaYwTOqyi6KUVC0b4S/LQpC2AAvMEN9XgUO2bxk7DTrKSlT40GWRmUKNXKXPaoiKPiBsQ2E8WJBaHMdnyEkFrNLY6kwhGznLHLSMcJEcM0GBNXuCYG35vLA+B/Dn24164JB7ySEUQIAHQdg6hgQrh0A7QR0vVcTJbx9RnFxVvWYwjUY0JiijbEtm2nEAqDEFFFbtQFszeTSDepQIw2M0qjBGAgApkxQstKwof9eGpAII7qeslcnqWPyuE+GxpBEhUxmEpoW8JGx2wnkWnmq2uQZ2pABSdrFsXRgSUcUZ6QiUL3CsIvQgezDgGAw1KFoWJidEw8obfdTqDlTI+tKoVsHCiDuEalGUAQBFST0ANMYnok1HB+0CGasdiysQMFZDmSBFVzRwjtfp2uXcBeStBYuC4s4QbDlgjiqwUjRYoB79MfFGCFpzDf5G6OH3Q6VAzt8QgMMZOZWH9J7DhmpYmVU7VNcrLcBSFYDlyjwQFDQsQjtwa1iOt2En2H8Ica0xBRhtOIaiRQVYrdkAsYunP8Oa7efa9TRibdWpJVuWJOvEmp1beJxY6gma3gQ5qksOWbA/6RX3GmFaGJHBoR1oLgXdGEGHBqCXEn/ZAi5NYpj1hA8Rai3ASSFphGHCKaAGo6WTUY4376IFWVCKwcxhM7GaDxSoJta5XiStee3htM3nygwOoglVuyvSoEty8MMKbfm7C+yPolViF8AgZA8oPTwkK2PSxVOGZlhSNa1D0XNTgFx606r3xegF2BvqfFTtuHEH3u1HHBqA7Ni2/3dmMuwo9mKRrldORQJhxgIq5eRi2oLlVKQdVzpVyQ2rsQhX+LUy2InFD4wryrBmd5bvofTLI2RzIC8BEO03siOW5QlNzcCytHmWGoiuC6YdCVZEAyqdrlCpCf6vIU89xlUy2CSUlfJ7HdifLpEC1lkQ2loMBR8C/BxAN5wfhwogbThRFTVCMxjFGgNijdGQqh2ry6cjPVm5I3PpJjSjLu73ChlmaKgpQBgAhIoBzXJjdRrBtkBm6RuYRjBYZKsSV+TSmF1U9T7Rh6AK6oIWV5EmVGBMBKBuOSaEBZy2Hap+wLhCWxvLIo1uVHi3spnefUJmY7+5YnMedrQAau7uNJ4CiBIrWUm2RHGMks6UWsG6rPZTAKAOro0e62jkOD2HqNeaD43rmdQaBXGQwv4ZdakaAAAgAElEQVREe4bWpN9M7mdhTjU246kLBHBtRBaQqgsE5JzCCZVV8JtCvhURjLkZrdRuHCA/aRrooel1zanHOGkVkAwrpg5ZjFBQIMA5DyS7EwA0bUPgiFEv8T/VCLxds0ZNy8GYhxvCMNcOADJGutYBimbFai1QEhIGLbwAmDQCGluUq5ITON/Hut0xtRlhWm0qHK6uidEzrvk8CyZijMSqrBAvjEp8bTWZHCOu38GRugiLK6BAxNri6iDfHqrjNQWW5YMjwdB7zrdr9sChsrCm86cUyMGIj2pexuYcQ3iFYsCKXJlwTLnfGptQvuySUAjLUINtNLEt5JEqqFDjmtAc4O+ruCH6yEquFTaicLjyst71Lppdt2/lw4vU7iRCEZ+Y/pGOyyigxWULpBhBiaKeohGKGCxd5KU2zARWa0GqhF2qorBnpio/367bA4cMoF1ChF9lC9M6PTWOzBI3QhjwYBslclCtodGiCi7/ZBFNHK4TYn9kaLEZXw216BFjnZuoiIA9EICyHILnfeXGQhMXNLj0DGfp29JkqbHR6rAsUodPrebcDI1NGcrqZR0D3nTkInuVACiKLtRT0F63C+/uHw8NQIGVePFP0PjFuxluTH2eMer0xWNL6eKSajWiNoH0amMVg1x2T3LIQlpDEVp6AcfpBpagynpAWrWJk87W0cJOpC2EcUu/uFb0uMTwSK7XmFSfkjToDDtQfvEZ1Ho8/kQDNLHZpko/hE/tQWQkAthQ3VXaepvUU8MskCMb1RSeMj9tMqLcTKLYw9SxenfD5NpPf2gA8pYtgOLTLIDwoGcIyzWZqWMMfNqDzHe3AHgHjahPzFCBa2MR29ACa53mQ1gLrE9PvRQIBJBsSKZrFyDxvaJsTKnxj+uWCMQjCnpmuDm6xAxNiDJ0CXJzwGrA1yNXfukYNiMonKvbTyj6aaXYAo1QZ6v58Rlp15MhwflUDGk989fuwrv7l0MFUAuhHQDtkCWLIiyllUVy1w320oeFFmaAWI+oROtLKzC5YErqIMPwqlHlGzbWxAZlq8RWI7eYLm2qc0X5O0vkKc+4xJQJjLmWZdhRBoCi4gfaXRd/WM8ANPaKxxIBvgEuhNHloig/jHRNilCz4C9X2kHIVJq7uxGz6+kPGUDeTdRMtxZA8ZUZX5wCMDhIjfTAIpxR4k612yB6TxM0ZY5roUIOoppY7WrL8kHYT42cZPUyy/4aEmLxqXiY8LOZgdHIOCVUqHAde+hNtETjpUH6UBoBUaGJldqaELxdV2xCnljZw72CLSnWoZ8BkKfPt6t74GUA0F5drmREWrP2ICiQ6+2Sbkq+GLIHuWEZboeO6TZoXoPJmXRx62ny19HEXOe0QRbHN/n2GZpXn9DXBew5CugFlKm7goanMI2GVrhOKsJwE6LagNnQ2SUyYnMroRlaK4C6KPqnYIsQoAFrjY2JbhxHlsZUEwttfoYGxfcD3trLfwORuiMCkASGQHlkmKXV06xsQGgHcswAtX2IF94A+Q4+MfPURwzuNrJImaHimwTvZmQjac3dKLaJBoUvrCOAlHMMz4AqTcxeRA7KXQ5qGlfUSPGysQUIFY7bWNTOjFZWEoLNWfm1ZpnOCb64imjICSWAdwAkS6VFwUYPAzx7YfHA73PwyDwyAMVgYom2qvyCdh+ezZUNxwZ6mSmhkC0bs9zLEDkGh2u4JTwQbanA9+XymNb7MR/eqMYxLM4ERd35qvdW7NDTL0AiPANrdEa2awTZr1E3CKCFgO3v5tWjyluaGGRzPPutFGL9RK/VMDzepzLRgQ7udGAjr3/21Q747PsM0nZ28yHcRbOvaZPbY3ZOmxEp9gLtLe47QgDxvMghEVKKc5UVLHBJ4AfDr4Wji2ocyDeo8otoX+uDC6m3Rc58ZJxKAaj+WhiFiOXZ+B+0L4uybJnWQ/XVDiaCjH2yMDNVh54LpSF7EUEbe09xP6VhHkrbZGwIyhr5qkLtLyoD++8DoKQZmRFC2bxM7c6FYOJfU3pqhwI5OPvddq7RACdcLy5CHE5g2WcL3lkQCZTpja/a7X7jmNrX7gYeLHhswZECyNvXBJlVOfIML4PKYiFeBj5jmYMwGMKgFnAxFLGcgZoYHRw+BsI+MizahmHw1bUHhzhCKzq/Qz1Gw1e7ANEc+jJqDkm9GAxrxJDkmC1AvTAhGNAf1AsAWVihi8OV6onhF6uGrFN2Ca8+99WG0GiB00HZPTb7AVKAQHLriyExfGXnezPoDYBbEDcga0wMPhPHNHX5aKeJBFBPWH68jP8Oyja7tajbT6Obc7XMHcFmp4hdqqVCZUaAp1SucebgWpgQnuHaXgU2nZJ6QZVrgmGl7ljNQ9XeFFOE8JyBNie1UcihNlTnMEaog3ZmLn5RIsNwTV0kphGZgdoW0yy0NwHQbMtCU00h84zKaFaVhYwFaxvAOvOtJ9N69ga+u7aHnrvD2Frw8Ghe3j/xwYFuKJDKQ0sFG7lMEE1TnrCFBbilppQybuoc0U+uV5KgplB3+yr6PEQAr7lzE29029sRAajpmjBLE0jfrIexwJIHOFT1jm9j+zlxfxP/vCUVMcYHnxUDmhbNmhA0QIdza+QWPeuF66GS1qNRsUaOGRNcNqgJ6XBlHrJYIwlxwdkIxUGVLwjw70DBJhUykeGy2JAm3LtwmSpsVNtqYYk8s8nTabWk4INlZgI+dHxj0bztTr/miS1VC/AIEFlno3m6ZpG2LKu3hX1MsOD4lXoaEhPl+TLqXk9eTCNeQ54l796TlhfewJkPqvMGhb8CynYSX7M1N/XDkQHI1rXFxC3AmZ1H/iAjos+DR7HN/JGwKhspmBPyURO6GjWdF6RCsDsGMyfIPuJ7ztgZGAtxZ9QGoGGlLlHzN6FcPfLJEIKgTsQbsf5qW7IlPPqUAB5TMLrE4l0blAa7W0J4X4SCjarnyNU3LITSd/U5IEvwGlSoAZEjLZBuqo9v8SCvLXhk1/oAfYfyGQqjQG/uW4bbhvVFJsMLaYT1XhsZncZZxEGVRCGgtZonl609nor71oEOCZlByezz5vo+R0O59/cQRwaghgtDmJntXVT5LoWiEpmmsegKztOY5BgEaytsEGBmQalYrEV1O1KPMdhAgSiyGECcoEXlqOtWau0u3s+px1hv1U5i4GOmei4UiLmYGRFgcD/rsmbGV1uplQAzMzVyTAsK513ilkasrVESUlKRIavs1SBmysRmqNAUTjE8e2+zg9Qe0/RAe47syLqQV8CDbxDgDgjtrWHNC04MQnwrwnCJ1wX0F9I22btjIgoMRWgMpSwjAzVyfbUlJt5w0WPJQJm29Up4Svsse7f2VvYeMYAcYKzGXQRmF1Yh5HVIKGvflB7jM5BHKrM3YC+WbKnIHKVbAARqPsI39WIAwmkcsIAIe9EiIOoCvi4yzaLLSbnUZm05POQozg3wlZwngAgnKVk/zDjs0RahreET457Lrs9BkXIGqF5g5i8/yMA2ZYEbIybntmM/5Wh2eCNgN3aiOG6HPPmtAZ3HCOgGjNP3CHhD2LWoA7FJeRhEtYSzrAOx2Zeo2FaxzkdUI6FfyqjAZgEI46Og2E4QkGFR28hs4dlyzBUTs3xjmSuo00ITlSkVatrQyFW3ApRrHXuEAGoCXhFqcGlQ+BtqMkC4y41LRljuwY5g4JS2Q5CmhK++qXr7ubQKac5JV0aNgjrhu+o/gPuBdcW2n0yrLoOAIZLR55rG/yDvUHBhMkGTIpd+wfCMilgg1znoUugKVX5y6vH4no0YhDHaWX6aop4I18hRS2vraXH1VcQSPcJgKaiqHdGVTmC3ICxN8lKo3lA4vfcNvTH8raVNfjbAX5uSLIlEAupSWxFEQIzLM+w+k/obL1LCzwKiUD6AX0F5egCLB+c+BslNq5VMgRiUmD7LcmUjgOrEws4VCgamji75cQWsPy00YSmCxzYJ6QbkzWPs5++RAaiZld6+idPpE004Ise9Cwk2q7Qkb94CnBly0IRK8jo9azSyJYLHLKjQxLRaWIFlEKh8Vo6RZwzapxZ0BoiswWnyYk2Hlrg4KtOHmNkGOnrPrMKO1H2I9XnfCqWhfN6EfDFCPbLuA8RWd9LJk7BD8tCydA+D4Tv3Uuif5VJOZAavcfTKWk0FAl0mJlIEy5oAVuRXK1JmqXDVWD6mJFZptHUGswMWdljMCLZUA5xlFiAuefZYzghAWi97QXvU1CbUyCztcAOE1mYkON30CcHua16mIdTel8X8Sv2IUahCgCESKEyryR5AyO6RAcjpqwruYFqCJWewery6UI8cN8QYAHVYJyPHajwqzsSKhRr7xiy+iweikWW5Qo4qXpyg8sY25YIjihDuhIbi8uLV4oOMBbHO5tzjtDXH1Xx83Siysm5OXDZFPvOTUg1CbTEkwrNMkmVT29NUQPhttJOtBc8OGZIqINyjrdUst0BONmPNQS5mh0G0HFIAAl9elb3IrsYhXOGbK81Jk6KyNEPRYb0OFQBap03KFYgESlSb5T7x+cqNr+AXMteYiriX/MtfwobEO+CdoJ0NZN+AtEucVQ9nde71ZN/UggyuGpNpf9sRAsiGO5jObADEwBVoV1Ymi7o88PwCe0yxYDmYJ8PVEMXELVKuLKMM5MAqyyw+nAawsoKqrhoCZXv9pQfSymnqMo5hPQCzYtmoPAEQey5kF90VCO4A2DQiZ6asMTeDNoRte9cDNcw1MzyMew6nLAOATVDxB4Mv8fkpgvHPspQ4QWzbUJ4RUKX9YwyYOoj5gWvARqBIWrhdIEZBNygNRlOpjYZLfox7tjJUrN4Yqjf7p3J4k5XbYFkNNWYMlCQYE5GeypSW9htS2n9oM/EHjizpRy7czjbFW6Bxet0rP97apyMDkO2ORwpyaqUwguK1y6CCUjUa4Q8hkb7NAYSsTM2jQksaM6PqroNCQL42HQL0i/6rSDV7MfVgcwvUH6rXH0ZuOZX6pxAkYW34S5B3Gu5vmrWSgOGrYQWnB41YdBBMlLUwlQH8BEZzFNZtZrE1GI2p7ofgboKjDSfgH7nq/AsfBm+fS6tQmD7aXDHgeVAASjW3AIss+QobqjWWOkGCijn4tsW2KUxHy9jNsASr8d1GeUNZJcf5My/b3RRC5zmiIwU8z8sksBSOz1lgoM2hvDnpVE0RQM/n/oFJLhIG2f1tRwogu6WZ1XSWjkwedntC8RXkgAXYQDGGKhjuQQ1FpnRaItS1s4zvq6stBM1LgRj5ZLH/StYGw+kBWyp6pO2gvo8g42TZ8x3w0aHhmqBbG8HWPvS7YDFWCNYXn53xoBZbymT8bBogyF8sO2kbG8wJtLFO7yHOI96IKzuwOdpeYQw1tYYyske6I+KShiQJoAhUmABQqQJEQcFCXnHYhU08eQxiw7BsjfemhYErwWN+ty9jo9jp9RomHOCx5oByTtSf1HLusTnBcvRhD7lQI+sSfdFZeAXRBw9C4dXXBC5sl1Fv2PK0HVz5drcjA5ANtvnNRpxz7740WHsVcdLMIzo2P8aKzzx4FzV75TSsDGF0cQnqgo2nJjnRk+0+O77IcVssvLrpcEvpCYbQdqazN7QUTvENsh/sgu50FcRcVjR6ClvQ05FHliPMZli8R6PnAfMWFM/CDqj2978ppVOwWJ2+sk5GuqCdC3j/x4CjwNRghkgdoLFVBrA1mlljuxKgbFq+KyhEUADgE1QAtsXnqOGIAE6OAZODPojxBS4WArWqPlEIJSx3ElQG04LVSgCMz18lc+VWiHMiusEVkGTbUKAawGcJTTUAp6zXCNgNY7wyAk3jbv3vkQIomhvkWQA9lNJ930GVjceYOSxX2ScwrMfDM6tWYFExE6eaUDbh8Q25iBnN+SE8KhMF06eLoQQYAAXJRJIt2yDOtdQbD0XrkBcWiPKF3WW88eV0+fkPsCjdE6lDqWC7uuoOkSbKtDICIAT6FxQlz46/HkrwYJxXI2mbDm0GiAJvDhCUTScIxbZHW0y0i/8B2KBAakj62nTFcLBx3oZjaixV9kLAl0pZXkZ3i6woNCfdK1TVz2w3FDfPKLLVYx20RV59ShiTY0d8Ci8t9Lo8lIWa+4/pX2mx1Muednq1rG//8Akp9Oi2mGBxe1hBdiKtLPXT8uLjaEd2sL/Q8cH07QA6Mzq93e8ccpMKyddhE9pLdKiiumrSnxAO65qs+ozGGAnLkuzV/HXIW4/RjV6PuzjQpjFbHpi4oA5qtkmLZnpIRfoUg3B5zrHxSBrllrT1GEcEdXHB4EWAyWK+I2UehDZljA5suEB4D8oS3n+BwBBCCYdEPo5pkyG94Z7Q8w9FNc1ovMzgApYCMHSU7WqqmExQLoybOk6qE3FTfbJHAixEc9a8WwNSJaTeASV9F/Ygbsj9OrJT2tpMLuUkARUM0961WfvajgxAUxhMG2/phEXmDh3BoNWa5mUFsCJnJL3JcQqfQdvjsTM6v1FHBQ8B+arSg6+n6sKXUdhexIpLKEaGfaVAZUbOGaKNuO5GRbzzktVZ0310skIxA4b/q4/Vu8MgFNiDmnvwEwOgYdMywKWUCq2qtyRlk5VA3Qi/rVhNaNKjMDCmh2aROqmM0FGb4i+TIVfgx0YlNdzi2AElbLo5ZfmgJB1Akms+sADpGucAkgLbU7e+F4s6hSQmmBHQUGtWZzR4LuQv7q/22nxuQGFHhqPdORd9pf/MSYAGGAK9lbSJseLqjcDuCFw51/NvZzsyALWNdaKESBLzgZfkW9DEd+UGbS38Y1QqOkQwSPa7NdbrSrItj+ANT/Rk+yNp++z7Izy2xA7ioEkRLFjewxc27uASGDzM1bTdMDABIBMVET6Z+dVmOyen81KWY2QirCjy9HFk9nQlYLdqJBwGnRQj8+2NpKyhZiVt140wsryw2htrxi4QdyTltPDwBINptnoPoSSnKaRl/huURjlFoyeqthUcG6oiZeE8snhrZSY5kn84IlMoj77RrTGdWLJz2R/RB9Y5UhnIoMYZRspJR6MoZZQ7sGBAC83k2lL5/W9HCyBnTDyDRFVqo4YAW9AAhu+q5lUx8ycM/ojZvw2b2dbVgaB4ovumtGIgGrafhueLvfMA58noYEu1VFHdzDLnSAFMz9EEkBDnrIU4JOrYQkhpWrETujr9qW0Xx8ieKlhkxE5zTdZD5LoWtWL5hh71q1X9LeNHfn/dIRogO02DoBRol/UyNija2gVUq8h1Rgv0XCc2ZBaBonDuUHhd+wTqInuTdfNeMWEc9CbJ0SUgXJ5TMwN+M+xMGXFPslzBPsZoOKKfKvqsoFhpThzVEA0uX34krQPcDHmusRq1z7i/96MD0JTcBoKc6bKZ+ixhqfittp/AffMk8rDWWzI1AJR58pdwNl7GDF0cw+5DxOJy7xV0Ht3BQKnCkoYIm1JMdE0wc8GgCgx8zsxdqnFdDHsE7WNjorpr1pfFaEfieIXOsO9AQax4r9Ad7Yo/XFdbC58j5tjZ6xAjl8B0x/lDyCiPY2civgg5rIMRs+g9AuV5BYcTFYmW1EV7VHujdAT/kE8CJu3L77ISqZ/URFWxuZesXEWgcW1g6QY0mhwmGC3HrLJoLewEq26KbGGpBzTblCkeI8c5gbquQ0u5P+shdbqAv/42zrmXlyz8IOjPEQvR9E7TbzyMg0dIfTpPSEd19jPp2IXPIYxiNAQAnR7aEHy8i/ApJRlj7U19fFjMrGBvDrAzGPdFRqp0ThHNPnHMGbagEmAoMKudxDqpODFLlkPoIIuoBam9ZbCSjELkE5fmLAh/iPBXAKZwC6VQRa4mJ8lUhZ2MgYDqsdTGQc8fY9EWrtUnCkCNjKyQxBJVKexFjaxifccGJIK2eWgHsAESe4JjQ4HJgyNEEhiZD9f47gRFIj07HzGhyI+rmUwmCYxYJp2FQMEzFBpK4/IMDfsilQn5MfQ8fGJ66gU6BbkB1tPYiXDvAKIGwNGYfW1HR4Fmm81DZgyIlmhV+DGaT47FuU9IQ8w+tSSBRMdgpmNVH/07sDdZEZGIOkstxmAIbE8ZgxJ3ixM6EIFYp8FEmcVVeUgeHFu1Y/tscqUnl5AWWNqgJquPUMvhFB1OiASsoAtYWBgcQyb1pfPjaG/3Q1keZR+x1FCzypRq/hXp/rSMGl0RzN8I0WABYDagloip8YgQqYs1jmRTvhrtMbOCv8tc4cKp0BonFIMYUxxrBGhGREIaLFZMXuB5nuDd+B5lIGobtQSE6+c9qZbyGtMojJHes1HZrf7fx4g4jqJdZ7CtUfUtwV7jiP1vRwegtv1Sbh5GAbEARMsIpUPSk3ONbCGT2DlNBznjw6YGm8k6zMxOU4zBo7xcVnLekAwPyLqzT7U+B3RacbfxUwwpbj4wuhFhPDgGwG3YFisBQYG2j78uLWawJP7lOmER1HNsLX1CP/r43Cpkm4rQE+Icg+65yTAN9ZDRFdFOmxwSbyM3hcqu7KTFGwDhbnHBuzp3fVZlNsrXKLtZ0k8lIRQAFAKMmhXgMeYnYqAAdqGgrCF0OvjRAtmqN43+bEAk51WNj3/2Y7x7yLQ/PfSAtqMDUDy0D8+TBc+XihC5a8aE3vMITZg+pQ/vIfHVQgz4qHQdZGfoXMM1fQw7SXZzks5/nkGGhaGBKdMMkIs2YS1jjIiyq8Kge9kX1y8Za6Jm0qR/L+lk35aWsQHhHCEgHwBN1PJwsaAhIejQRJmG2pQWXagAbZHWeKFYfchwEtmfCgGgydD2KjJqh7DiimzXHPbTI6KgZyV9wY+XflI+D5gUirkyFLEjFYHq9s2Bi5dyEE8tS+V+0V/t1nTIle/+SkcFBYo+8wxailHS7Ur9a1u/x8lXXenmvhwhgCThCojOKDh2yBzIFxEsxlqmAsiHjMnVdpoCM2IlboPh+AVcTc8w4I/wq1oMh6KqTlYfSkNSg/TMd/CAu9b80FJ6CLL9lfuwcD8IO3oV1Aq5QArEfUecX2X3Q31YFTHuhfbjGhuo4xrowivOXn8hf4N/hrjaPimRmh7qtDUZAUtEP9aEbxDYXldk2o7O4hIhrCM3bWg7rVBtpMBn5rIK1gLoEKMURlAvHsZA+sHJokrOuxrYlTLJVw+7xzUnRjfF1vZU9NqU+kjNjREaW9nfWCV9JO0DTc+73bcjBVBoGPHUjeVZVlBpmeUVBab22mIwkTYKgqUKBi1Yg4NoGOc9JCS+NRUnUVUpjtC15iIhDnr6l0le7KBCF6rf5T0MYOPOCPtKaCXSk0Z2aLgC94nfsKtMnaKyAAGkSa6kjc2gSW0AzOgzaXT+s8gpz3Nv4pXJKQvLNK+eGiEpRQUUReqSEZuja0P5Lmw6jrqDLD0TsIKGnRG60bYqBjxQtlev7ACnOSyY1hRAArL57IklACoE0A7S9oekIwRQ2w8+gN3lv0aozdByKtiGAnBj8GJwtduEAMRn11/FMx/hCpzTEHYfBd8QVKi/fj9nMtBGOLrQneGvXKntKtXYoB46WQlk9wrOfOFL/VY+IV85+AR8YV0EEGhEyC5jY3c8roOchU/MekNOAiMOBwi5Fy9/LC1Vz6ZFrN0553WxHLsyYvi2WCkxBGoAo0sjjKVhvlBWomVoodJkJ4f3aE0H0TNTecYHsJeaLVA3pVL0YEws5DEmo6KAwrOG0lrqjOO1KLBXIexbKjnO2/k7vdzOddvvN/d+hABy2KUyDX+2uQ3H5sHJtKjwxuuEEEBdFtvto50V1JHuAJ5FHIhLvQexCr8SGNAxwXJwO9BhPesvos2p6UCSuAXxP9xixGx3MPrhdKXD8V/JHrTqWP7FAg09qRkAqAnlqBFmjearBhgmc9RowFRTuKrKMQquv4VFfDXIKXNp4BMQDAm2lxy2qa0mR/7R6277DXQPO5IUhFclqGwDv8bzS/ICJFMbEaTPXS6/EMfZRcoxUqYgi43tSIpVEroywTZWaTJAiehh2e4g7BcI+1mG0K/jFXbcc7LZdmK+GxdI0wJ73ZZc2VqAzuy6zscjBJANbVhX8xC2UgjRJDSi3ulviUjDnFneK9YIyYT9wIJqtLQax2te0kGo2s7cyDjViKcfC0dmIAZAuE8LbVT5AI6hdms0JDxWKlAh89Rkdhj+4aJ4OVrRaPQ5vPMfJzME2wrBbdXoaWxPZwJAHcTrsv8YtiZYYIS8em27n2tice6T559vM8gI+R0zQgRWBJCJD9t0ZbCCIirIuz/Gr6UtDUAakEgZp5XU7CuocoFfrIOyUOhUBaCxbCeZJLWTBtdON1FzqcDOA1AyFArDOSKuKLaGzu9EVorn6f7pAbf8doQACv3gqgY3hNUBIJC9+x1p7ZTaTRMwZSdUsoww78OgcEs4Nb1CuDIATRjrZAcCB60nUWi8wjCn2T9HLhnhy9rC9G/l1toQ2vzNXP1VnKVjsvEpaXu5OPoy5fU2oFYIvqrhUdiKLQgFLhJLzehGAEDNbMb+pEsDylhtYnNCgK/MSWsHKB5T9uXzsE0fu2FTSlRSF3bK2oIiSSUBRHjeuR4saRugdAhxWercD4V5AJDQR1CcYM8R9gEFIhPF42fDOprgN65t222DNw9ZKloU7+1b8+XW/h4hgPZquRBy5RwyUrECNx5nH1T25MO2LgWOU3OxV+ySoPHswztO4edIyBtiuZ0Mn6WvLHF3CbV/Cw89rEWbixmnC6dxckLui4c5Vy2umaWmDU+yC7hV0PLQkHLDSFXPDZb3jhj+yih8bkU0AURYBl7u3FnfIZ8MilZjzZ5g4FTGuUruVZhtnyPYdzPwRhQ60AWht4W+MwLEMlhPgccerQAiBVu2ikmXdWOhMDmmi8yQDtw3EZYSbE0QtlRuCoxosH+a77FiQGyCaLp35tDpj7f0dsQAmmlrPIgAQqSNjNJGYZYNaECD9/CbEYQCp3FsVhYYV2MDcJoAaopjVgz+aPwVBNoPp+HFT2OFfR5BGsMd4a/qWjn2lwFugiFOx25BlCFgYmXixyQAABmKSURBVOEOrsEMRvAsYBNdBPVYW5zrBSvUrhLOTXHk2h6UfalexDmqY9W2WryAekVQBSMEBwBlgvulme+aKAAILyeHLhDlFdONOjg2e4SdmjKdAZQ+VKxLUmMi0bKJJFTOEtxOJimLQJtS2pCXHL4p9RIRsbUg4aO7eLW42QGzD7JDHqen3ebbnQOg6QMIIS22yhhEzvAehVv4exmqgJ8KFtSDmoxj1WacpF0oSP4ox+GwJG6oqatj/tcGgiMugOwpZq1GPEImdLpanR7Ny5jljlkSXDss3uHWwPmZIaTrG8PS3ZViABRjmyOLg+96+LfIRy+Rj9Yi49NRUljGAAoQjTiUpZQursf+AnAbspGTh2YiZNlHLkGL08/WxUWyRGShrpEofBXsqIkwaP1oYSQNM4dD1YKkkbzYweZn90+pT1C4l27NXv7u/fNLT7jJPXcWgGJiKAVASQBMls5g4icnDAPdNgO5idW2YPYvUGljsoXGhAzQWXw9CRp0sEH5FTPVMjEMXEcBFbXbih/9kFnUfJj9hnrwuQBIOYDMrcCBMJ1FwQaoD+xhiWCzStApK4UhDyYaWpBqMgNGrHSFkE2qK+f4T6rgvaFAhN8W1mBcRb/TmElkYY/QDgVcHawVgEmYIKQ6OVQxLwkmM8abPQ6uxOGqzQF331UDL1iUlwSP21S2ufqg6W/TUzn/JZd+yXV3TrnpD3cWgKIvGJDI+SLlhvz08eVPpMnGk3T0C8xYKmYQZah630OILioCuYaUhSKeur/0WliYKTuuo2G8DQItFTPzietucFnCN8Z9bDk9Qh4AwhjVtlN9HQrzFQYe6qUAapZFRZAXQvy4/hrDAdNkkEP4hKI0sgqmALhox4wRQCNbCVEeEOT9V5PkiLaIAN/jfgrnwZ522A/XD1mrYUWxzKdV++UxyktXD/l1BtEjpyr/7nMOmMJcpxHx050FoJ2Hl2Qjc1ii5PKLLCD3NDMf6tOn7k0f+CDYdtDEEIugKHis8w3kFg16GuMEEFka+L26FovabiiHlF3jnVZlDZIuTFdt42IonkVAldqROmRguwWZ1HAQYMv8BJGFrqHBYElN8NOZfNjjmCJ7EAqHWq1xk7tGPBGqc4EMo/lu6oXifXZEG0NhSzlaAhBZqDtkpjl+9u+1B/HW0dJSoVs/c+9W3FkA2mnj9DH1DUEVGqutaraP3ZDv6HDYkfG++pmszNWY3ZzdUCdW7ymOUwUfs/3EJaWkB2RlROBZyTElyYYTXBKc36OweDPQkCrKzSQcq6l+JXIvsotrmgGJAqNhv4uQa6EptcQKGxJUMAsrsuyEtikz8U/aMGUce/f6dG9zdHvsQQ3pdW954D/ekQCa2l8ZBimRqq4akdoX4FG2cVNYQEsyaL5E8yqx82Q4RJtoO9gR5vuSBLsxLy3SfQ16AKmKNTdQl2FzHUrACJDGHsPldAcYJtt/CJsKVI4MClVnfWUaNJsQVNkWWpRB/dieLE0YzWnepnSk/bYXKBqZaXr4zJntVfY658rR+/10vZbdzrXvSAA1mgXDapBZlLHj0cKiy+OHzQdAKTPgOqDqEloath2DzHR9yG5gMxVa16A8jeb2ECBDo1MlR+23/JLW7B4Jit2FByPFp0kWbMyYVj/LeyQ19rTiToXjqcwiXWwkFUAQnLFhRg5KyxraQbiadV1/bwM/r/LygKdtzUG836EAkgYxJPjAXImwGhCvY+ZndLASsTJD45AMg6LraBAaYVio62FIhQqoUbegOKaVyLAeZ4TwNSEjyDGwoQ6ySoa/yPBTbS4RWOYQRniJgi6qdfi5pHx6zASTtiD9UR44NRmEJnTwAx+34HWnb3ccgBroNExMC2zdY/0KqpSNsdMY3qCgbGCrpZb0hmfYfzoKtWHHgWYEKUAzQzVfWXhLWuw8AoCQSyz5KwBQ0s2n13AXGbEAsvGCCwgpiSwSsMQINuBp6UsjszQDG87Oqcxz9VC3R93s0DeU5xsBLHs90R0HIBvZ6CQ0jQIKZfeBtN1nqW/sQR0FDiIDXVdVg11GUt4CXvk+GRAdEvEa6sHIcpixzl00pW4XgThGpxmoUH+NNYp4I9mhm2hpQOu3YGYBDo/RCuzmsXHh2DTkumeHpTV7mx93/k4P3rX36q+zx7RtuFUQXvcGh/rjHQggO3RKXfQ2p4ep+fNWxhtPMxpZ5mqGrsgDgDpaeRGGMyy6+oa07jbwa67RfLf/9h7IhuI0/euQTeken9rj/bRHF7UgilP9cuWM5mqzf/e+90uPu1qOCkJ6E9vNX/0mLnYbh+Bf2/Gw3cbpB3+Kg6ioK1spcFXkWJKr7pN822CYGqNcE8jlwE7tReGh57vSdgjRdGv7sol+3mObBZADNlXGPWEGQldObKDSfm+o1h6Xne66AsKrj7n2ec0vV9/l2tdvfrm1o290tVv/fY/pdesXObgzmmFsSqPAyCxoGMFTGPn0eEeYAy8MfgZGePRUd0KIbsi+Hucmgm+G7jQH3rCZzWBcAdvesNt9mesdtddve+2bvebev++9d+YZdzfrZfp+hwGoAYRQCPeABroIUTD9V7QYG4TQq72GHQ3xbCSmHZI/7emrfUrtrzPDsGtEmq+zf29mBDx+14Vu5rQ9ztlp/3XOv507XedyB/LTHcfCQpilN3cYK70mWBoJYUqhUOObXYArog+nXbuDmikQZllXjPXVQ+DVZgduD5hd1clxiV3dfq2B333crtOuum/7242udaNr7r7Hy/H9jqNADtFsR7Wd2jgb/Nt8Cqw0Di4+TLUp9/kDF2hANwUI33eLQXH6Hj28F0jaw3YP4Ow1Zn/bfdzu21zr3ruPu5Vr7j735fp+B1Kg6cjO9F470LHrKvLk9/ZA3gNAvqbq8HSX+5qjrlz0eoN/5ahdw3BVQ5rbze66mfNuBTzXvF70w0zbrnvgrmc44K93IAWaguCa/bOrt3a+zvbo1deY/eVan1uL0DXHYtfld4/DrY7nXpe75r133+wO+n5nAmg/HeQozI7EzucrO3cPdvvLSwZwr1He1bb2EM/dfd0bPcatHr9zvZto143ufVC//78FoJeA56UGvt0gaU+J/bcxMLuvd7MDs/u83d9fcp3rte22kfiSu9zyjm88AEVP37C7d4Tmvfr9xmffcj/e1gmH0g4f+FAuvPcjtqx/71+/Ufe+jB24u4sO4tb7usa+Tt79NDf+/o1HgW70TLs6cHd/7kWRbnTJq37ffcHpj7O79zxkZqcf92rHDa9xo4bueeMbnbS/378xAXSLHbX78L0GL7px94E36Nv28PZ61zx95ofZY/Zqx81c4wbNell//n+Thb2sXXh33+yuB5Az/pqz/iaxcadcY7a5+gldd+Owt29MFraPXtkNlt3fb/XSt3v+7vN2f7/Vduw+XvAIIhfYO8ztrgOQnXnQg3W7A3QY7WgpT1Mn8TDucPXT3jaA2ji0CN7aY7vR73ucMt91nR5ogbHNUppDViB0aYalRap2sEym1MZ9Fy9eTM8//3x64okn0hZry776Na9O3/zN33ydq+7/p1sGkI3d2NhIZ86w0jAksgVK25QWUJLOLmtpLS8vp7U10mhci8L6fM2qt/tv+V12Bfv52WefTf/5n/8ZAHn44YfT2777bemhhx8K4Hz0ox9NH/zgB9MnP/nJ9IlPfIJCWaP0K7/yK3cGgGapiQ371Kc+lf7+7/8+XbhwIV26RMnaqT7qbBA0Hi9QjlHN+6GHHkqvec1r0ute97p0+jRFBgDWtajWXYaJW3pcJ9/HP/7x9Fu/9Vvpq1/9avqmb/qm6Mv3nH5PTOiPfOQjMSaf+9zn0rlz59J99933skzWm6JAbe3hWYrj56997Wvpv/7rv2IGLJCH/qpXvSpeguzs2bNBpToUmnS2fO/3fm/6sR/7sfT611NNY06Fbgk87cH26Ze+9KWYtE8//XR68skn09bWVlD4d77znUHl//iP/zj6fjdnuK0b3sRJNwUgr9NSjX6/n77lW74lPfroo+mf//mfg5yKeqnNj/zIj6Sf/dmfjdt+5StfSX/5l38Zs8IZ8+UvfzmA9au/+qvpnntI6kN2agE5qzHMssBrtX+WIrbHeI2WRe5F4TwnXKszIlvsm7Zj9hmvd1/v4Tl7aTcvvvhisBDrMb/xjW9MDz5IJVfusXvbq33tMR7vPdxmJ5oT8dWvfnV6xzvekT7zmc8EBXrta18bE3dpaSm95S1vYQXpQfq7v/u7uGfbp7vvfdDfbxpA7Y3tOOUagSRL8sEia5ROPX78eHr8lY+nBRZ0k22tr6+np556Kv3rv/5rAE3Afed3fmd617vetdM5Pqjn+y778/rtwHrPtrNnB6LtnHYgfW+v4+drUTjDzFr/fHu93e83M7h7gcdn+O///u/0m7/5mzGov/Ebv3EVgNrrzsYHtAO9m623IJ1tm5/f/OY3p1//9V8PkNq/3/7t3x5j0faD/TULntk+O2jgtNe7ZQBdryFtg+2kHkWWHnnkkfSGN7whfehDH0pqD5JdqdX3fd/3BQDtKPdLhu3EtVUyL3h3Jl2+dJniBh1WwqH6KQUmW8pRkt8+YHntrW0XxLVQd0MNBJ8kvB2o3YNipfYR1eG9tu101gq09v5e12t4v0WXGWezfVJNNRw/e7ztdtLMbv7WCrhSB59ZQLXbbL8Yfet3r+lze/32d+9vuwRggBTiJejbCWO7pP6KAT6n7SipP20/7b6X1/yGA1B0OgHvPrB1DldXV2MWOkscODtL/q3QZwc/99xzwerk5ffee296+9vfHiBwJqtJnDp1Kr3j7e9Ir3/D66Oz7PRnn3k2QPilLzeyQAsiqd9jjz0WZP3++1lBh3u6+bsy2gvPv5C+/sTXQ24TBN/2bd9GTaFu+vRnPh3XE0jeT1bgS7C88MILwX6lot7b5/EeAkSW7eYz+Rz/+I//mP7lX/6F+g0U5ONYKa5gcqAFhNe2Tdtb26FqK8v43JcvXw4g+fL6sqk3velNMfmchG4CQYXlmWeeif7yJZje+Y53xvEBaMG2B7uMCxzidqAUqH1YQVREUWySBOnQlr04KH7/4he/GFTpf/7nf6IjFbYlx3aKcsQf/uEfhlpq50gRXvu610YHq/39zd/8TairCooOor8LEL+fPHkyhMkf/dEfTd/6rd8ag+fgvu9970sf+K8PBFjsfAfzXT/8rgDNh/77Q+kLX/hC2tzcjP3f9V3flX74h384QKbW4z2lnALFeyl7/MzP/Ewc4/MIAtv0p3/6pwF6Aevxf/ZnfxYTQaqiYvHe97w3PfrYo8F+PN7nty/UUr23MqLPrvb0gz/4gyFLyrKk5gL5b//2b0OFt798Pf744+mVj70yve71rwsqNY0CP0So7H3pAweQpNeOFTzOLjtT6uNgSp6lFILBjv/0pz+dPvvZz8bMdHb91V/9Vcza//3f/40Bc4B9t6MdyN/93d+NjnSzk3/8x388KJyzXe1DGUuASOUEg7+dP38+BufDH/lw3M972x4HcP3Yesx6B9FjHCiv4Wf3tWzLY77+9a/Hy3bbXqmEg+3gSx28rse7+axSWPdJHeI5YJ+C+a//+q/T7//+78e93vve96Zf+7VfC9Cphv/RH/1RgFZ2qGalnCOQW63LZ7NvvO4rXvEK1r1oJue1ZL69h/xg9x44gFoZxEGSXcge/GxH+NBvefNb0hve+IZgWc5OZ79gs0OlIPJ3B8/zBJyzXgolcJy5DtZ3f/d3p5/8yZ/coRSyFO/r/T72sY/FsXb+z/3cz4UJQe1QMAs02yIg3v6OtwelkmUKrN/7vd9L73//+4OaOWDO/h/4gR8IsMjG/vzP/zyu6/2lNALddkoJpEg+g5PA8x9FQ/2lX/ql0JjcLwvznl7HNghqJ5p9ICt1ghxbPxZ9IXhlcR/76MeCIsmOH3jggfSLv/iLobQ44XwWryvwBKr96Oa+l5uN7RtAbaNDuGVw7HwfXAD8xV/8RQyO2ytf+crQvt76zW8NVmUHqs47a305myXb7373u2OG/du//VvMRAdIki35dvAccFmCarLX8Fyv53dlFylVq/EJANmgwHWwWo1R1vcd3/Ed6Tt5qWTbNgdfAHk9f3/b296Wvg9h3wFS7pESOnheX3bp8V5PgNt2B9e22aaF/kI6fep0yDFurdBtG2R9Xt/rOhHc7LuM1Gyv1ZuC4RJrirUsTQA6EbzHLEBaReEogBMNZ9s3gLyIs19SLhn+gz/4g6AYdrSz1M5zMN7znvekn/qpn7pK+PTBW7J/4sSJGCipkGzu5/7vz0UDL2xcSH/yJ38SrEnhtB0wZ2YHVuliat7fQZFlOYiyDGey8oYAksS3JgKv6fcYVM4zl14q4+B4jAPr9XzZPo+1PQ6gbNFBc8Cd/e3mM1wl62GRVzPyHkGRp9qUE0Zq9dM//dMx2ewzJ5oUR+rz+c9/Pm0yebxWq6UFwtnavvK3FjDXozbtM+w08pA+7BtALcuyQ+0AyasD4aD80A/9UMxuBVPVT8n0zW5t52xe3gxKJGVzn9RG+5Issb2313RgZXn+3g6OQG43B7OdsVd17hQss7+112tB5LvP5D3dZu/bXl9ht92uNbDul8W15owvfP4L6ew5VqoGNC2IbPte97jeNXduzAefY/ezzP5+0J/3DaB2NsjjJflSmtY66oyVbDvgMRjYYtrOj0Gc6fRrPZganfdoO8aBbGe21/OfVMLfHWB/99pSBdmOW0sh2ra27/42+7k9tt3ftsljvKb32RM8UpkZC/fsdeN4f4OSyJL+/d//PVR+J5vXfeMb3pje9E1vignmpFPQ1syxcw2fkONm27K7zVf16XRC7NXOnYsc4Id9A6hti4On4CrVEUA+5Eu0A2xjVz3YtNMDTNOX1/Nzq5Z6XdmWoPGaLWmfjKk4z4C6tR3cam5+tw0Ct93aY3yfZTmyBLcWHO3geMzsZ1nbbvbRsl/fZ49v7xWsazr4UhZNE7/zO7+TPvzhD4dg/Au/8AvpJ37iJ2KS6QBVrmrlqHZS2BctRbGd7efZd/e/XIBp+7N9P/BwtfaBXwKeW3zIFlCCR21HCuc+QaIQ6yzVWGlHOkiygXb2OpgOkNpZK5u0D9x2dAuO9r29387gc8LsMS1IZt93focStgDyPi2wpDwCT/au5qWMqO1LNq+A/e53vTtkNFV2KWcLYt/b735u2a/P6vd2X7t/97PEM1whWrvH/EC/7xtA+0H+7GBd66mUaQSCJF4wORgaIj/16U8FNXJznyqygqiblOetb31res2rXxPf205v2aAd387w9rf2ewuk2f2zA7Z7f3xXaJ7KWD6TwrHyl1RHwNtOPwt6P3sPj3nm2Ubtd7/WbidAK5wLfMG3m7K131sge7+2zS95381XozcOdrtpFtai3NvbKRsXNkKt9iHtPN8VENt9Drz799rspDaWyIe2M7ymgrLXcPbJgtz8zdn6kz/xk9HBGtLU7pQjBIrakzYkvdBqXWpzho78nx/5P2mJlfzcpE5ed1YmckAdTEHlZ393sz0OnlTCQZaF+rvXcL/H2yZ/s7220+f0XTD5m6xIB7IyjYK9FEZNTnVfbdFn1zTx27/92wF62ZYAUi6yjfal8pLHaIJo1X6pmG22HWqaAs92OrFsn589N9qB7Hh583I8l23zHoexFf8f261cWCA52zXqaTdx0Ozglpq0na0AbcN3UyjBo51Gv9E//dM/hXru5kA5EJ7vZ9X5drNDTp0+FWCxo+xIB0mrsGBysHRveL52lp//+Z8Pzc/zpAS6Mv7hH/4hVGYHyHYJNNvoOYLS59FAKAC8vxPAgT9x/ET64pe+GEZEZZg21qbVNGWtgkMZxrbYNoFl+/wuKGyz9iyPa+OkBJHPrrnDCSAIfHmdlrL63trMlJucNFqqbaOAEJy21b73Ov5uG71G+xyCuO3P3WNxK+N+rWP3JhHXOnq6306ShdhRWo7dbJydKp/3XRbiQ7Rktb2kAJKSyIYcyO///u+P4/zsfjtcm4vn2THOeAfZwdbI6IwULA66qq8z19/1pWlI1DinXGGnCRbbqgvC6+kf814Oip3sfgdNIDqrdea6CTxnt0A3ktJ2qXprexLYtsmZrpFUM4VtevM3vTmsxe/7j/elp55+Kq7j4Pks9pE2KinpL//yL8c+n997PobtS7DrY/M+UlUBZR8KEMHnJBCM9t33fM/37DyD1EXjps8arhgcxo8++uhOGIn94gRXSLdPDgNAN11gapaF2fl2rh3QbnaqmwMkyQ1vMrNkd6PteGehneQA+7vX8fp2moPbkvrZe3pdNwdX4Hq+JNtZ6j5nt4M7q7G1rEg7ksfOXsP7tkZLn0fAuM/2eV8732tK9fzda8yeb1sEiKDyeTUpyDLOvHAmXbzEYni01+exPVK7ViOUwgoIr2n7vEfr1rEN9o37Pdd2SOH87PPKtmyfv/vMLeuUUvrbxY2LYdH2PI/xeQShBkxfh7HdNIC8uQ3bve0GyO7fb/a71959rZu9X3vctc7fvX/2Wfb6bbbNu9u1+/u1nm932/e6z+y19jr+Wvfa67zd17/Wuddq7+3uvy0A7W7s7d78RudFJ6hJ7DLS3ei86wHgVs6dH3vjHrglAN34cvMj7rYe2Lcd6G7rsPnzXt0DcwDNEbGvHpgDaF/dNz95DqA5BvbVA3MA7av75ifPATTHwL56YA6gfXXf/OQ5gOYY2FcPzAG0r+6bn/z/A5UgiAxQj8k/AAAAAElFTkSuQmCC;" parent="1" vertex="1">
          <mxGeometry x="250" y="642" width="78.55" height="96" as="geometry" />
        </mxCell>
        <mxCell id="5a-bvg9B6i0M9ogNFUY2-14" value="" style="shape=image;verticalLabelPosition=bottom;labelBackgroundColor=default;verticalAlign=top;aspect=fixed;imageAspect=0;image=data:image/png,iVBORw0KGgoAAAANSUhEUgAAAJAAAACwCAYAAADg6ueOAAAABHNCSVQICAgIfAhkiAAAIABJREFUeF7tvdeTJNlZ938ys0z7Hrt+V7taeQlJeBCS8BIvIREEEBDECxG4G4JrgttfBHf8BxBcEJgLTASBC7yVQBLIIu+l9buzY3pmurtcZv4+nycre2p6e2x3b4/eqZyprqqsNCfP+Z7HP8/JarZ0FFt7V97jY9Y0Yvq28/0omja/5833QOfmDz24I69CbOa3K3tqkZQ1MNoB08Hden6lA+6BIwGQz1AHOkpeYyAz5r3iVfC3B5w67Gv+5Qf8wPPLHWwPHBmAMgFTD1M1Opsmg3OpHA9T1llKxfI9KXVWIUL9IEwtbcqmVOlgH39+tf32wJEAKIhPXaZycDFtPfHZtPH1T6VyuJV6x+5Na6/+9rRw6rGUF91U13kASPDMimpzMO132A/u/CMBUENakHY2t9LmF76Qznz0/albT1L/1ENpeeXhVBx7BSyunrK5Kw87l4kObuAP6kpHBCCbn6U8z1N/Mk5LF15M/XIgUUr1+bOIRuNU9+pUghiFarmX4MkhR/kcRQc19gdynSMC0BQRvW7qri6mxXySiq0LqR4spGrzXEqjzVQtr6ZJypGUGjG64HE7UKVGtG6ffY6mA0HBPi5yhEoOg1/0Um91LS0sL6OElSmbDNJk48VUbwOmNOKxhuhj27wGAGeIzjbhVfLbVYaAfTz+/NT99sARUSCanUFT8n7qLh1L3fVTaev5p1KnnACgF1LaPJuy8r7UHZepGG3zuUxVZyFNltYA3RInS4/m253QA0cHoEaqSVlvOeVrp1PVW0o1VKgQPBefT/m5k6l68tlUPftMmmxvp+Ke+1L/TW9N6TjqfXCuOfu6ywE0BQEAyqBA2eIKlOccmhk2ofPPpcnC8bT9wQ+m+pOfSuPxOPXe8Lq09uBDKT923xw7dwJypm14WWSg1lmx22kR6tXCcipWT6aOlKhCurm0kQYXzsDh0MQml1J57umULj2bxr7GG6nOtVjPZaA7BUOHCKAGLgq8DrnOCl8TXorB4bpQJ++vIAfdl1bz42lxgGyzOU7DcxdSD519+eR66i5CcLqXUj0+k+rNC6Hiz7c7pwcOEUDSCcFTAZrmNZ6+u89/oaF3llNv5b60tng6LQ97CM34wzbRwEachXY2XOym8SJujuwSctGLKdveunN6b96SqZHlkDpCAKl4q5KrjnfTFvrTNtAZsR+A6InvQnVW8X0dX0eg7gKUItVbgzQ+eyF1FtDSTh1Pdb+XKnxlg7NnUtraBJlzFnZIQ3bLlz1kLQzDXzVM+fBi6mxdTNVgO5U5gFk7mWqF5gwSZAtW8MCfWE6TVd4HWHt0cZw/l9ZPnkjFiZMpbfRxuE7S1rkzafXyRspOQb1uQQnTj+ZLH9rcj3bLGLnuCYcIIFwV0J7O9sU0+fJn0uALn0/1OTSsleXUf+u3pO5jr0b+QXUXUAudNFnvpeEy7GuEn35rOw0uXkzHHn04pWPHoWH9lA+gQBfO8zqbFqsZAF0DSLOgsQdaZ+wcQNfFwy3/eHAAkqvsNZiynq9+MW39x7+lhcubqb73npTfczp1UMlTfwGKlKdsARAdW0zVOjaeja2UjxCUNy83D7MKa+sgSW9zna1L6dLG+bRYGwoyfda97jkFjKCpANscNLeMi5s+4WAANB3MRu/y3vqsGraRegSHLfJtuAE1upxGl5CCts6nDrFAOSr5iCOLLsLz+jFsPCdSehpheThK+eZFXBpYoVfWUmcRV8dlvg+RjbhGqtDlCnW7KzpA04SIZ4xNL9qEEJHti5gFLl9O5WSSlpG1Vk7dkzKAW3PENbA3vcL87WZ6YP8AcuQMLGQ0KgjJROCwI4+dwAMKE3YeBm+ycQmr8hCP+8UI5aiPqaXB6orFVK4+lIarj3DOM7gwNgDMC8hMHLe4kPKFbiqQX/pDXBobsMHh+VR0tEjzYhNKVZAk3a9Awx3DzTR44gvphU98JA2fezoVAKj/mtem9N3vxNP/YJw7B1F03762A1PjsQEGeEYAZ4LFp8L5iXcUIXkBj/uplB8/nbbzLmYcIPPixZRfuNg4UAVQBkVYvD+NiQUq9Y9lAG94Dmqzgb+1AwXqpw5AXABA4zPPIwdhXKwHPLhIabZKbQ+qVtcAs9oGu5dSdfbJVH3qA2nh4/+RTn7qv9La1z+JGeA5zuUYz71CMvfViXfzyfumQDEGUB7NewSoMiYT1HW851iREyxHDOXcJVtfSyPeFyEP+Saq+KXLaGiEcQDhgsjDrFhI/bV1VHrCWsc9gAQgOX8RAKXjx9KojyB9GfBhBxpunE3L92MrUhYKVlRxT240wUY0gMVtY8Uej9ISdqQTaytpawwrxDFbIYQXsLPmPCglVDNi+ufbbffAvgHknRs6UEdIvLE8w7NfS1tPfzFlsKrF5fV0HPbVve8UXvfF1AU8GfJNcVHrsrIMMlAFCLrdtHgcNre+giGxmyooTjnchjpVqVhbSzUsq6jHqcO+8qIWaSgccUR65rNqjOp/Lg2f/loqn3kqVWhwnWPH0sq9p1L/+Im0zT0qzAOjS5vEHQGmHdIjeuaS0G2jhxP3DSC7v4O444X6UJfJ5fNp4yMfSS/85/tTD01q8vgr0vHv/HZY2HrKV9WyngM8OE3PEXk4wMDYwzZTwcY6Amg9DXFfDM4UaeLYQk2qMcFlCL0TYqQ7sLb+COEbf1kaQUl6hHcIACjP5Lln0sZ/fiBtf+GzgGuQVl71mrRy7G0Bvi4yVMa9xkPii7aIvSZsBDRe0eT204N3+bn7BlCwMFHEhxy1uYOwuoSAvH72XFq4BCVYw4q8ifEP+0+OwbDIR6k3ABRnz4e2FVZlL9IpyMhYgnKspJoBr6UqqO3jAVoZAOour0HRoD4YIxNGxppr1mt48RG+shIgovovQfGKZwgFyYYE6KPRXR6kYmEx9WB/Kd9OE9q2tbHB/ZGfeorvcwq0X/zvX4gGPMpAviJoWaF3eSGt4qJYJ1B+AQdoeQm1HXD0YU/dRbQy9peo5Ql21DhVPZcLwKZqjtN1kZXIKJfR2qBi+dIS1Atqo/d+sIUso2MVECF11QjTSl4dTAFLsL0lDI7LuEL6G6j93KPoEza7hPyEsFVBvQZYs+vtSyE3xb3nbpF9YWjfAFIILRjsQp4zYYALBgthuOivIq+geiPrJALlu7CohRPH07hXpM3uGDl3Ay70PJZoZBnZiRGKuN7HyEwDQl3zssLwSDjrxc1U4hMbrC6nEfJQB3bVH5zFJgQbVJtiXw31SsuLqT69hDtECxDS2OWtNNp4CiPlBAEetwmA9tzMfZv41JCnsqB+Uwq4r268e0/eN4BiAABQmjCbTaNg8Iu1Y1CcY1CRPOXIHOksXnTkjwzBdoSwvJmV6fJoI1021qdGIwMEmVIUMUEVNqMRlEgALQ3GyEsI3UUnVWsI2ILAAHzOrTBGYlSCcnFPzANpCWv1fcdSdRIQcY8xlGqw8TQ2JK59fC2VXSiffjmiHcuN50MDDN4ZFMjXfLudHtg/gJR/tAp3GIQYTO02y2mBQUuEYoyIZx7DTsoLF6AGS7yQZbIOFGSYxvi1MoyFNbp+2K6xGXVWj4MjtC5IW66aDjvqAsxlLNL5AlkbnTwNkGG2YW+JlCBIGJQECoT9KF/Fmr2+GilBUraJgrYsFkFaKlbTvjHXG1xg/8QcIq4v2/UZ5ttt9cDBAMhBUAZCXU4FwjDUoEAYHnezNGKMBgjV2xcRmnsM8qKyDKr3GNkF2ajWbtOGmGlEXDkB+BCAoTZalQu88BkX6azAEpGtwj4EcIa4OUp9Zq0gLBUiFShh96n7tKczIqIRLRBKlB8/DrAaNpZzrcklqGILoADPHEG3hR5O2j+AHEJTj70SM1x5pF6BUmDzGQGgCcLrBKPeCLDksKICGadm5new4+R46qvL2HSMDQIIyi5maSycvjeVCL9yl4wIxfoiqvci2tQaIR/TsVYlH6GRNcKwB9KARQTwY1CvBZMSN9M2rG7L+xAWkgPorA8oYbfj81AvKFENG2uKPNxu983P2zeAWglCKaYSSA6kVuNjZlssQEnkIbg2UMlNCizWjqdOBzbHvhoAbZ8njaeCWkCFIolwgYE+fopr9ACe5AsXBRGKOdfNEKRL5KUKtrgNVRvg3TfENdRxKF8ulcKWRIEP2gHAyq20hTmghiLWUi85HXfRD1eexwyAp74Jr/Up5tvt9MC+ANSCR7epL52TYVLsQglOnEjlqWNkV2BRxjdV49cKYfnkceQgBG0TCfGUj14EQLoaUO1zyEGNJtZZO5H6UiqAVub41ghI01pZnoItQkXgTQTfo8ZfepFz9YnREmSvnLyxYv0EMhBtCIAO0mgbW1MXK/Yy7pGOFAcwY1saX3wRKI0Dto0j9na6b37OgQComb/SAWkMski+hkX5wXTpkQfTcEWjILacCTO+gG3cs4pGtYAMNE79c5dS7wLq+AAf1WSYumF+7mD4I8B+5YFUYf8ZLI/ToAJkHexJ9yym4fFFgDZIa5efSqsXv5rysb6t5ry6WEsVsdVmenQQj5YvQLle0D9WI1sVCNLIXbahPIcC12iATcj/nALd7lTYF4C86WzXK55kakUJ7zqyTEnwWLa+gGZPeMdkM41Ru/P15dRVHkFeKgjtKLAMJ+Ug1erWOdojRnpFdZ5I6gJWNKaG0IRjkKty5KAOlGxpRMz0RTzr+N6aViBy54spWzoRJoQi62IvonXnLqchrC5fRwM0ZBYqNOHc8eVnwx3SWKNvt/vm5+0bQHZhW/Bgx7PNhy62mBU0oj6D3l9EKBlOGK9B6qHKL2DTwc2OTILvHudm2oQNhSYnHIEh2lqF62PMvnKEvILzdYxhsEcBquVFHLMI2N5z5Lmq8lNNTCF9AU2si5xV9rALIRclfGnlEPkL21S+Tix2B8Ee08GQiiDwtwBQyOVzInRbs2HfAAqqswOhaRsQpjsAaGl1JVTvDJU8A0BjWFaGwbELFamXYHXYdMohPi/Vaku60JoYRwBUryMDhdZESMgWEYUc0yMFaGXlOBo+53KkWthYd0jYnwwJQcszWH/5RBoSBpth/e7X+MlKQmkRzsvF4zQWJss1C2SyCmAZvVRFXRnurHdjDqRbAtK+AHQ1eKb6tbdnkPJeD7mDQgh9AubRmjLsOeWZjTTRsow2lS0DEoBVwcZGLyAQ48PSkK1enRniittjAXbXR3juUrUj2yQtKFtESTsBm0TjQwjfJsXnMoJ4sD6upTkBfR9r9nHY31KEhHRlm/jjjBgqF2FtmBWWMXz2EOyHlJSZEIQW5xsR17o25kC6aRDtC0Czd9mBjzNYbYrZrzrfDmw+Zt8WWg8Jg4kIw4xMDDX+CuBMsMuUvntBDTNYC7vYdBZPUPoFM0AfOpGjURm1VncswulgYxAkYH8Lj7+BZ7Fxag3lU4srcL5O5KmwsAyNLQedXbz3XahbVw1ti1hpbFPlpI0ImAJoFkjxLM2l53/37oEDA9B0/KZ3kanhEO3gVF04mSa59htuxWBVBLqXUKdRD2OjR48GsCcohIFm7DA2iAxDKNRxrNkAAXsQnA7NnXhHBW2iDCfIUWFQRIAuL76Q6hFqfhgS2GBjOalAxclTqQJ8OQ7UAhZYVLCzlXuhjCuACXZ3iQRH3Csd7h8uk5b6NFdp/s7BM9sbe34+EAA5lkGBWjIUmtgSs/0B2Nhrsd3cm7YXGdgOQusWsc5oSJsLaGnILl3idAq0LIPE+iMsSVCKuiALY+l+5KR7U4XvrEQbm1TYdCqiGI+vpNG996URQOmPL6WlS0+k3hCNqjLlGTsTYSH58ZOpeOA+AvKRicz+0J0xxBHbPc15AHqCoH0RynZuIy0pYAftAy1SrPYVpCcg3lChOZiavtj190AA9NIry0s0KOI4XQUICK8TyEgEu5OW04lAezJO0ZI6BpjVlwARFIiAr1r2py2pg6qPMFwTFlJiJBzjSd/G+JdzneIkth6DzKBIna0X8a4DIATlDCrUZIEQhYj7AnRGSCySdrDIXH8ZxRwmmqrHIALzQbWJNkZAWqBkxzMvWlrEzCBnDqKXDPWBAeglVMhbwaryY7AxtK7MgVRjwgnaJ4B+FZU612EKgIoaQ2OCDUGNKgRcuVio4GhOY6zaYwBkHenR2WeJPQJwyDh5FzeJkCHIfnCeIDHcFjWyjVQwx/NeKMBjBtCrX6Lqj8lLKwo0MrS/SfjoSiJqLyAHERsUAJpvt9MD+wJQC5rmveVfMa7NBuvJUce7ODgzXBIF8k9BhCHehHCqmu+V4TVPE9ja5rNQKFRrAGS2KioUrGwJ6zHCMGp7jk8r4bqYIM/U2ILGeO4nOEYrnKoTBOIMQ6U+tbi3EQEW8ESg1soT3ntYZ45Rsljphztk0kUILxHAt6cAmiU4swTodnr1LjpnXwCyn14Cnrbz+KEmbKMgjqd/ggAzjIQdbTpEKFaXCW6HuvSo0Kp7Yzx4juAvcri28U8RMKZsZI5HCLywusogNRhPZ6DmBFgIPFNdL9XYdMTi21Lb0qsfbIjze7hBFjFYCqASG9N4m9CRjIjEVQL0BRAx0SUy1XiL6EYE9CvbFP1hFd3Fs2bmyF2Ekes+6r4B9JKrN4ja2V0QBNaFChU9ZBd936jc5SYAgqp0sQdNYGFViZ9rdA7LMhVapTRNbAhuCWQZVO8OYCmwJRU4XStCQ7pLK4ADm06XwDTAMcHOU2OxDjUuxhzZR888mliNsB1QgEKVCto6VRGuS8Qg+B/qPC4S2GNz0LTZ8Qyc5fXaH+bg2RnT2Q8HD6DdtyE81fz2zFgdBGCF4TGuBClHiTo+RqDOzDy0tO9l2Qmhr6jVGgJM2+mu3ZcWFwEgoMpJDjQQrEB2WiABsSMozVxEjS+Nk4Y3Nln53HPpnjQ+/kja6uJXgyX2zTEjG6RD7HQPF0uGS2MR1rZogiNsMILhZJ2GsQWAtClwvwDS7oeaf2974HABFBoVbAw5JkfwHWLEG+Z414cE00MNRjhNtxOx0/lqZKsWF8/gRbcIla4Fmog6X1D+rofKn9doUNhvauw2VbWJeYCYoj4uEy3VsKLJJb3rBtnDnjLsTp37KRfzeNoESB0AuoIhskdu/gJpPivWHQIwq4MqLZ+FKhlXZE8gO1WwP4V445P01IfRcr5dswcOF0C6FlCdOwjMHSqxjmBbFmBQ5a4BUkbsTlqiAhlaWU6yX0aAWQ6bKtqZH2o32hTxPLolDFgbE/8zBmSJogsJCuZAl0NCVxGwMyhMCM0mOiOAd9fvJTz2nsaaA5WpCfDPEewLWKebmSQZwKouk+SITckMj0oHbkCniZFsem5Ogq6FoMMFkLSfAPpsCccoVcnGfgYIHYRWAl1JIsQxiue8ipV5GDIMfhkAylXT9M7DZvSlVQSIjWnpRO89vi3LtqiJlbA2oxgrQYVLI5lzjxAdlcjweS2RUr2K/GXSyBgr+MT6iv5G4H0uyxJ+njvAmj02z8wcsya8tqE8c+pzLeC0+w8ZQDHPI0IxEaNTGamoSKEMBNXoQZkW1k/DcnCEYkSsrP2jW8LKG6jz2iL1yFcIvSPANAZAZYRnmCuGRZpa0pgOwRosT5cINqYIxIcNhUERX1wPlqV12kJTQworjHDeWmpmAVlIB+oY4XswNjrxLNeCFcJULRAxj1K8EXSa3w8ZQM5ybpGjhsvGeDmQlusticfpwKJ6xu7IdsgaHZOuPNok38uF6BBeMQUBILSoNdR9DICVgLICB+CrsQPpXY80ImUWKMwonKohfkcSK4YgwlwJYMPvJi0ZIkhvE0PUQTPsAyKp3gSKtzl6MQ2rs4CGXHwK1DTUJ6AY5x3VsrI3N4RHe9ShAsihRHdikM22WE9L68byIFTDhkrSfCK1hmyLin1jLc0U0Ny+hDyC293QjLGMDvknp3pZF7U8g63lnFsg6wS6kJ9yVPxYkA5rsuwoLN5CQFDh9S8oDSNgmlgjtThLBnMIMpQRA1aRtWLaiLBaQtQCMrY6YrvjdahddLSjfwB3P+TemVIgnKcdbDqL2magLK6JYeZo2GXWkH9WEZbNmFC4xqhY1yQb8nBVbSYFQWAUnqqX7w2He5/CUX0HG6G7QLPTRFCrPQWAOA8NDcYEBeNgfGE1kY0TsjJGfM+w++SXm0D8MTFDWwjTY+ozFqT4FJd48Q96BoB8GbTmO/8CcfNtrx44ZABJC+h8wzNIKNS4ZyCYWdAjKM5wDBCOY3Em2yKDRfULQDF8Bs2I1OMIr7AMHWr+wmNQm4cxzRCyigamA9W0ZqlS4jXBoDghtMNc+3J0BjYEhZOKce8aGWgAiNDBSFCE9Z19gvftNDp1b7pA/toQ+WoJztc9T1U08n4EjiZPEd1Qojl49gJOu+9QAaQsEXoMFIjyY+Rsncb6jDCN3FLBSka4IDLifQrAZSBYiRGxvAgLI9Arc+We5mSs2FSz1yKN0dFhrRCYdT/0TN/RpYEQbiHykjDVieCioHmo97BOgdvFcdsxW5bDc+1ICNtdY7PJ1besjOeOqb1o6KyWq/l28z1wqABqmuGQMHKGZ6ycjhCNCuG5xgpckmyIVQYAnSDcgyAzvOljNKUJmRq5qj7aVVAihWHy5a3eoV9sQuEF3Q9wKLCJb0srtZoYZVtKXBM5Qrh0o9Js0MeZiw2qi2+swBJuUJpZrX00tJWVldhXYh0fWS4GX5vyl2EhnN3C/+Z78y488tABFLIMMKlzStf1TTRUZiHMg705WldOPcOMqMURcdBjQiz0lU2IUNRPlRMQb9EqNa0K8IwwAwwxOpqwWqHKw7jgjpSEAUB6vCzfkiMj5fjHGukFhxfWbmWlbqjzcD4Ed/PqC+OlAZEWaZxs7L8ERWS5TdifwnQI8jpn5xTputPi0AGkWg0zwtaj5ZisVChQRpxQRAHCwqotKA1UIjebAn1c1jXZxLtOBKKDKNA0RnZgRYXB8pgEtEhPtDrjeM1J48n6sKfQ0GBthHYY6uqDARGuSS7ZCiYEtS5NA6ruBJdhWYxiDwUsLAO4Y4TvyxEbZGCaAPIlJZqztOsh6GUA0LSUHHJKjhxUIMsYaIZTC5aBExRq0CHqcJFB7kKFpDjKOAGgKPFK8xHCe0Q19mFFE+QpjYQ16c4V1TdyC3jinddyHR533BIVspBGAO7Ifpy1UD5ypRtZCWpVU1qv0rkKqJTBsg6gggJtnn+mMWRK2QDuTuGG6/XgXf7boQLIAciZyS6aazEF+AhlfAl2d9AIb+1QbLO0oioUZGEJVqPB0SIKaFoVqjqBzIBHXQoqAfsqyDpVDpJ65WhbNU7ZjkFphLcOoD4UHIIlPgsLwy+WVOc9F79XcQ/VPu5BlYeNUkuoxOJthGJJPNKE7I2KYLecimddtL9ElGJL+ZSj5jrY9WfIoQKoIf/MZlwTrtqTAZAcFpajEYUvzIRB8rpkI70FbUSEYcAxJsQqjy9ADbATKYKHOm5QGQDqcpxGwxzrcbVJVXtkmA4a1cD0HKhINsAEMCF4DFkmBGFyybL+fbAxiph3oERaFLFkjzEeVkuWoTnGtcEl1Gy5hHJREoYLRa9NbdrX78G7/NdDBpDz11uofGspbFT2sCoTcprDinIGXllGp2qnC4Wwfg/+qe0N5JHIe9c3DtshUbCDQ3YBM4AsrNRwaMlfszNQx7uAskQTG5NsOLZ62VSTCiBgze6Q0dphYV8dFBTAi2tL7YpIle4T5mGgPQ5X1yOLbU57ph1x3beXAUC6Awz/09qMW4LKGTnsqoKdaQ8yOVAfVaYwTOqyi6KUVC0b4S/LQpC2AAvMEN9XgUO2bxk7DTrKSlT40GWRmUKNXKXPaoiKPiBsQ2E8WJBaHMdnyEkFrNLY6kwhGznLHLSMcJEcM0GBNXuCYG35vLA+B/Dn24164JB7ySEUQIAHQdg6hgQrh0A7QR0vVcTJbx9RnFxVvWYwjUY0JiijbEtm2nEAqDEFFFbtQFszeTSDepQIw2M0qjBGAgApkxQstKwof9eGpAII7qeslcnqWPyuE+GxpBEhUxmEpoW8JGx2wnkWnmq2uQZ2pABSdrFsXRgSUcUZ6QiUL3CsIvQgezDgGAw1KFoWJidEw8obfdTqDlTI+tKoVsHCiDuEalGUAQBFST0ANMYnok1HB+0CGasdiysQMFZDmSBFVzRwjtfp2uXcBeStBYuC4s4QbDlgjiqwUjRYoB79MfFGCFpzDf5G6OH3Q6VAzt8QgMMZOZWH9J7DhmpYmVU7VNcrLcBSFYDlyjwQFDQsQjtwa1iOt2En2H8Ica0xBRhtOIaiRQVYrdkAsYunP8Oa7efa9TRibdWpJVuWJOvEmp1beJxY6gma3gQ5qksOWbA/6RX3GmFaGJHBoR1oLgXdGEGHBqCXEn/ZAi5NYpj1hA8Rai3ASSFphGHCKaAGo6WTUY4376IFWVCKwcxhM7GaDxSoJta5XiStee3htM3nygwOoglVuyvSoEty8MMKbfm7C+yPolViF8AgZA8oPTwkK2PSxVOGZlhSNa1D0XNTgFx606r3xegF2BvqfFTtuHEH3u1HHBqA7Ni2/3dmMuwo9mKRrldORQJhxgIq5eRi2oLlVKQdVzpVyQ2rsQhX+LUy2InFD4wryrBmd5bvofTLI2RzIC8BEO03siOW5QlNzcCytHmWGoiuC6YdCVZEAyqdrlCpCf6vIU89xlUy2CSUlfJ7HdifLpEC1lkQ2loMBR8C/BxAN5wfhwogbThRFTVCMxjFGgNijdGQqh2ry6cjPVm5I3PpJjSjLu73ChlmaKgpQBgAhIoBzXJjdRrBtkBm6RuYRjBYZKsSV+TSmF1U9T7Rh6AK6oIWV5EmVGBMBKBuOSaEBZy2Hap+wLhCWxvLIo1uVHi3spnefUJmY7+5YnMedrQAau7uNJ4CiBIrWUm2RHGMks6UWsG6rPZTAKAOro0e62jkOD2HqNeaD43rmdQaBXGQwv4ZdakaAAAgAElEQVREe4bWpN9M7mdhTjU246kLBHBtRBaQqgsE5JzCCZVV8JtCvhURjLkZrdRuHCA/aRrooel1zanHOGkVkAwrpg5ZjFBQIMA5DyS7EwA0bUPgiFEv8T/VCLxds0ZNy8GYhxvCMNcOADJGutYBimbFai1QEhIGLbwAmDQCGluUq5ITON/Hut0xtRlhWm0qHK6uidEzrvk8CyZijMSqrBAvjEp8bTWZHCOu38GRugiLK6BAxNri6iDfHqrjNQWW5YMjwdB7zrdr9sChsrCm86cUyMGIj2pexuYcQ3iFYsCKXJlwTLnfGptQvuySUAjLUINtNLEt5JEqqFDjmtAc4O+ruCH6yEquFTaicLjyst71Lppdt2/lw4vU7iRCEZ+Y/pGOyyigxWULpBhBiaKeohGKGCxd5KU2zARWa0GqhF2qorBnpio/367bA4cMoF1ChF9lC9M6PTWOzBI3QhjwYBslclCtodGiCi7/ZBFNHK4TYn9kaLEZXw216BFjnZuoiIA9EICyHILnfeXGQhMXNLj0DGfp29JkqbHR6rAsUodPrebcDI1NGcrqZR0D3nTkInuVACiKLtRT0F63C+/uHw8NQIGVePFP0PjFuxluTH2eMer0xWNL6eKSajWiNoH0amMVg1x2T3LIQlpDEVp6AcfpBpagynpAWrWJk87W0cJOpC2EcUu/uFb0uMTwSK7XmFSfkjToDDtQfvEZ1Ho8/kQDNLHZpko/hE/tQWQkAthQ3VXaepvUU8MskCMb1RSeMj9tMqLcTKLYw9SxenfD5NpPf2gA8pYtgOLTLIDwoGcIyzWZqWMMfNqDzHe3AHgHjahPzFCBa2MR29ACa53mQ1gLrE9PvRQIBJBsSKZrFyDxvaJsTKnxj+uWCMQjCnpmuDm6xAxNiDJ0CXJzwGrA1yNXfukYNiMonKvbTyj6aaXYAo1QZ6v58Rlp15MhwflUDGk989fuwrv7l0MFUAuhHQDtkCWLIiyllUVy1w320oeFFmaAWI+oROtLKzC5YErqIMPwqlHlGzbWxAZlq8RWI7eYLm2qc0X5O0vkKc+4xJQJjLmWZdhRBoCi4gfaXRd/WM8ANPaKxxIBvgEuhNHloig/jHRNilCz4C9X2kHIVJq7uxGz6+kPGUDeTdRMtxZA8ZUZX5wCMDhIjfTAIpxR4k612yB6TxM0ZY5roUIOoppY7WrL8kHYT42cZPUyy/4aEmLxqXiY8LOZgdHIOCVUqHAde+hNtETjpUH6UBoBUaGJldqaELxdV2xCnljZw72CLSnWoZ8BkKfPt6t74GUA0F5drmREWrP2ICiQ6+2Sbkq+GLIHuWEZboeO6TZoXoPJmXRx62ny19HEXOe0QRbHN/n2GZpXn9DXBew5CugFlKm7goanMI2GVrhOKsJwE6LagNnQ2SUyYnMroRlaK4C6KPqnYIsQoAFrjY2JbhxHlsZUEwttfoYGxfcD3trLfwORuiMCkASGQHlkmKXV06xsQGgHcswAtX2IF94A+Q4+MfPURwzuNrJImaHimwTvZmQjac3dKLaJBoUvrCOAlHMMz4AqTcxeRA7KXQ5qGlfUSPGysQUIFY7bWNTOjFZWEoLNWfm1ZpnOCb64imjICSWAdwAkS6VFwUYPAzx7YfHA73PwyDwyAMVgYom2qvyCdh+ezZUNxwZ6mSmhkC0bs9zLEDkGh2u4JTwQbanA9+XymNb7MR/eqMYxLM4ERd35qvdW7NDTL0AiPANrdEa2awTZr1E3CKCFgO3v5tWjyluaGGRzPPutFGL9RK/VMDzepzLRgQ7udGAjr3/21Q747PsM0nZ28yHcRbOvaZPbY3ZOmxEp9gLtLe47QgDxvMghEVKKc5UVLHBJ4AfDr4Wji2ocyDeo8otoX+uDC6m3Rc58ZJxKAaj+WhiFiOXZ+B+0L4uybJnWQ/XVDiaCjH2yMDNVh54LpSF7EUEbe09xP6VhHkrbZGwIyhr5qkLtLyoD++8DoKQZmRFC2bxM7c6FYOJfU3pqhwI5OPvddq7RACdcLy5CHE5g2WcL3lkQCZTpja/a7X7jmNrX7gYeLHhswZECyNvXBJlVOfIML4PKYiFeBj5jmYMwGMKgFnAxFLGcgZoYHRw+BsI+MizahmHw1bUHhzhCKzq/Qz1Gw1e7ANEc+jJqDkm9GAxrxJDkmC1AvTAhGNAf1AsAWVihi8OV6onhF6uGrFN2Ca8+99WG0GiB00HZPTb7AVKAQHLriyExfGXnezPoDYBbEDcga0wMPhPHNHX5aKeJBFBPWH68jP8Oyja7tajbT6Obc7XMHcFmp4hdqqVCZUaAp1SucebgWpgQnuHaXgU2nZJ6QZVrgmGl7ljNQ9XeFFOE8JyBNie1UcihNlTnMEaog3ZmLn5RIsNwTV0kphGZgdoW0yy0NwHQbMtCU00h84zKaFaVhYwFaxvAOvOtJ9N69ga+u7aHnrvD2Frw8Ghe3j/xwYFuKJDKQ0sFG7lMEE1TnrCFBbilppQybuoc0U+uV5KgplB3+yr6PEQAr7lzE29029sRAajpmjBLE0jfrIexwJIHOFT1jm9j+zlxfxP/vCUVMcYHnxUDmhbNmhA0QIdza+QWPeuF66GS1qNRsUaOGRNcNqgJ6XBlHrJYIwlxwdkIxUGVLwjw70DBJhUykeGy2JAm3LtwmSpsVNtqYYk8s8nTabWk4INlZgI+dHxj0bztTr/miS1VC/AIEFlno3m6ZpG2LKu3hX1MsOD4lXoaEhPl+TLqXk9eTCNeQ54l796TlhfewJkPqvMGhb8CynYSX7M1N/XDkQHI1rXFxC3AmZ1H/iAjos+DR7HN/JGwKhspmBPyURO6GjWdF6RCsDsGMyfIPuJ7ztgZGAtxZ9QGoGGlLlHzN6FcPfLJEIKgTsQbsf5qW7IlPPqUAB5TMLrE4l0blAa7W0J4X4SCjarnyNU3LITSd/U5IEvwGlSoAZEjLZBuqo9v8SCvLXhk1/oAfYfyGQqjQG/uW4bbhvVFJsMLaYT1XhsZncZZxEGVRCGgtZonl609nor71oEOCZlByezz5vo+R0O59/cQRwaghgtDmJntXVT5LoWiEpmmsegKztOY5BgEaytsEGBmQalYrEV1O1KPMdhAgSiyGECcoEXlqOtWau0u3s+px1hv1U5i4GOmei4UiLmYGRFgcD/rsmbGV1uplQAzMzVyTAsK513ilkasrVESUlKRIavs1SBmysRmqNAUTjE8e2+zg9Qe0/RAe47syLqQV8CDbxDgDgjtrWHNC04MQnwrwnCJ1wX0F9I22btjIgoMRWgMpSwjAzVyfbUlJt5w0WPJQJm29Up4Svsse7f2VvYeMYAcYKzGXQRmF1Yh5HVIKGvflB7jM5BHKrM3YC+WbKnIHKVbAARqPsI39WIAwmkcsIAIe9EiIOoCvi4yzaLLSbnUZm05POQozg3wlZwngAgnKVk/zDjs0RahreET457Lrs9BkXIGqF5g5i8/yMA2ZYEbIybntmM/5Wh2eCNgN3aiOG6HPPmtAZ3HCOgGjNP3CHhD2LWoA7FJeRhEtYSzrAOx2Zeo2FaxzkdUI6FfyqjAZgEI46Og2E4QkGFR28hs4dlyzBUTs3xjmSuo00ITlSkVatrQyFW3ApRrHXuEAGoCXhFqcGlQ+BtqMkC4y41LRljuwY5g4JS2Q5CmhK++qXr7ubQKac5JV0aNgjrhu+o/gPuBdcW2n0yrLoOAIZLR55rG/yDvUHBhMkGTIpd+wfCMilgg1znoUugKVX5y6vH4no0YhDHaWX6aop4I18hRS2vraXH1VcQSPcJgKaiqHdGVTmC3ICxN8lKo3lA4vfcNvTH8raVNfjbAX5uSLIlEAupSWxFEQIzLM+w+k/obL1LCzwKiUD6AX0F5egCLB+c+BslNq5VMgRiUmD7LcmUjgOrEws4VCgamji75cQWsPy00YSmCxzYJ6QbkzWPs5++RAaiZld6+idPpE004Ise9Cwk2q7Qkb94CnBly0IRK8jo9azSyJYLHLKjQxLRaWIFlEKh8Vo6RZwzapxZ0BoiswWnyYk2Hlrg4KtOHmNkGOnrPrMKO1H2I9XnfCqWhfN6EfDFCPbLuA8RWd9LJk7BD8tCydA+D4Tv3Uuif5VJOZAavcfTKWk0FAl0mJlIEy5oAVuRXK1JmqXDVWD6mJFZptHUGswMWdljMCLZUA5xlFiAuefZYzghAWi97QXvU1CbUyCztcAOE1mYkON30CcHua16mIdTel8X8Sv2IUahCgCESKEyryR5AyO6RAcjpqwruYFqCJWewery6UI8cN8QYAHVYJyPHajwqzsSKhRr7xiy+iweikWW5Qo4qXpyg8sY25YIjihDuhIbi8uLV4oOMBbHO5tzjtDXH1Xx83Siysm5OXDZFPvOTUg1CbTEkwrNMkmVT29NUQPhttJOtBc8OGZIqINyjrdUst0BONmPNQS5mh0G0HFIAAl9elb3IrsYhXOGbK81Jk6KyNEPRYb0OFQBap03KFYgESlSb5T7x+cqNr+AXMteYiriX/MtfwobEO+CdoJ0NZN+AtEucVQ9nde71ZN/UggyuGpNpf9sRAsiGO5jObADEwBVoV1Ymi7o88PwCe0yxYDmYJ8PVEMXELVKuLKMM5MAqyyw+nAawsoKqrhoCZXv9pQfSymnqMo5hPQCzYtmoPAEQey5kF90VCO4A2DQiZ6asMTeDNoRte9cDNcw1MzyMew6nLAOATVDxB4Mv8fkpgvHPspQ4QWzbUJ4RUKX9YwyYOoj5gWvARqBIWrhdIEZBNygNRlOpjYZLfox7tjJUrN4Yqjf7p3J4k5XbYFkNNWYMlCQYE5GeypSW9htS2n9oM/EHjizpRy7czjbFW6Bxet0rP97apyMDkO2ORwpyaqUwguK1y6CCUjUa4Q8hkb7NAYSsTM2jQksaM6PqroNCQL42HQL0i/6rSDV7MfVgcwvUH6rXH0ZuOZX6pxAkYW34S5B3Gu5vmrWSgOGrYQWnB41YdBBMlLUwlQH8BEZzFNZtZrE1GI2p7ofgboKjDSfgH7nq/AsfBm+fS6tQmD7aXDHgeVAASjW3AIss+QobqjWWOkGCijn4tsW2KUxHy9jNsASr8d1GeUNZJcf5My/b3RRC5zmiIwU8z8sksBSOz1lgoM2hvDnpVE0RQM/n/oFJLhIG2f1tRwogu6WZ1XSWjkwedntC8RXkgAXYQDGGKhjuQQ1FpnRaItS1s4zvq6stBM1LgRj5ZLH/StYGw+kBWyp6pO2gvo8g42TZ8x3w0aHhmqBbG8HWPvS7YDFWCNYXn53xoBZbymT8bBogyF8sO2kbG8wJtLFO7yHOI96IKzuwOdpeYQw1tYYyske6I+KShiQJoAhUmABQqQJEQcFCXnHYhU08eQxiw7BsjfemhYErwWN+ty9jo9jp9RomHOCx5oByTtSf1HLusTnBcvRhD7lQI+sSfdFZeAXRBw9C4dXXBC5sl1Fv2PK0HVz5drcjA5ANtvnNRpxz7740WHsVcdLMIzo2P8aKzzx4FzV75TSsDGF0cQnqgo2nJjnRk+0+O77IcVssvLrpcEvpCYbQdqazN7QUTvENsh/sgu50FcRcVjR6ClvQ05FHliPMZli8R6PnAfMWFM/CDqj2978ppVOwWJ2+sk5GuqCdC3j/x4CjwNRghkgdoLFVBrA1mlljuxKgbFq+KyhEUADgE1QAtsXnqOGIAE6OAZODPojxBS4WArWqPlEIJSx3ElQG04LVSgCMz18lc+VWiHMiusEVkGTbUKAawGcJTTUAp6zXCNgNY7wyAk3jbv3vkQIomhvkWQA9lNJ930GVjceYOSxX2ScwrMfDM6tWYFExE6eaUDbh8Q25iBnN+SE8KhMF06eLoQQYAAXJRJIt2yDOtdQbD0XrkBcWiPKF3WW88eV0+fkPsCjdE6lDqWC7uuoOkSbKtDICIAT6FxQlz46/HkrwYJxXI2mbDm0GiAJvDhCUTScIxbZHW0y0i/8B2KBAakj62nTFcLBx3oZjaixV9kLAl0pZXkZ3i6woNCfdK1TVz2w3FDfPKLLVYx20RV59ShiTY0d8Ci8t9Lo8lIWa+4/pX2mx1Muednq1rG//8Akp9Oi2mGBxe1hBdiKtLPXT8uLjaEd2sL/Q8cH07QA6Mzq93e8ccpMKyddhE9pLdKiiumrSnxAO65qs+ozGGAnLkuzV/HXIW4/RjV6PuzjQpjFbHpi4oA5qtkmLZnpIRfoUg3B5zrHxSBrllrT1GEcEdXHB4EWAyWK+I2UehDZljA5suEB4D8oS3n+BwBBCCYdEPo5pkyG94Z7Q8w9FNc1ovMzgApYCMHSU7WqqmExQLoybOk6qE3FTfbJHAixEc9a8WwNSJaTeASV9F/Ygbsj9OrJT2tpMLuUkARUM0961WfvajgxAUxhMG2/phEXmDh3BoNWa5mUFsCJnJL3JcQqfQdvjsTM6v1FHBQ8B+arSg6+n6sKXUdhexIpLKEaGfaVAZUbOGaKNuO5GRbzzktVZ0310skIxA4b/q4/Vu8MgFNiDmnvwEwOgYdMywKWUCq2qtyRlk5VA3Qi/rVhNaNKjMDCmh2aROqmM0FGb4i+TIVfgx0YlNdzi2AElbLo5ZfmgJB1Akms+sADpGucAkgLbU7e+F4s6hSQmmBHQUGtWZzR4LuQv7q/22nxuQGFHhqPdORd9pf/MSYAGGAK9lbSJseLqjcDuCFw51/NvZzsyALWNdaKESBLzgZfkW9DEd+UGbS38Y1QqOkQwSPa7NdbrSrItj+ANT/Rk+yNp++z7Izy2xA7ioEkRLFjewxc27uASGDzM1bTdMDABIBMVET6Z+dVmOyen81KWY2QirCjy9HFk9nQlYLdqJBwGnRQj8+2NpKyhZiVt140wsryw2htrxi4QdyTltPDwBINptnoPoSSnKaRl/huURjlFoyeqthUcG6oiZeE8snhrZSY5kn84IlMoj77RrTGdWLJz2R/RB9Y5UhnIoMYZRspJR6MoZZQ7sGBAC83k2lL5/W9HCyBnTDyDRFVqo4YAW9AAhu+q5lUx8ycM/ojZvw2b2dbVgaB4ovumtGIgGrafhueLvfMA58noYEu1VFHdzDLnSAFMz9EEkBDnrIU4JOrYQkhpWrETujr9qW0Xx8ieKlhkxE5zTdZD5LoWtWL5hh71q1X9LeNHfn/dIRogO02DoBRol/UyNija2gVUq8h1Rgv0XCc2ZBaBonDuUHhd+wTqInuTdfNeMWEc9CbJ0SUgXJ5TMwN+M+xMGXFPslzBPsZoOKKfKvqsoFhpThzVEA0uX34krQPcDHmusRq1z7i/96MD0JTcBoKc6bKZ+ixhqfittp/AffMk8rDWWzI1AJR58pdwNl7GDF0cw+5DxOJy7xV0Ht3BQKnCkoYIm1JMdE0wc8GgCgx8zsxdqnFdDHsE7WNjorpr1pfFaEfieIXOsO9AQax4r9Ad7Yo/XFdbC58j5tjZ6xAjl8B0x/lDyCiPY2civgg5rIMRs+g9AuV5BYcTFYmW1EV7VHujdAT/kE8CJu3L77ISqZ/URFWxuZesXEWgcW1g6QY0mhwmGC3HrLJoLewEq26KbGGpBzTblCkeI8c5gbquQ0u5P+shdbqAv/42zrmXlyz8IOjPEQvR9E7TbzyMg0dIfTpPSEd19jPp2IXPIYxiNAQAnR7aEHy8i/ApJRlj7U19fFjMrGBvDrAzGPdFRqp0ThHNPnHMGbagEmAoMKudxDqpODFLlkPoIIuoBam9ZbCSjELkE5fmLAh/iPBXAKZwC6VQRa4mJ8lUhZ2MgYDqsdTGQc8fY9EWrtUnCkCNjKyQxBJVKexFjaxifccGJIK2eWgHsAESe4JjQ4HJgyNEEhiZD9f47gRFIj07HzGhyI+rmUwmCYxYJp2FQMEzFBpK4/IMDfsilQn5MfQ8fGJ66gU6BbkB1tPYiXDvAKIGwNGYfW1HR4Fmm81DZgyIlmhV+DGaT47FuU9IQ8w+tSSBRMdgpmNVH/07sDdZEZGIOkstxmAIbE8ZgxJ3ixM6EIFYp8FEmcVVeUgeHFu1Y/tscqUnl5AWWNqgJquPUMvhFB1OiASsoAtYWBgcQyb1pfPjaG/3Q1keZR+x1FCzypRq/hXp/rSMGl0RzN8I0WABYDagloip8YgQqYs1jmRTvhrtMbOCv8tc4cKp0BonFIMYUxxrBGhGREIaLFZMXuB5nuDd+B5lIGobtQSE6+c9qZbyGtMojJHes1HZrf7fx4g4jqJdZ7CtUfUtwV7jiP1vRwegtv1Sbh5GAbEARMsIpUPSk3ONbCGT2DlNBznjw6YGm8k6zMxOU4zBo7xcVnLekAwPyLqzT7U+B3RacbfxUwwpbj4wuhFhPDgGwG3YFisBQYG2j78uLWawJP7lOmER1HNsLX1CP/r43Cpkm4rQE+Icg+65yTAN9ZDRFdFOmxwSbyM3hcqu7KTFGwDhbnHBuzp3fVZlNsrXKLtZ0k8lIRQAFAKMmhXgMeYnYqAAdqGgrCF0OvjRAtmqN43+bEAk51WNj3/2Y7x7yLQ/PfSAtqMDUDy0D8+TBc+XihC5a8aE3vMITZg+pQ/vIfHVQgz4qHQdZGfoXMM1fQw7SXZzks5/nkGGhaGBKdMMkIs2YS1jjIiyq8Kge9kX1y8Za6Jm0qR/L+lk35aWsQHhHCEgHwBN1PJwsaAhIejQRJmG2pQWXagAbZHWeKFYfchwEtmfCgGgydD2KjJqh7DiimzXHPbTI6KgZyV9wY+XflI+D5gUirkyFLEjFYHq9s2Bi5dyEE8tS+V+0V/t1nTIle/+SkcFBYo+8wxailHS7Ur9a1u/x8lXXenmvhwhgCThCojOKDh2yBzIFxEsxlqmAsiHjMnVdpoCM2IlboPh+AVcTc8w4I/wq1oMh6KqTlYfSkNSg/TMd/CAu9b80FJ6CLL9lfuwcD8IO3oV1Aq5QArEfUecX2X3Q31YFTHuhfbjGhuo4xrowivOXn8hf4N/hrjaPimRmh7qtDUZAUtEP9aEbxDYXldk2o7O4hIhrCM3bWg7rVBtpMBn5rIK1gLoEKMURlAvHsZA+sHJokrOuxrYlTLJVw+7xzUnRjfF1vZU9NqU+kjNjREaW9nfWCV9JO0DTc+73bcjBVBoGPHUjeVZVlBpmeUVBab22mIwkTYKgqUKBi1Yg4NoGOc9JCS+NRUnUVUpjtC15iIhDnr6l0le7KBCF6rf5T0MYOPOCPtKaCXSk0Z2aLgC94nfsKtMnaKyAAGkSa6kjc2gSW0AzOgzaXT+s8gpz3Nv4pXJKQvLNK+eGiEpRQUUReqSEZuja0P5Lmw6jrqDLD0TsIKGnRG60bYqBjxQtlev7ACnOSyY1hRAArL57IklACoE0A7S9oekIwRQ2w8+gN3lv0aozdByKtiGAnBj8GJwtduEAMRn11/FMx/hCpzTEHYfBd8QVKi/fj9nMtBGOLrQneGvXKntKtXYoB46WQlk9wrOfOFL/VY+IV85+AR8YV0EEGhEyC5jY3c8roOchU/MekNOAiMOBwi5Fy9/LC1Vz6ZFrN0553WxHLsyYvi2WCkxBGoAo0sjjKVhvlBWomVoodJkJ4f3aE0H0TNTecYHsJeaLVA3pVL0YEws5DEmo6KAwrOG0lrqjOO1KLBXIexbKjnO2/k7vdzOddvvN/d+hABy2KUyDX+2uQ3H5sHJtKjwxuuEEEBdFtvto50V1JHuAJ5FHIhLvQexCr8SGNAxwXJwO9BhPesvos2p6UCSuAXxP9xixGx3MPrhdKXD8V/JHrTqWP7FAg09qRkAqAnlqBFmjearBhgmc9RowFRTuKrKMQquv4VFfDXIKXNp4BMQDAm2lxy2qa0mR/7R6277DXQPO5IUhFclqGwDv8bzS/ICJFMbEaTPXS6/EMfZRcoxUqYgi43tSIpVEroywTZWaTJAiehh2e4g7BcI+1mG0K/jFXbcc7LZdmK+GxdI0wJ73ZZc2VqAzuy6zscjBJANbVhX8xC2UgjRJDSi3ulviUjDnFneK9YIyYT9wIJqtLQax2te0kGo2s7cyDjViKcfC0dmIAZAuE8LbVT5AI6hdms0JDxWKlAh89Rkdhj+4aJ4OVrRaPQ5vPMfJzME2wrBbdXoaWxPZwJAHcTrsv8YtiZYYIS8em27n2tice6T559vM8gI+R0zQgRWBJCJD9t0ZbCCIirIuz/Gr6UtDUAakEgZp5XU7CuocoFfrIOyUOhUBaCxbCeZJLWTBtdON1FzqcDOA1AyFArDOSKuKLaGzu9EVorn6f7pAbf8doQACv3gqgY3hNUBIJC9+x1p7ZTaTRMwZSdUsoww78OgcEs4Nb1CuDIATRjrZAcCB60nUWi8wjCn2T9HLhnhy9rC9G/l1toQ2vzNXP1VnKVjsvEpaXu5OPoy5fU2oFYIvqrhUdiKLQgFLhJLzehGAEDNbMb+pEsDylhtYnNCgK/MSWsHKB5T9uXzsE0fu2FTSlRSF3bK2oIiSSUBRHjeuR4saRugdAhxWercD4V5AJDQR1CcYM8R9gEFIhPF42fDOprgN65t222DNw9ZKloU7+1b8+XW/h4hgPZquRBy5RwyUrECNx5nH1T25MO2LgWOU3OxV+ySoPHswztO4edIyBtiuZ0Mn6WvLHF3CbV/Cw89rEWbixmnC6dxckLui4c5Vy2umaWmDU+yC7hV0PLQkHLDSFXPDZb3jhj+yih8bkU0AURYBl7u3FnfIZ8MilZjzZ5g4FTGuUruVZhtnyPYdzPwRhQ60AWht4W+MwLEMlhPgccerQAiBVu2ikmXdWOhMDmmi8yQDtw3EZYSbE0QtlRuCoxosH+a77FiQGyCaLp35tDpj7f0dsQAmmlrPIgAQqSNjNJGYZYNaECD9/CbEYQCp3FsVhYYV2MDcJoAaopjVgz+aPwVBNoPp+HFT2OFfR5BGsMd4a/qWjn2lwFugiFOx25BlCFgYmXixyQAABmKSURBVOEOrsEMRvAsYBNdBPVYW5zrBSvUrhLOTXHk2h6UfalexDmqY9W2WryAekVQBSMEBwBlgvulme+aKAAILyeHLhDlFdONOjg2e4SdmjKdAZQ+VKxLUmMi0bKJJFTOEtxOJimLQJtS2pCXHL4p9RIRsbUg4aO7eLW42QGzD7JDHqen3ebbnQOg6QMIIS22yhhEzvAehVv4exmqgJ8KFtSDmoxj1WacpF0oSP4ox+GwJG6oqatj/tcGgiMugOwpZq1GPEImdLpanR7Ny5jljlkSXDss3uHWwPmZIaTrG8PS3ZViABRjmyOLg+96+LfIRy+Rj9Yi49NRUljGAAoQjTiUpZQursf+AnAbspGTh2YiZNlHLkGL08/WxUWyRGShrpEofBXsqIkwaP1oYSQNM4dD1YKkkbzYweZn90+pT1C4l27NXv7u/fNLT7jJPXcWgGJiKAVASQBMls5g4icnDAPdNgO5idW2YPYvUGljsoXGhAzQWXw9CRp0sEH5FTPVMjEMXEcBFbXbih/9kFnUfJj9hnrwuQBIOYDMrcCBMJ1FwQaoD+xhiWCzStApK4UhDyYaWpBqMgNGrHSFkE2qK+f4T6rgvaFAhN8W1mBcRb/TmElkYY/QDgVcHawVgEmYIKQ6OVQxLwkmM8abPQ6uxOGqzQF331UDL1iUlwSP21S2ufqg6W/TUzn/JZd+yXV3TrnpD3cWgKIvGJDI+SLlhvz08eVPpMnGk3T0C8xYKmYQZah630OILioCuYaUhSKeur/0WliYKTuuo2G8DQItFTPzietucFnCN8Z9bDk9Qh4AwhjVtlN9HQrzFQYe6qUAapZFRZAXQvy4/hrDAdNkkEP4hKI0sgqmALhox4wRQCNbCVEeEOT9V5PkiLaIAN/jfgrnwZ522A/XD1mrYUWxzKdV++UxyktXD/l1BtEjpyr/7nMOmMJcpxHx050FoJ2Hl2Qjc1ii5PKLLCD3NDMf6tOn7k0f+CDYdtDEEIugKHis8w3kFg16GuMEEFka+L26FovabiiHlF3jnVZlDZIuTFdt42IonkVAldqROmRguwWZ1HAQYMv8BJGFrqHBYElN8NOZfNjjmCJ7EAqHWq1xk7tGPBGqc4EMo/lu6oXifXZEG0NhSzlaAhBZqDtkpjl+9u+1B/HW0dJSoVs/c+9W3FkA2mnj9DH1DUEVGqutaraP3ZDv6HDYkfG++pmszNWY3ZzdUCdW7ymOUwUfs/3EJaWkB2RlROBZyTElyYYTXBKc36OweDPQkCrKzSQcq6l+JXIvsotrmgGJAqNhv4uQa6EptcQKGxJUMAsrsuyEtikz8U/aMGUce/f6dG9zdHvsQQ3pdW954D/ekQCa2l8ZBimRqq4akdoX4FG2cVNYQEsyaL5E8yqx82Q4RJtoO9gR5vuSBLsxLy3SfQ16AKmKNTdQl2FzHUrACJDGHsPldAcYJtt/CJsKVI4MClVnfWUaNJsQVNkWWpRB/dieLE0YzWnepnSk/bYXKBqZaXr4zJntVfY658rR+/10vZbdzrXvSAA1mgXDapBZlLHj0cKiy+OHzQdAKTPgOqDqEloath2DzHR9yG5gMxVa16A8jeb2ECBDo1MlR+23/JLW7B4Jit2FByPFp0kWbMyYVj/LeyQ19rTiToXjqcwiXWwkFUAQnLFhRg5KyxraQbiadV1/bwM/r/LygKdtzUG836EAkgYxJPjAXImwGhCvY+ZndLASsTJD45AMg6LraBAaYVio62FIhQqoUbegOKaVyLAeZ4TwNSEjyDGwoQ6ySoa/yPBTbS4RWOYQRniJgi6qdfi5pHx6zASTtiD9UR44NRmEJnTwAx+34HWnb3ccgBroNExMC2zdY/0KqpSNsdMY3qCgbGCrpZb0hmfYfzoKtWHHgWYEKUAzQzVfWXhLWuw8AoCQSyz5KwBQ0s2n13AXGbEAsvGCCwgpiSwSsMQINuBp6UsjszQDG87Oqcxz9VC3R93s0DeU5xsBLHs90R0HIBvZ6CQ0jQIKZfeBtN1nqW/sQR0FDiIDXVdVg11GUt4CXvk+GRAdEvEa6sHIcpixzl00pW4XgThGpxmoUH+NNYp4I9mhm2hpQOu3YGYBDo/RCuzmsXHh2DTkumeHpTV7mx93/k4P3rX36q+zx7RtuFUQXvcGh/rjHQggO3RKXfQ2p4ep+fNWxhtPMxpZ5mqGrsgDgDpaeRGGMyy6+oa07jbwa67RfLf/9h7IhuI0/euQTeken9rj/bRHF7UgilP9cuWM5mqzf/e+90uPu1qOCkJ6E9vNX/0mLnYbh+Bf2/Gw3cbpB3+Kg6ioK1spcFXkWJKr7pN822CYGqNcE8jlwE7tReGh57vSdgjRdGv7sol+3mObBZADNlXGPWEGQldObKDSfm+o1h6Xne66AsKrj7n2ec0vV9/l2tdvfrm1o290tVv/fY/pdesXObgzmmFsSqPAyCxoGMFTGPn0eEeYAy8MfgZGePRUd0KIbsi+Hucmgm+G7jQH3rCZzWBcAdvesNt9mesdtddve+2bvebev++9d+YZdzfrZfp+hwGoAYRQCPeABroIUTD9V7QYG4TQq72GHQ3xbCSmHZI/7emrfUrtrzPDsGtEmq+zf29mBDx+14Vu5rQ9ztlp/3XOv507XedyB/LTHcfCQpilN3cYK70mWBoJYUqhUOObXYArog+nXbuDmikQZllXjPXVQ+DVZgduD5hd1clxiV3dfq2B333crtOuum/7242udaNr7r7Hy/H9jqNADtFsR7Wd2jgb/Nt8Cqw0Di4+TLUp9/kDF2hANwUI33eLQXH6Hj28F0jaw3YP4Ow1Zn/bfdzu21zr3ruPu5Vr7j735fp+B1Kg6cjO9F470LHrKvLk9/ZA3gNAvqbq8HSX+5qjrlz0eoN/5ahdw3BVQ5rbze66mfNuBTzXvF70w0zbrnvgrmc44K93IAWaguCa/bOrt3a+zvbo1deY/eVan1uL0DXHYtfld4/DrY7nXpe75r133+wO+n5nAmg/HeQozI7EzucrO3cPdvvLSwZwr1He1bb2EM/dfd0bPcatHr9zvZto143ufVC//78FoJeA56UGvt0gaU+J/bcxMLuvd7MDs/u83d9fcp3rte22kfiSu9zyjm88AEVP37C7d4Tmvfr9xmffcj/e1gmH0g4f+FAuvPcjtqx/71+/Ufe+jB24u4sO4tb7usa+Tt79NDf+/o1HgW70TLs6cHd/7kWRbnTJq37ffcHpj7O79zxkZqcf92rHDa9xo4bueeMbnbS/378xAXSLHbX78L0GL7px94E36Nv28PZ61zx95ofZY/Zqx81c4wbNell//n+Thb2sXXh33+yuB5Az/pqz/iaxcadcY7a5+gldd+Owt29MFraPXtkNlt3fb/XSt3v+7vN2f7/Vduw+XvAIIhfYO8ztrgOQnXnQg3W7A3QY7WgpT1Mn8TDucPXT3jaA2ji0CN7aY7vR73ucMt91nR5ogbHNUppDViB0aYalRap2sEym1MZ9Fy9eTM8//3x64okn0hZry776Na9O3/zN33ydq+7/p1sGkI3d2NhIZ86w0jAksgVK25QWUJLOLmtpLS8vp7U10mhci8L6fM2qt/tv+V12Bfv52WefTf/5n/8ZAHn44YfT2777bemhhx8K4Hz0ox9NH/zgB9MnP/nJ9IlPfIJCWaP0K7/yK3cGgGapiQ371Kc+lf7+7/8+XbhwIV26RMnaqT7qbBA0Hi9QjlHN+6GHHkqvec1r0ute97p0+jRFBgDWtajWXYaJW3pcJ9/HP/7x9Fu/9Vvpq1/9avqmb/qm6Mv3nH5PTOiPfOQjMSaf+9zn0rlz59J99933skzWm6JAbe3hWYrj56997Wvpv/7rv2IGLJCH/qpXvSpeguzs2bNBpToUmnS2fO/3fm/6sR/7sfT611NNY06Fbgk87cH26Ze+9KWYtE8//XR68skn09bWVlD4d77znUHl//iP/zj6fjdnuK0b3sRJNwUgr9NSjX6/n77lW74lPfroo+mf//mfg5yKeqnNj/zIj6Sf/dmfjdt+5StfSX/5l38Zs8IZ8+UvfzmA9au/+qvpnntI6kN2agE5qzHMssBrtX+WIrbHeI2WRe5F4TwnXKszIlvsm7Zj9hmvd1/v4Tl7aTcvvvhisBDrMb/xjW9MDz5IJVfusXvbq33tMR7vPdxmJ5oT8dWvfnV6xzvekT7zmc8EBXrta18bE3dpaSm95S1vYQXpQfq7v/u7uGfbp7vvfdDfbxpA7Y3tOOUagSRL8sEia5ROPX78eHr8lY+nBRZ0k22tr6+np556Kv3rv/5rAE3Afed3fmd617vetdM5Pqjn+y778/rtwHrPtrNnB6LtnHYgfW+v4+drUTjDzFr/fHu93e83M7h7gcdn+O///u/0m7/5mzGov/Ebv3EVgNrrzsYHtAO9m623IJ1tm5/f/OY3p1//9V8PkNq/3/7t3x5j0faD/TULntk+O2jgtNe7ZQBdryFtg+2kHkWWHnnkkfSGN7whfehDH0pqD5JdqdX3fd/3BQDtKPdLhu3EtVUyL3h3Jl2+dJniBh1WwqH6KQUmW8pRkt8+YHntrW0XxLVQd0MNBJ8kvB2o3YNipfYR1eG9tu101gq09v5e12t4v0WXGWezfVJNNRw/e7ztdtLMbv7WCrhSB59ZQLXbbL8Yfet3r+lze/32d+9vuwRggBTiJejbCWO7pP6KAT6n7SipP20/7b6X1/yGA1B0OgHvPrB1DldXV2MWOkscODtL/q3QZwc/99xzwerk5ffee296+9vfHiBwJqtJnDp1Kr3j7e9Ir3/D66Oz7PRnn3k2QPilLzeyQAsiqd9jjz0WZP3++1lBh3u6+bsy2gvPv5C+/sTXQ24TBN/2bd9GTaFu+vRnPh3XE0jeT1bgS7C88MILwX6lot7b5/EeAkSW7eYz+Rz/+I//mP7lX/6F+g0U5ONYKa5gcqAFhNe2Tdtb26FqK8v43JcvXw4g+fL6sqk3velNMfmchG4CQYXlmWeeif7yJZje+Y53xvEBaMG2B7uMCxzidqAUqH1YQVREUWySBOnQlr04KH7/4he/GFTpf/7nf6IjFbYlx3aKcsQf/uEfhlpq50gRXvu610YHq/39zd/8TairCooOor8LEL+fPHkyhMkf/dEfTd/6rd8ag+fgvu9970sf+K8PBFjsfAfzXT/8rgDNh/77Q+kLX/hC2tzcjP3f9V3flX74h384QKbW4z2lnALFeyl7/MzP/Ewc4/MIAtv0p3/6pwF6Aevxf/ZnfxYTQaqiYvHe97w3PfrYo8F+PN7nty/UUr23MqLPrvb0gz/4gyFLyrKk5gL5b//2b0OFt798Pf744+mVj70yve71rwsqNY0CP0So7H3pAweQpNeOFTzOLjtT6uNgSp6lFILBjv/0pz+dPvvZz8bMdHb91V/9Vcza//3f/40Bc4B9t6MdyN/93d+NjnSzk3/8x388KJyzXe1DGUuASOUEg7+dP38+BufDH/lw3M972x4HcP3Yesx6B9FjHCiv4Wf3tWzLY77+9a/Hy3bbXqmEg+3gSx28rse7+axSWPdJHeI5YJ+C+a//+q/T7//+78e93vve96Zf+7VfC9Cphv/RH/1RgFZ2qGalnCOQW63LZ7NvvO4rXvEK1r1oJue1ZL69h/xg9x44gFoZxEGSXcge/GxH+NBvefNb0hve+IZgWc5OZ79gs0OlIPJ3B8/zBJyzXgolcJy5DtZ3f/d3p5/8yZ/coRSyFO/r/T72sY/FsXb+z/3cz4UJQe1QMAs02yIg3v6OtwelkmUKrN/7vd9L73//+4OaOWDO/h/4gR8IsMjG/vzP/zyu6/2lNALddkoJpEg+g5PA8x9FQ/2lX/ql0JjcLwvznl7HNghqJ5p9ICt1ghxbPxZ9IXhlcR/76MeCIsmOH3jggfSLv/iLobQ44XwWryvwBKr96Oa+l5uN7RtAbaNDuGVw7HwfXAD8xV/8RQyO2ytf+crQvt76zW8NVmUHqs47a305myXb7373u2OG/du//VvMRAdIki35dvAccFmCarLX8Fyv53dlFylVq/EJANmgwHWwWo1R1vcd3/Ed6Tt5qWTbNgdfAHk9f3/b296Wvg9h3wFS7pESOnheX3bp8V5PgNt2B9e22aaF/kI6fep0yDFurdBtG2R9Xt/rOhHc7LuM1Gyv1ZuC4RJrirUsTQA6EbzHLEBaReEogBMNZ9s3gLyIs19SLhn+gz/4g6AYdrSz1M5zMN7znvekn/qpn7pK+PTBW7J/4sSJGCipkGzu5/7vz0UDL2xcSH/yJ38SrEnhtB0wZ2YHVuliat7fQZFlOYiyDGey8oYAksS3JgKv6fcYVM4zl14q4+B4jAPr9XzZPo+1PQ6gbNFBc8Cd/e3mM1wl62GRVzPyHkGRp9qUE0Zq9dM//dMx2ewzJ5oUR+rz+c9/Pm0yebxWq6UFwtnavvK3FjDXozbtM+w08pA+7BtALcuyQ+0AyasD4aD80A/9UMxuBVPVT8n0zW5t52xe3gxKJGVzn9RG+5Issb2313RgZXn+3g6OQG43B7OdsVd17hQss7+112tB5LvP5D3dZu/bXl9ht92uNbDul8W15owvfP4L6ew5VqoGNC2IbPte97jeNXduzAefY/ezzP5+0J/3DaB2NsjjJflSmtY66oyVbDvgMRjYYtrOj0Gc6fRrPZganfdoO8aBbGe21/OfVMLfHWB/99pSBdmOW0sh2ra27/42+7k9tt3ftsljvKb32RM8UpkZC/fsdeN4f4OSyJL+/d//PVR+J5vXfeMb3pje9E1vignmpFPQ1syxcw2fkONm27K7zVf16XRC7NXOnYsc4Id9A6hti4On4CrVEUA+5Eu0A2xjVz3YtNMDTNOX1/Nzq5Z6XdmWoPGaLWmfjKk4z4C6tR3cam5+tw0Ct93aY3yfZTmyBLcWHO3geMzsZ1nbbvbRsl/fZ49v7xWsazr4UhZNE7/zO7+TPvzhD4dg/Au/8AvpJ37iJ2KS6QBVrmrlqHZS2BctRbGd7efZd/e/XIBp+7N9P/BwtfaBXwKeW3zIFlCCR21HCuc+QaIQ6yzVWGlHOkiygXb2OpgOkNpZK5u0D9x2dAuO9r29387gc8LsMS1IZt93focStgDyPi2wpDwCT/au5qWMqO1LNq+A/e53vTtkNFV2KWcLYt/b735u2a/P6vd2X7t/97PEM1whWrvH/EC/7xtA+0H+7GBd66mUaQSCJF4wORgaIj/16U8FNXJznyqygqiblOetb31res2rXxPf205v2aAd387w9rf2ewuk2f2zA7Z7f3xXaJ7KWD6TwrHyl1RHwNtOPwt6P3sPj3nm2Ubtd7/WbidAK5wLfMG3m7K131sge7+2zS95381XozcOdrtpFtai3NvbKRsXNkKt9iHtPN8VENt9Drz799rspDaWyIe2M7ymgrLXcPbJgtz8zdn6kz/xk9HBGtLU7pQjBIrakzYkvdBqXWpzho78nx/5P2mJlfzcpE5ed1YmckAdTEHlZ393sz0OnlTCQZaF+rvXcL/H2yZ/s7220+f0XTD5m6xIB7IyjYK9FEZNTnVfbdFn1zTx27/92wF62ZYAUi6yjfal8pLHaIJo1X6pmG22HWqaAs92OrFsn589N9qB7Hh583I8l23zHoexFf8f261cWCA52zXqaTdx0Ozglpq0na0AbcN3UyjBo51Gv9E//dM/hXru5kA5EJ7vZ9X5drNDTp0+FWCxo+xIB0mrsGBysHRveL52lp//+Z8Pzc/zpAS6Mv7hH/4hVGYHyHYJNNvoOYLS59FAKAC8vxPAgT9x/ET64pe+GEZEZZg21qbVNGWtgkMZxrbYNoFl+/wuKGyz9iyPa+OkBJHPrrnDCSAIfHmdlrL63trMlJucNFqqbaOAEJy21b73Ov5uG71G+xyCuO3P3WNxK+N+rWP3JhHXOnq6306ShdhRWo7dbJydKp/3XRbiQ7Rktb2kAJKSyIYcyO///u+P4/zsfjtcm4vn2THOeAfZwdbI6IwULA66qq8z19/1pWlI1DinXGGnCRbbqgvC6+kf814Oip3sfgdNIDqrdea6CTxnt0A3ktJ2qXprexLYtsmZrpFUM4VtevM3vTmsxe/7j/elp55+Kq7j4Pks9pE2KinpL//yL8c+n997PobtS7DrY/M+UlUBZR8KEMHnJBCM9t33fM/37DyD1EXjps8arhgcxo8++uhOGIn94gRXSLdPDgNAN11gapaF2fl2rh3QbnaqmwMkyQ1vMrNkd6PteGehneQA+7vX8fp2moPbkvrZe3pdNwdX4Hq+JNtZ6j5nt4M7q7G1rEg7ksfOXsP7tkZLn0fAuM/2eV8732tK9fzda8yeb1sEiKDyeTUpyDLOvHAmXbzEYni01+exPVK7ViOUwgoIr2n7vEfr1rEN9o37Pdd2SOH87PPKtmyfv/vMLeuUUvrbxY2LYdH2PI/xeQShBkxfh7HdNIC8uQ3bve0GyO7fb/a71959rZu9X3vctc7fvX/2Wfb6bbbNu9u1+/u1nm932/e6z+y19jr+Wvfa67zd17/Wuddq7+3uvy0A7W7s7d78RudFJ6hJ7DLS3ei86wHgVs6dH3vjHrglAN34cvMj7rYe2Lcd6G7rsPnzXt0DcwDNEbGvHpgDaF/dNz95DqA5BvbVA3MA7av75ifPATTHwL56YA6gfXXf/OQ5gOYY2FcPzAG0r+6bn/z/A5UgiAxQj8k/AAAAAElFTkSuQmCC;" parent="1" vertex="1">
          <mxGeometry x="260" y="452" width="78.55" height="96" as="geometry" />
        </mxCell>
        <mxCell id="5a-bvg9B6i0M9ogNFUY2-17" value="" style="shape=flexArrow;endArrow=classic;html=1;rounded=0;fontSize=18;entryX=0;entryY=0.5;entryDx=0;entryDy=0;exitX=1;exitY=0.5;exitDx=0;exitDy=0;fillColor=#e1d5e7;strokeColor=#9673a6;" parent="1" source="5a-bvg9B6i0M9ogNFUY2-12" target="5a-bvg9B6i0M9ogNFUY2-3" edge="1">
          <mxGeometry width="50" height="50" relative="1" as="geometry">
            <mxPoint x="370" y="500" as="sourcePoint" />
            <mxPoint x="440" y="440" as="targetPoint" />
          </mxGeometry>
        </mxCell>
        <mxCell id="5a-bvg9B6i0M9ogNFUY2-18" value="" style="shape=flexArrow;endArrow=classic;html=1;rounded=0;fontSize=18;fillColor=#e1d5e7;strokeColor=#9673a6;" parent="1" edge="1">
          <mxGeometry width="50" height="50" relative="1" as="geometry">
            <mxPoint x="360" y="320" as="sourcePoint" />
            <mxPoint x="570" y="450" as="targetPoint" />
          </mxGeometry>
        </mxCell>
        <mxCell id="5a-bvg9B6i0M9ogNFUY2-19" value="" style="shape=flexArrow;endArrow=classic;html=1;rounded=0;fontSize=18;exitX=1;exitY=0.5;exitDx=0;exitDy=0;fillColor=#e1d5e7;strokeColor=#9673a6;" parent="1" source="5a-bvg9B6i0M9ogNFUY2-11" edge="1">
          <mxGeometry width="50" height="50" relative="1" as="geometry">
            <mxPoint x="390" y="490" as="sourcePoint" />
            <mxPoint x="570" y="550" as="targetPoint" />
          </mxGeometry>
        </mxCell>
        <mxCell id="5a-bvg9B6i0M9ogNFUY2-20" value="" style="shape=flexArrow;endArrow=classic;html=1;rounded=0;fontSize=18;exitX=1;exitY=0.5;exitDx=0;exitDy=0;entryX=0;entryY=0.5;entryDx=0;entryDy=0;fillColor=#EA6B66;" parent="1" source="5a-bvg9B6i0M9ogNFUY2-3" edge="1">
          <mxGeometry width="50" height="50" relative="1" as="geometry">
            <mxPoint x="390" y="490" as="sourcePoint" />
            <mxPoint x="880" y="502.105" as="targetPoint" />
          </mxGeometry>
        </mxCell>
        <mxCell id="5a-bvg9B6i0M9ogNFUY2-21" value="&lt;b&gt;Promtail agent collects the logs and push to Loki&lt;/b&gt;" style="whiteSpace=wrap;html=1;fontSize=18;strokeColor=none;" parent="1" vertex="1">
          <mxGeometry x="460" y="300" width="230" height="70" as="geometry" />
        </mxCell>
        <mxCell id="p-C41zMxVypf91vqMdQc-1" value="" style="aspect=fixed;html=1;points=[];align=center;image;fontSize=12;image=img/lib/azure2/other/Grafana.svg;fillColor=none;" vertex="1" parent="1">
          <mxGeometry x="900" y="466.8" width="85.52" height="66.4" as="geometry" />
        </mxCell>
        <mxCell id="p-C41zMxVypf91vqMdQc-2" value="&lt;b&gt;&lt;font style=&quot;font-size: 18px;&quot;&gt;Grafana Dashboard&lt;/font&gt;&lt;/b&gt;" style="text;html=1;align=center;verticalAlign=middle;resizable=0;points=[];autosize=1;strokeColor=none;fillColor=none;" vertex="1" parent="1">
          <mxGeometry x="847.76" y="528.2" width="190" height="40" as="geometry" />
        </mxCell>
      </root>
    </mxGraphModel>
  </diagram>
</mxfile>
